<svg width="1047" height="852" viewBox="0 0 1047 852" fill="none" xmlns="http://www.w3.org/2000/svg">
<g clip-path="url(#clip0)">
<path opacity="0.1" d="M632.92 851.78C691.981 851.78 739.86 843.757 739.86 833.86C739.86 823.963 691.981 815.94 632.92 815.94C573.859 815.94 525.98 823.963 525.98 833.86C525.98 843.757 573.859 851.78 632.92 851.78Z" fill="#FF00AC"/>
<path opacity="0.1" d="M628.43 105.33C584.65 142.47 527.85 140.07 478.13 120.75C428.41 101.43 382.61 67.02 334.13 42.57C294.447 22.3781 251.702 8.87974 207.62 2.62C145.83 -5.95 76.81 4.49 33.75 64.53C-14.2 131.39 -10.51 251.98 41.35 313.39C67.73 344.61 102.27 359.93 132.4 384.31C162.53 408.69 190.4 449.16 187.84 496.21C185.47 539.77 157.84 573.21 129.28 594.21C107.19 610.41 79.99 628.11 77.28 661.68C74.7 694.16 97.57 719.61 119.42 734.09C190.66 781.31 278.42 780.85 349.42 732.9C374.75 715.79 398.02 693.04 424.58 679.7C494.3 644.7 571.14 679.93 644.96 692.82C707.45 703.73 771.53 698.08 832.41 676.29C868.97 663.21 905.67 643.21 931.36 605.95C949.88 579.08 961.42 545.07 972.25 511.49C983.81 475.677 994.917 439.613 1005.57 403.3C1011.96 381.5 1018.26 359.3 1019.91 335.96C1022.91 293.69 1010.29 251.96 993.12 216.24C952.39 131.48 883.72 71.93 809.39 56.8C735.06 41.67 656.3 71.22 598.62 135.87" fill="#FF00AC"/>
<g opacity="0.35">
<path opacity="0.2" d="M500.99 204.04V197.39H396.19C391.37 197.39 394.31 204.08 394.31 204.08H337.37V353.23H587.37V204.04H500.99Z" fill="#FF00AC"/>
</g>
<path d="M833.41 315.29C833.41 315.29 864.92 259.47 912.41 243.39C932.358 236.771 949.619 223.857 961.6 206.59C967.226 198.353 972.083 189.616 976.11 180.49" stroke="#535461" stroke-width="2" stroke-miterlimit="10"/>
<path d="M1005.91 170.17C1000.51 175.42 975.33 180.85 975.33 180.85C975.33 180.85 981.5 155.85 986.91 150.59C989.507 148.07 992.998 146.686 996.615 146.74C1000.23 146.794 1003.68 148.284 1006.2 150.88C1008.72 153.476 1010.1 156.967 1010.05 160.585C1010 164.203 1008.51 167.65 1005.91 170.17Z" fill="#FF00AC"/>
<path d="M991.67 215.39C984.28 216.86 960.19 207.73 960.19 207.73C960.19 207.73 978.97 190.1 986.36 188.63C988.117 188.281 989.926 188.282 991.682 188.632C993.439 188.983 995.11 189.676 996.599 190.672C998.088 191.667 999.366 192.947 1000.36 194.437C1001.35 195.927 1002.05 197.598 1002.4 199.355C1002.74 201.112 1002.74 202.921 1002.39 204.677C1002.04 206.434 1001.35 208.105 1000.35 209.594C999.358 211.083 998.078 212.361 996.588 213.355C995.098 214.35 993.427 215.041 991.67 215.39Z" fill="#FF00AC"/>
<path d="M939.8 264.39C932.68 261.93 916.5 241.89 916.5 241.89C916.5 241.89 941.61 236.14 948.73 238.61C950.423 239.196 951.983 240.11 953.323 241.3C954.662 242.489 955.755 243.931 956.537 245.543C957.319 247.154 957.776 248.904 957.882 250.692C957.989 252.481 957.741 254.272 957.155 255.965C956.569 257.658 955.655 259.218 954.465 260.558C953.276 261.897 951.834 262.99 950.222 263.772C948.611 264.554 946.861 265.011 945.073 265.117C943.284 265.224 941.493 264.976 939.8 264.39Z" fill="#FF00AC"/>
<path d="M892.21 292.6C884.78 291.39 865.44 274.39 865.44 274.39C865.44 274.39 889.22 264.49 896.66 265.71C898.428 266.002 900.12 266.64 901.641 267.586C903.163 268.532 904.483 269.769 905.526 271.226C906.569 272.682 907.315 274.33 907.722 276.075C908.128 277.82 908.187 279.627 907.895 281.395C907.603 283.163 906.965 284.855 906.019 286.377C905.073 287.898 903.836 289.218 902.379 290.261C900.923 291.304 899.275 292.05 897.53 292.457C895.785 292.863 893.978 292.922 892.21 292.63V292.6Z" fill="#FF00AC"/>
<path d="M939.19 188.22C939.19 195.76 952.82 217.61 952.82 217.61C952.82 217.61 966.48 195.77 966.48 188.23C966.529 186.407 966.213 184.593 965.549 182.894C964.886 181.195 963.889 179.647 962.617 178.34C961.345 177.033 959.824 175.995 958.144 175.285C956.464 174.576 954.659 174.211 952.835 174.211C951.011 174.211 949.206 174.576 947.526 175.285C945.846 175.995 944.325 177.033 943.053 178.34C941.781 179.647 940.784 181.195 940.121 182.894C939.457 184.593 939.141 186.407 939.19 188.23V188.22Z" fill="#FF00AC"/>
<path d="M883.96 221.92C886.21 229.11 905.76 245.92 905.76 245.92C905.76 245.92 912.25 220.99 910 213.8C909.534 212.012 908.71 210.338 907.578 208.878C906.445 207.419 905.028 206.204 903.413 205.309C901.797 204.413 900.016 203.855 898.178 203.669C896.34 203.482 894.484 203.671 892.721 204.224C890.958 204.776 889.326 205.681 887.923 206.883C886.521 208.086 885.377 209.56 884.562 211.218C883.746 212.876 883.276 214.682 883.179 216.526C883.083 218.371 883.362 220.216 884 221.95L883.96 221.92Z" fill="#FF00AC"/>
<path d="M834.76 262.04C835.76 269.51 852.2 289.35 852.2 289.35C852.2 289.35 862.81 265.88 861.81 258.41C861.681 256.548 861.172 254.731 860.314 253.074C859.455 251.416 858.266 249.952 856.819 248.772C855.372 247.592 853.699 246.722 851.902 246.214C850.105 245.707 848.224 245.574 846.374 245.822C844.523 246.071 842.744 246.697 841.145 247.661C839.546 248.624 838.162 249.906 837.078 251.426C835.995 252.946 835.234 254.672 834.844 256.498C834.454 258.323 834.442 260.21 834.81 262.04H834.76Z" fill="#FF00AC"/>
<path opacity="0.25" d="M1005.91 170.17C1000.51 175.42 975.33 180.85 975.33 180.85C975.33 180.85 981.5 155.85 986.91 150.59C989.507 148.07 992.998 146.686 996.615 146.74C1000.23 146.794 1003.68 148.284 1006.2 150.88C1008.72 153.476 1010.1 156.967 1010.05 160.585C1010 164.203 1008.51 167.65 1005.91 170.17Z" fill="black"/>
<path opacity="0.25" d="M991.67 215.39C984.28 216.86 960.19 207.73 960.19 207.73C960.19 207.73 978.97 190.1 986.36 188.63C988.117 188.281 989.926 188.282 991.682 188.632C993.439 188.983 995.11 189.676 996.599 190.672C998.088 191.667 999.366 192.947 1000.36 194.437C1001.35 195.927 1002.05 197.598 1002.4 199.355C1002.74 201.112 1002.74 202.921 1002.39 204.677C1002.04 206.434 1001.35 208.105 1000.35 209.594C999.358 211.083 998.078 212.361 996.588 213.355C995.098 214.35 993.427 215.041 991.67 215.39Z" fill="black"/>
<path opacity="0.25" d="M939.8 264.39C932.68 261.93 916.5 241.89 916.5 241.89C916.5 241.89 941.61 236.14 948.73 238.61C950.423 239.196 951.983 240.11 953.323 241.3C954.662 242.489 955.755 243.931 956.537 245.543C957.319 247.154 957.776 248.904 957.882 250.692C957.989 252.481 957.741 254.272 957.155 255.965C956.569 257.658 955.655 259.218 954.465 260.558C953.276 261.897 951.834 262.99 950.222 263.772C948.611 264.554 946.861 265.011 945.073 265.117C943.284 265.224 941.493 264.976 939.8 264.39Z" fill="black"/>
<path opacity="0.25" d="M892.21 292.6C884.78 291.39 865.44 274.39 865.44 274.39C865.44 274.39 889.22 264.49 896.66 265.71C898.428 266.002 900.12 266.64 901.641 267.586C903.163 268.532 904.483 269.769 905.526 271.226C906.569 272.682 907.315 274.33 907.722 276.075C908.128 277.82 908.187 279.627 907.895 281.395C907.603 283.163 906.965 284.855 906.019 286.377C905.073 287.898 903.836 289.218 902.379 290.261C900.923 291.304 899.275 292.05 897.53 292.457C895.785 292.863 893.978 292.922 892.21 292.63V292.6Z" fill="black"/>
<path opacity="0.25" d="M939.19 188.22C939.19 195.76 952.82 217.61 952.82 217.61C952.82 217.61 966.48 195.77 966.48 188.23C966.529 186.407 966.213 184.593 965.549 182.894C964.886 181.195 963.889 179.647 962.617 178.34C961.345 177.033 959.824 175.995 958.144 175.285C956.464 174.576 954.659 174.211 952.835 174.211C951.011 174.211 949.206 174.576 947.526 175.285C945.846 175.995 944.325 177.033 943.053 178.34C941.781 179.647 940.784 181.195 940.121 182.894C939.457 184.593 939.141 186.407 939.19 188.23V188.22Z" fill="black"/>
<path opacity="0.25" d="M883.96 221.92C886.21 229.11 905.76 245.92 905.76 245.92C905.76 245.92 912.25 220.99 910 213.8C909.534 212.012 908.71 210.338 907.578 208.878C906.445 207.419 905.028 206.204 903.413 205.309C901.797 204.413 900.016 203.855 898.178 203.669C896.34 203.482 894.484 203.671 892.721 204.224C890.958 204.776 889.326 205.681 887.923 206.883C886.521 208.086 885.377 209.56 884.562 211.218C883.746 212.876 883.276 214.682 883.179 216.526C883.083 218.371 883.362 220.216 884 221.95L883.96 221.92Z" fill="black"/>
<path opacity="0.25" d="M834.76 262.04C835.76 269.51 852.2 289.35 852.2 289.35C852.2 289.35 862.81 265.88 861.81 258.41C861.681 256.548 861.172 254.731 860.314 253.074C859.455 251.416 858.266 249.952 856.819 248.772C855.372 247.592 853.699 246.722 851.902 246.214C850.105 245.707 848.224 245.574 846.374 245.822C844.523 246.071 842.744 246.697 841.145 247.661C839.546 248.624 838.162 249.906 837.078 251.426C835.995 252.946 835.234 254.672 834.844 256.498C834.454 258.323 834.442 260.21 834.81 262.04H834.76Z" fill="black"/>
<path d="M835.23 314.18C835.23 314.18 841.41 250.38 878.23 216.45C893.785 202.32 904.331 183.52 908.28 162.88C910.087 153.067 910.988 143.108 910.97 133.13" stroke="#535461" stroke-width="2" stroke-miterlimit="10"/>
<path d="M934.13 111.61C931.31 118.61 910.49 133.77 910.49 133.77C910.49 133.77 906 108.39 908.82 101.39C909.49 99.7281 910.48 98.2144 911.735 96.9354C912.99 95.6563 914.484 94.6369 916.133 93.9353C917.782 93.2338 919.552 92.8638 921.344 92.8466C923.136 92.8294 924.913 93.1653 926.575 93.835C928.237 94.5047 929.751 95.4953 931.03 96.75C932.309 98.0047 933.328 99.4991 934.03 101.148C934.731 102.797 935.101 104.567 935.118 106.359C935.136 108.151 934.8 109.928 934.13 111.59V111.61Z" fill="#FF00AC"/>
<path d="M939.44 158.75C933.28 163.09 907.56 164.5 907.56 164.5C907.56 164.5 917.56 140.77 923.74 136.44C925.205 135.409 926.859 134.677 928.606 134.285C930.354 133.893 932.162 133.85 933.927 134.156C935.692 134.463 937.379 135.115 938.892 136.074C940.405 137.033 941.714 138.28 942.745 139.745C943.776 141.21 944.508 142.863 944.9 144.611C945.292 146.359 945.336 148.167 945.029 149.932C944.722 151.697 944.07 153.384 943.111 154.897C942.152 156.41 940.905 157.719 939.44 158.75Z" fill="#FF00AC"/>
<path d="M911.86 224.54C904.35 225.17 881.44 213.41 881.44 213.41C881.44 213.41 902.07 197.98 909.58 197.35C911.365 197.2 913.163 197.404 914.869 197.949C916.576 198.493 918.159 199.369 919.527 200.526C920.895 201.682 922.022 203.097 922.844 204.689C923.665 206.281 924.165 208.02 924.315 209.805C924.465 211.59 924.261 213.388 923.716 215.094C923.171 216.801 922.296 218.384 921.139 219.752C919.983 221.12 918.568 222.247 916.976 223.069C915.384 223.89 913.645 224.39 911.86 224.54Z" fill="#FF00AC"/>
<path d="M879.79 269.61C872.5 271.51 847.92 263.78 847.92 263.78C847.92 263.78 865.65 245.09 872.92 243.2C874.654 242.75 876.46 242.646 878.234 242.894C880.008 243.143 881.716 243.738 883.26 244.646C884.805 245.554 886.155 246.757 887.234 248.187C888.313 249.617 889.1 251.246 889.55 252.98C890 254.714 890.104 256.52 889.855 258.294C889.607 260.068 889.012 261.776 888.104 263.32C887.196 264.865 885.993 266.215 884.563 267.294C883.133 268.373 881.504 269.16 879.77 269.61H879.79Z" fill="#FF00AC"/>
<path d="M880.44 155.15C883.49 162.04 904.81 176.49 904.81 176.49C904.81 176.49 908.44 150.99 905.39 144.1C903.931 140.785 901.215 138.185 897.84 136.872C894.464 135.559 890.705 135.641 887.39 137.1C884.075 138.559 881.475 141.275 880.162 144.65C878.849 148.026 878.931 151.785 880.39 155.1L880.44 155.15Z" fill="#FF00AC"/>
<path d="M843.6 208.39C848.6 214.05 873.24 221.47 873.24 221.47C873.24 221.47 869.07 196.05 864.1 190.38C861.713 187.662 858.344 186.003 854.734 185.768C851.124 185.534 847.568 186.743 844.85 189.13C842.131 191.517 840.473 194.886 840.238 198.496C840.004 202.106 841.213 205.662 843.6 208.38V208.39Z" fill="#FF00AC"/>
<path d="M814.88 264.95C818.88 271.37 841.88 282.85 841.88 282.85C841.88 282.85 842.13 257.09 838.13 250.67C836.198 247.669 833.167 245.544 829.686 244.751C826.206 243.958 822.554 244.56 819.512 246.427C816.47 248.295 814.281 251.279 813.413 254.742C812.545 258.204 813.068 261.869 814.87 264.95H814.88Z" fill="#FF00AC"/>
<path d="M153.49 572.27C153.49 572.27 114.49 523.94 116.94 475.44C118.105 455.108 112.645 434.946 101.38 417.98C95.9672 409.969 89.8315 402.471 83.05 395.58" stroke="#535461" stroke-width="2" stroke-miterlimit="10"/>
<path d="M84.42 365.01C87.22 371.76 83.13 396.39 83.13 396.39C83.13 396.39 62.81 381.89 60.01 375.14C58.668 371.9 58.6679 368.26 60.0097 365.021C61.3515 361.781 63.9254 359.207 67.165 357.865C70.4046 356.523 74.0446 356.523 77.2843 357.865C80.524 359.207 83.098 361.78 84.44 365.02L84.42 365.01Z" fill="#FF00AC"/>
<path d="M120.13 394.02C118.81 401.2 101.98 419.63 101.98 419.63C101.98 419.63 92.77 396.39 94.13 389.23C94.4238 387.504 95.0577 385.853 95.9948 384.373C96.932 382.894 98.1537 381.616 99.5891 380.612C101.024 379.609 102.645 378.901 104.356 378.529C106.067 378.158 107.836 378.13 109.558 378.447C111.28 378.764 112.922 379.42 114.389 380.378C115.855 381.335 117.117 382.574 118.1 384.023C119.084 385.472 119.77 387.102 120.118 388.818C120.467 390.534 120.471 392.302 120.13 394.02Z" fill="#FF00AC"/>
<path d="M145.67 458.24C140.9 463.78 117.06 471.19 117.06 471.19C117.06 471.19 120.86 446.52 125.63 440.98C127.963 438.49 131.169 436.998 134.577 436.817C137.985 436.637 141.331 437.781 143.914 440.01C146.498 442.24 148.119 445.382 148.439 448.78C148.759 452.178 147.752 455.568 145.63 458.24H145.67Z" fill="#FF00AC"/>
<path d="M154.07 511.19C150.31 517.45 128.07 528.79 128.07 528.79C128.07 528.79 127.64 503.79 131.41 497.57C133.237 494.609 136.158 492.487 139.539 491.665C142.92 490.843 146.489 491.388 149.472 493.18C152.454 494.973 154.609 497.869 155.47 501.241C156.331 504.612 155.828 508.187 154.07 511.19Z" fill="#FF00AC"/>
<path d="M76.83 431.57C83.62 434.26 108.18 429.79 108.18 429.79C108.18 429.79 93.38 409.69 86.6 406.99C83.3634 405.803 79.7912 405.926 76.6441 407.333C73.4969 408.74 71.0233 411.32 69.7499 414.524C68.4765 417.728 68.5039 421.302 69.8263 424.486C71.1487 427.669 73.6616 430.211 76.83 431.57Z" fill="#FF00AC"/>
<path d="M87.45 493.39C94.73 493.93 116.83 482.32 116.83 482.32C116.83 482.32 96.69 467.56 89.41 467.02C87.6785 466.889 85.9381 467.1 84.2882 467.641C82.6383 468.182 81.1111 469.043 79.7939 470.175C78.4767 471.306 77.3953 472.686 76.6113 474.235C75.8274 475.785 75.3563 477.474 75.225 479.205C75.0937 480.936 75.3047 482.677 75.846 484.327C76.3872 485.977 77.2482 487.504 78.3797 488.821C79.5112 490.138 80.891 491.22 82.4404 492.004C83.9899 492.788 85.6785 493.259 87.41 493.39H87.45Z" fill="#FF00AC"/>
<path d="M106.01 552.02C113.09 553.79 136.84 546.02 136.84 546.02C136.84 546.02 119.48 528.13 112.4 526.39C108.997 525.543 105.397 526.082 102.392 527.889C99.3867 529.695 97.2223 532.622 96.375 536.025C95.5276 539.428 96.0667 543.028 97.8736 546.033C99.6805 549.038 102.607 551.203 106.01 552.05V552.02Z" fill="#FF00AC"/>
<path d="M986.63 653.39C986.63 653.39 994.26 663.39 983.11 678.39C971.96 693.39 962.76 706.17 966.48 715.57C966.48 715.57 983.31 687.57 997 687.2C1010.69 686.83 1001.7 670.21 986.63 653.39Z" fill="#FF00AC"/>
<path opacity="0.1" d="M986.63 653.39C987.295 654.354 987.82 655.408 988.19 656.52C1001.55 672.22 1008.67 686.87 995.83 687.24C983.83 687.58 969.51 708.97 966.07 714.38C966.184 714.797 966.321 715.208 966.48 715.61C966.48 715.61 983.31 687.61 997 687.24C1010.69 686.87 1001.7 670.21 986.63 653.39Z" fill="black"/>
<path d="M1000.82 666.1C1000.82 669.62 1000.42 672.46 999.94 672.46C999.46 672.46 999.06 669.62 999.06 666.1C999.06 662.58 999.55 664.25 1000.06 664.25C1000.57 664.25 1000.82 662.59 1000.82 666.1Z" fill="#FFD037"/>
<path d="M1005.68 670.3C1002.6 671.98 999.91 672.99 999.68 672.57C999.45 672.15 1001.76 670.43 1004.84 668.75C1007.92 667.07 1006.71 668.29 1006.94 668.75C1007.17 669.21 1008.77 668.62 1005.68 670.3Z" fill="#FFD037"/>
<path d="M946.33 653.39C946.33 653.39 938.7 663.39 949.85 678.39C961 693.39 970.2 706.17 966.48 715.57C966.48 715.57 949.65 687.57 935.96 687.2C922.27 686.83 931.26 670.21 946.33 653.39Z" fill="#FF00AC"/>
<path opacity="0.1" d="M946.33 653.39C945.66 654.352 945.134 655.406 944.77 656.52C931.4 672.22 924.29 686.87 937.13 687.24C949.13 687.58 963.45 708.97 966.89 714.38C966.77 714.79 966.64 715.2 966.48 715.61C966.48 715.61 949.65 687.61 935.96 687.24C922.27 686.87 931.26 670.21 946.33 653.39Z" fill="black"/>
<path d="M932.13 666.1C932.13 669.62 932.53 672.46 933.01 672.46C933.49 672.46 933.89 669.62 933.89 666.1C933.89 662.58 933.4 664.25 932.89 664.25C932.38 664.25 932.13 662.59 932.13 666.1Z" fill="#FFD037"/>
<path d="M927.27 670.3C930.36 671.98 933.05 672.99 933.27 672.57C933.49 672.15 931.19 670.43 928.11 668.75C925.03 667.07 926.24 668.29 926.01 668.75C925.78 669.21 924.19 668.62 927.27 670.3Z" fill="#FFD037"/>
<path opacity="0.1" d="M966.48 791.93C1010.54 791.93 1046.26 786.45 1046.26 779.69C1046.26 772.93 1010.54 767.45 966.48 767.45C922.419 767.45 886.7 772.93 886.7 779.69C886.7 786.45 922.419 791.93 966.48 791.93Z" fill="#FF00AC"/>
<path d="M1007.54 702.16L1007.16 705.27L1006.62 709.67L1006.4 711.51L1005.87 715.91L1005.63 717.75L1005.1 722.15L998.99 772.15C998.45 776.62 991.15 780.15 982.34 780.15H950.62C941.81 780.15 934.52 776.67 933.97 772.15L927.86 722.15L927.32 717.75L927.1 715.91L926.56 711.51L926.33 709.67L925.8 705.27L925.41 702.16C925.11 699.63 929.06 697.5 934.04 697.5H998.92C1003.9 697.5 1007.85 699.63 1007.54 702.16Z" fill="#65617D"/>
<path d="M1007.16 705.27L1006.62 709.67H926.33L925.8 705.27H1007.16Z" fill="#9D9CB5"/>
<path d="M1006.4 711.51L1005.86 715.91H927.1L926.55 711.51H1006.4Z" fill="#9D9CB5"/>
<path d="M1005.63 717.75L1005.1 722.14H927.86L927.32 717.75H1005.63Z" fill="#9D9CB5"/>
<path d="M803.68 185.96H802.84C804.16 184.46 804.84 182.96 804.73 181.63L797.13 174.03L800.03 167.53H790.26L792.07 162.46H786.28L722.22 183.8C722.22 183.8 722.15 184.69 722.22 185.96H680.97V371.81H860.13V185.96H803.68Z" fill="url(#paint0_linear)"/>
<path d="M858.76 186.61H682.3V369.85H858.76V186.61Z" fill="#F6F7F9"/>
<path opacity="0.1" d="M803.19 186.61C794.83 198.92 738.99 215.13 738.99 215.13L739.34 202.3H729.01C729.293 201.065 729.167 199.77 728.651 198.613C728.136 197.455 727.258 196.496 726.15 195.88C723.15 194.23 722.86 188.88 722.9 186.61H803.19Z" fill="black"/>
<path d="M786.04 163.44L722.95 184.44C722.95 184.44 722.23 192.64 726.15 194.77C727.256 195.388 728.132 196.348 728.647 197.505C729.163 198.662 729.29 199.955 729.01 201.19H739.34L738.99 214.02C738.99 214.02 805.29 194.77 804.22 182.3L796.74 174.81L799.59 168.39H789.96L791.75 163.39L786.04 163.44Z" fill="#9D9CB5"/>
<g opacity="0.35">
<path opacity="0.2" d="M826.14 246.01H714.92V249.13H826.14V246.01Z" fill="#FF00AC"/>
</g>
<g opacity="0.35">
<path opacity="0.2" d="M826.14 262.46H714.92V265.58H826.14V262.46Z" fill="#FF00AC"/>
</g>
<g opacity="0.35">
<path opacity="0.2" d="M826.14 278.9H714.92V282.02H826.14V278.9Z" fill="#FF00AC"/>
</g>
<g opacity="0.35">
<path opacity="0.2" d="M826.14 295.34H714.92V298.46H826.14V295.34Z" fill="#FF00AC"/>
</g>
<g opacity="0.35">
<path opacity="0.2" d="M826.14 311.78H714.92V314.9H826.14V311.78Z" fill="#FF00AC"/>
</g>
<g opacity="0.35">
<path opacity="0.2" d="M826.14 328.23H714.92V331.35H826.14V328.23Z" fill="#FF00AC"/>
</g>
<path d="M205.8 170.9H205.38C208.54 162.8 211.46 154.9 211.33 153.39C211.05 150.39 205.04 156.91 204.76 155.28C204.48 153.65 204.76 147.47 202.03 147.47C199.3 147.47 197.65 150.68 196.03 150.68C194.41 150.68 187.82 149.6 187.82 149.6L179.43 170.9H116.23V369.39H273.07V170.9H205.8Z" fill="url(#paint1_linear)"/>
<path d="M271.28 172H117.99V368.06H271.28V172Z" fill="#F6F7F9"/>
<path opacity="0.1" d="M205.55 172C202.32 180.39 198.68 189.23 197.85 191.34C196.24 195.34 195.18 193.21 193.3 192.68C191.42 192.15 189.03 193.21 187.96 192.68C186.89 192.15 180.61 192.68 180.61 192.68C180.68 191.698 180.68 190.712 180.61 189.73C180.47 188.67 173.25 189.73 173.25 189.73L180.13 172H205.55Z" fill="black"/>
<path d="M187.96 150.97L173.25 188.67C173.25 188.67 180.47 187.6 180.6 188.67C180.676 189.649 180.676 190.631 180.6 191.61C180.6 191.61 186.89 191.07 187.96 191.61C189.03 192.15 191.43 191.07 193.3 191.61C195.17 192.15 196.24 194.28 197.85 190.27C199.46 186.26 211.22 157.65 210.95 154.71C210.68 151.77 204.8 158.19 204.53 156.58C204.26 154.97 204.53 148.87 201.86 148.87C199.19 148.87 197.58 152.04 195.98 152.04C194.38 152.04 187.96 150.97 187.96 150.97Z" fill="#9D9CB5"/>
<g opacity="0.35">
<path opacity="0.2" d="M250.25 224.04H139.03V227.16H250.25V224.04Z" fill="#FF00AC"/>
</g>
<g opacity="0.35">
<path opacity="0.2" d="M250.25 235.81H139.03V238.93H250.25V235.81Z" fill="#FF00AC"/>
</g>
<g opacity="0.35">
<path opacity="0.2" d="M250.25 247.57H139.03V250.69H250.25V247.57Z" fill="#FF00AC"/>
</g>
<g opacity="0.35">
<path opacity="0.2" d="M250.25 259.34H139.03V262.46H250.25V259.34Z" fill="#FF00AC"/>
</g>
<g opacity="0.35">
<path opacity="0.2" d="M250.25 271.1H139.03V274.22H250.25V271.1Z" fill="#FF00AC"/>
</g>
<g opacity="0.35">
<path opacity="0.2" d="M250.25 282.86H139.03V285.98H250.25V282.86Z" fill="#FF00AC"/>
</g>
<path d="M784.25 464.39H783.83C787.71 454.39 791.29 444.62 791.12 442.79C790.79 439.12 783.41 447.13 783.12 445.13C782.83 443.13 783.12 435.49 779.77 435.49C776.42 435.49 774.41 439.49 772.4 439.49C770.39 439.49 762.34 438.15 762.34 438.15L752 464.39H674.55V709.28H866.78V464.39H784.25Z" fill="url(#paint2_linear)"/>
<path d="M864.97 466.09H676.09V707.69H864.97V466.09Z" fill="#F6F7F9"/>
<path opacity="0.1" d="M783.88 466.09C779.94 476.35 775.52 487.09 774.49 489.67C772.49 494.61 771.2 491.97 768.89 491.32C766.58 490.67 763.62 491.97 762.3 491.32C760.98 490.67 753.24 491.32 753.24 491.32C753.326 490.112 753.326 488.898 753.24 487.69C753.07 486.38 744.18 487.69 744.18 487.69L752.61 466.09H783.88Z" fill="black"/>
<path d="M762.3 440.17L744.18 486.62C744.18 486.62 753.07 485.3 753.24 486.62C753.326 487.825 753.326 489.035 753.24 490.24C753.24 490.24 760.98 489.59 762.3 490.24C763.62 490.89 766.58 489.59 768.89 490.24C771.2 490.89 772.51 493.54 774.49 488.6C776.47 483.66 790.96 448.4 790.63 444.78C790.3 441.16 783.05 449.06 782.72 447.09C782.39 445.12 782.72 437.58 779.43 437.58C776.14 437.58 774.16 441.49 772.18 441.49C770.2 441.49 762.3 440.17 762.3 440.17Z" fill="#9D9CB5"/>
<g opacity="0.35">
<path opacity="0.2" d="M826.14 533.6H714.92V541.53H826.14V533.6Z" fill="#FF00AC"/>
</g>
<g opacity="0.35">
<path opacity="0.2" d="M826.14 585.11H714.92V593.04H826.14V585.11Z" fill="#FF00AC"/>
</g>
<g opacity="0.35">
<path opacity="0.2" d="M826.14 636.63H714.92V644.56H826.14V636.63Z" fill="#FF00AC"/>
</g>
<path d="M237.97 472.76V443.19H196.46V472.76H109.79V705.74H313.36V472.76H237.97Z" fill="url(#paint3_linear)"/>
<path d="M311.21 473.94H111.94V704.22H311.21V473.94Z" fill="#F6F7F9"/>
<path opacity="0.1" d="M237.42 473.94H196.78V505.31H237.42V473.94Z" fill="black"/>
<path d="M237.42 444.71H196.78V504.24H237.42V444.71Z" fill="#9D9CB5"/>
<g opacity="0.35">
<path opacity="0.2" d="M267.18 529.64H155.96V537.57H267.18V529.64Z" fill="#FF00AC"/>
</g>
<g opacity="0.35">
<path opacity="0.2" d="M267.18 545.41H155.96V553.34H267.18V545.41Z" fill="#FF00AC"/>
</g>
<g opacity="0.35">
<path opacity="0.2" d="M267.18 561.19H155.96V569.12H267.18V561.19Z" fill="#FF00AC"/>
</g>
<g opacity="0.35">
<path opacity="0.2" d="M267.18 576.96H155.96V584.89H267.18V576.96Z" fill="#FF00AC"/>
</g>
<g opacity="0.35">
<path opacity="0.2" d="M267.19 594.52H237.42V618.58H267.19V594.52Z" fill="#FF00AC"/>
</g>
<g opacity="0.35">
<path opacity="0.2" d="M185.73 624.28H155.96V648.34H185.73V624.28Z" fill="#FF00AC"/>
</g>
<path d="M523.86 472.39H523.58C526.82 459.72 529.26 449.63 529.26 449.63L515.44 456.13C515.44 456.13 505.63 443.13 502 445.3C498.37 447.47 490.4 452.88 490.4 452.88L479.82 447.46L475.77 472.39H392.22V652.28L397.59 655.49C402.02 653.9 409.31 651.2 409.31 651.2L405.96 660.5L408.22 661.84L412.03 658.39L413.44 664.98L417.97 667.69L425.12 663.14L423.12 670.8L429.83 674.8L449.34 667.47L443.46 682.95L447.33 685.27L456.16 683.72C456.16 683.72 455.76 686.81 455.51 690.16L464.37 695.46C468 694.05 471.42 692.66 471.42 692.66C471.42 692.66 471.07 696.04 470.91 699.36L476.85 702.92C481.54 700.18 487.51 696.45 487.51 696.45L482.51 705.75H595.41V472.39H523.86Z" fill="url(#paint4_linear)"/>
<path d="M593.19 473.94V704.22H482.46L487.4 695.05C487.4 695.05 481.55 698.72 476.95 701.43L471.13 697.91C471.29 694.64 471.64 691.3 471.64 691.3C471.64 691.3 468.28 692.67 464.72 694.06L456.03 688.83C456.28 685.53 456.66 682.48 456.66 682.48L448.01 684.01L444.22 681.72L449.98 666.44L430.85 673.68L424.26 669.68L426.18 662.12L419.18 666.61L414.74 663.94L413.36 657.44L409.62 660.86L407.4 659.53L410.69 650.36C410.69 650.36 403.54 653.02 399.19 654.59L393.93 651.43V473.94H593.19Z" fill="#F6F7F9"/>
<g opacity="0.35">
<path opacity="0.2" d="M549.16 545.41H437.94V553.34H549.16V545.41Z" fill="#FF00AC"/>
</g>
<g opacity="0.35">
<path opacity="0.2" d="M549.16 569.12H437.94V577.05H549.16V569.12Z" fill="#FF00AC"/>
</g>
<g opacity="0.35">
<path opacity="0.2" d="M549.16 592.82H437.94V600.75H549.16V592.82Z" fill="#FF00AC"/>
</g>
<g opacity="0.35">
<path opacity="0.2" d="M460.22 616.53H437.94V624.46H460.22V616.53Z" fill="#FF00AC"/>
</g>
<path opacity="0.1" d="M523.01 473.94C517.59 495.32 509.69 524.94 507.63 524.42C504.43 523.55 499.43 517.42 499.43 517.42C499.43 517.42 487.67 528.47 481.97 522.77C476.27 517.07 468.42 520.98 468.42 520.98L476.02 473.93L523.01 473.94Z" fill="black"/>
<path d="M479.83 449.39L468.42 519.97C468.42 519.97 476.26 516.05 481.96 521.76C487.66 527.47 499.43 516.39 499.43 516.39C499.43 516.39 504.43 522.51 507.63 523.39C510.83 524.27 528.31 451.53 528.31 451.53L514.76 457.95C514.76 457.95 505.14 445.11 501.57 447.25C498 449.39 490.2 454.74 490.2 454.74L479.83 449.39Z" fill="#9D9CB5"/>
<path d="M573.03 141.45V134.68H466.91C462.04 134.68 465.02 141.45 465.02 141.45H407.36V292.39H660.46V141.39L573.03 141.45Z" fill="url(#paint5_linear)"/>
<path d="M658.94 142.17H408.96V291.36H658.94V142.17Z" fill="#F6F7F9"/>
<path opacity="0.1" d="M572.59 166.5H473.4C473.4 166.5 472.33 155 475.81 152.87C479.29 150.74 465.91 143.24 465.91 143.24C465.762 142.89 465.632 142.533 465.52 142.17H572.59V145.65C572.59 145.65 586.23 157.68 572.59 166.5Z" fill="black"/>
<path d="M467.78 135.49H572.59V144.58C572.59 144.58 586.23 156.58 572.59 165.43H473.4C473.4 165.43 472.33 153.93 475.81 151.8C479.29 149.67 465.91 142.17 465.91 142.17C465.91 142.17 462.97 135.49 467.78 135.49Z" fill="#9D9CB5"/>
<g opacity="0.35">
<path opacity="0.2" d="M628.25 188.96H439.67V192.08H628.25V188.96Z" fill="#FF00AC"/>
</g>
<g opacity="0.35">
<path opacity="0.2" d="M552.32 200.72H439.67V203.84H552.32V200.72Z" fill="#FF00AC"/>
</g>
<g opacity="0.35">
<path opacity="0.2" d="M628.25 212.49H439.67V215.61H628.25V212.49Z" fill="#FF00AC"/>
</g>
<g opacity="0.35">
<path opacity="0.2" d="M628.25 224.25H439.67V227.37H628.25V224.25Z" fill="#FF00AC"/>
</g>
<g opacity="0.35">
<path opacity="0.2" d="M628.25 236.01H439.67V239.13H628.25V236.01Z" fill="#FF00AC"/>
</g>
<path d="M705.82 830.66C704.03 823.04 702.93 816.36 702.93 816.36C702.93 816.36 703.34 808.07 699.62 801.85V799.78V784.47C700.675 781.697 701.966 779.021 703.48 776.47C706.24 771.65 703.48 754.01 703.48 754.01C703.48 754.01 693.26 729.14 695.75 713.37C698.24 697.6 674.75 643.32 674.75 643.32C674.894 638.083 675.636 632.879 676.96 627.81C677.204 626.745 677.305 625.652 677.26 624.56C677.26 624.43 677.26 624.3 677.26 624.16V624.29C676.91 613.89 668.69 594.39 668.69 594.39L669.79 557.22C669.79 557.22 675.04 535.3 666.48 505.89C663.48 495.62 661.57 487.41 660.36 481.07C660.22 480.35 660.09 479.66 659.97 479C677.6 476.31 691.06 474.07 691.06 474.07C691.06 474.07 680.83 431.27 673.93 423.79C667.03 416.31 661.5 392.79 661.5 392.79C661.5 392.79 657.9 362.58 663.71 353.79C669.52 345 670.33 329.72 670.33 329.72C670.33 329.72 683.59 320.1 685.25 315.82C686.91 311.54 689.67 301.92 689.67 296.82C689.67 291.72 688.01 287.19 688.57 284.52C689.13 281.85 684.7 271.69 686.91 266.87C687.484 265.39 687.782 263.817 687.79 262.23C687.796 262.184 687.796 262.137 687.79 262.09C687.79 262.09 687.79 262.09 687.79 262.04C687.805 257.829 687.413 253.626 686.62 249.49C686.62 249.49 680.62 244.2 673.51 242.49L673.22 241.34L672.47 238.34C672.048 238.057 671.61 237.796 671.16 237.56V236.47L671.04 232.13L673.12 222.36C677.19 205.36 654.54 202.85 654.54 202.85C653.182 200.231 650.897 198.213 648.13 197.19C643.57 195.58 647.37 222.73 649.5 224.46C651.11 225.77 656.06 234.28 658.44 238.46L658.83 239.15C658.468 239.486 658.134 239.851 657.83 240.24L658.69 246.13L658.82 247.03C657.321 248.899 656.105 250.978 655.21 253.2C655.21 253.2 659.36 257.74 658.53 262.82C657.7 267.9 659.8 274.23 659.9 274.58C659.65 274.3 656.74 271.14 653.83 271.91C650.92 272.68 642.83 275.12 642.83 275.12C642.83 275.12 636.75 276.19 637.31 277.53C637.87 278.87 633.16 284.75 633.16 284.75L616.83 269.27C616.67 268.81 616.51 268.35 616.36 267.87C615.679 265.658 615.204 263.389 614.94 261.09C616.718 260.666 618.463 260.111 620.16 259.43C621.877 258.845 623.428 257.853 624.68 256.54C626.32 254.54 626.68 251.93 627.31 249.54C628.6 244.78 631.38 240.54 633.37 236.03C636.731 228.411 637.862 219.995 636.63 211.76C636.372 209.227 635.512 206.792 634.12 204.66C631.46 200.99 626.62 199.5 623.12 196.57C619.62 193.64 617.34 189.18 613.24 186.98C609.54 184.98 605.02 185.23 600.85 185.91C592.678 187.255 584.827 190.111 577.7 194.33C575.32 195.74 572.7 197.33 569.96 196.87C567.62 196.45 565.9 194.57 564.39 192.78C564.409 192.702 564.432 192.625 564.46 192.55L564.28 192.34C562.551 196.179 561.684 200.35 561.74 204.56C561.74 205.21 561.74 205.86 561.82 206.56C561.82 206.79 561.82 207.02 561.82 207.25C561.835 207.436 561.835 207.624 561.82 207.81C561.82 208.101 561.78 208.39 561.7 208.67C561.353 209.507 560.831 210.26 560.17 210.88C559.671 211.441 559.226 212.047 558.84 212.69C558.91 212.47 558.98 212.25 559.06 212.03C558.018 213.547 557.432 215.331 557.37 217.17C557.281 218.514 557.722 219.839 558.6 220.86C559.414 221.659 560.305 222.376 561.26 223C560.134 229.273 560.959 235.741 563.623 241.531C566.287 247.321 570.663 252.154 576.16 255.38C576.35 255.84 576.53 256.31 576.72 256.78C578.8 262.28 580.37 268.68 579.72 274.59C579.66 275.03 579.6 275.46 579.52 275.89C579.31 276.11 579.11 276.34 578.93 276.57C578.93 276.57 551.93 276.83 545.62 271.08C539.31 265.33 529.62 285.08 529.62 285.08C529.62 285.08 519.95 286.96 518.02 285.08C516.09 283.2 504.76 284.82 504.76 284.82C504.76 284.82 497.85 278.13 487.91 278.67C484.134 275.801 479.969 273.484 475.54 271.79L475.23 271.68C473.285 270.977 471.209 270.714 469.15 270.91C469.15 270.91 455.89 259.91 452.03 254.07C448.17 248.23 429.74 226.37 429.66 226.27L429.59 225.27L429.38 222.09C428.834 222.176 428.283 222.223 427.73 222.23L427.36 221.13C426.302 218.028 424.991 215.018 423.44 212.13C423.44 212.13 423.44 208.13 424.61 207.13C425.78 206.13 424.13 191.42 424.13 191.42C424.13 191.42 412.18 163.48 401.48 184.34C401.48 184.34 381.25 197.83 398.23 213.54C398.23 213.54 405 216.83 405.96 219.43C406.59 221.12 408.89 225.83 410.44 228.97C410.7 229.49 410.93 229.97 411.13 230.37L410.94 230.53L411.19 233.15L411.29 234.15C408.09 235.97 405.92 237.76 406.45 239.15C407.395 241.466 408.044 243.892 408.38 246.37C408.38 246.37 431.86 275.78 434.9 288.37C434.9 288.37 497.9 325.8 518.6 328.48L515.01 347.19C515.01 347.19 513.9 358.42 514.18 362.43C514.46 366.44 511.69 384.63 511.69 384.63C511.69 384.63 508.1 411.36 505.06 415.1C502.02 418.84 502.58 434.89 502.58 434.89C501.848 442.571 500.46 450.176 498.43 457.62C495.43 467.78 497.61 480.34 497.61 480.34C497.61 480.34 487.11 504.41 512.25 488.1C512.25 488.1 524.59 487.33 538.8 486.85C538.8 487.31 538.8 487.78 538.8 488.26C538.8 490.09 538.74 492.07 538.72 494.16C538.53 507.94 538.45 526.93 539.07 541.3C540.17 566.7 547.91 616.97 547.91 616.97V642.22C547.411 644.594 547.166 647.014 547.18 649.44C547.01 658.342 549.371 667.108 553.99 674.72L555.7 691.39C555.7 691.39 560.24 702.49 560.33 709.12C560.308 709.661 560.241 710.2 560.13 710.73C559.961 711.579 559.887 712.444 559.91 713.31C559.65 720.96 564.26 739.25 564.26 739.25C564.26 739.25 564.54 757.7 567.26 758.77C569.62 759.68 564.11 769.4 562.46 772.19C562.46 772.01 562.39 771.84 562.36 771.66C562.15 772.02 562.02 772.22 562.02 772.22C561.452 773.708 561.161 775.287 561.16 776.88C561.003 778.14 561.208 779.419 561.75 780.568C562.291 781.717 563.148 782.689 564.22 783.37C569.47 786.58 572.29 789.25 567.84 790.37C566.201 790.62 564.575 790.954 562.97 791.37C562.89 791.16 562.81 790.95 562.74 790.75C562.119 791.007 561.601 791.464 561.271 792.05C560.941 792.636 560.818 793.316 560.92 793.98C560.8 795.33 561.25 797.3 562.57 800.24C566.99 810.13 570.05 813.88 570.05 813.88L572.17 813.64C571.847 814.444 571.434 815.209 570.94 815.92C570.133 817.08 569.059 818.03 567.81 818.69C566.66 819.384 565.374 819.824 564.04 819.98C562.541 820.03 561.068 820.395 559.719 821.052C558.37 821.708 557.175 822.641 556.21 823.79C553.46 827.35 551.73 832.21 557.21 836.47L576.97 843.29C576.97 843.29 610.97 847.7 609.14 840.08C607.31 832.46 606.25 825.78 606.25 825.78C606.25 825.78 606.63 818.34 603.49 812.26C603.139 811.565 602.738 810.897 602.29 810.26L603.49 810.12C603.49 810.12 605.97 793.28 609.29 790.12C610.05 789.38 610.22 788.81 610.04 788.38C610.39 787.46 609.52 786.92 608.41 786.62L608.17 787.28C607.086 787.043 605.98 786.919 604.87 786.91C604.87 786.91 603.76 778.09 607.35 774.91C607.642 774.546 607.855 774.125 607.976 773.674C608.097 773.223 608.122 772.751 608.05 772.29C608.08 771.083 607.956 769.876 607.68 768.7C607.68 768.76 607.6 768.84 607.55 768.9C605.74 760.9 599.62 748.17 599.62 748.17C599.62 748.17 599.34 740.17 601.55 736.95C603.76 733.73 601.28 693.36 601.28 693.36C601.28 693.36 602.11 673.85 599.62 664.76C597.13 655.67 602.62 644.97 602.62 644.97C602.62 644.97 602.62 644.76 602.56 644.39L602.63 644.25C602.63 644.25 602.51 643.05 602.31 641.18C602.282 641.238 602.259 641.298 602.24 641.36C601.69 636.2 600.63 626.84 599.86 622.51C598.75 616.36 600.13 586.95 600.13 586.95L605.13 574.39L613.97 596.04L623.37 624.92C623.37 624.92 628.02 631.02 628.13 637.2C628.13 637.5 628.13 637.8 628.07 638.1C627.995 638.741 627.958 639.385 627.96 640.03C627.794 643.677 628.796 647.282 630.82 650.32C630.82 650.32 633.31 663.95 637.18 667.43C641.05 670.91 641.04 677.59 641.04 677.59C641.04 677.59 645.74 697.37 647.95 700.85C649.81 703.78 649.95 711.85 649.89 714.3C649.89 714.76 649.89 715.02 649.89 715.02C649.89 715.02 650.54 722.09 650.52 728.02C650.52 728.75 650.52 729.46 650.45 730.13V729.98C650.443 731.6 650.252 733.214 649.88 734.79C649.847 734.878 649.821 734.968 649.8 735.06C649.8 734.73 649.8 734.39 649.88 734.06C648.917 738.098 648.454 742.239 648.5 746.39C648.37 753.5 649.5 761.93 653.76 766.87C661.22 775.43 665.92 774.36 665.92 774.36C665.92 774.36 662.32 785.05 657.92 787.19C657.754 787.275 657.597 787.375 657.45 787.49C657.45 787.28 657.37 787.08 657.34 786.87C656.42 787.67 656.05 789.11 656.05 790.87C655.73 795.57 658.69 803.21 661.52 806.72C662.564 807.744 663.846 808.493 665.25 808.9C665.024 809.055 664.79 809.198 664.55 809.33C664.059 809.599 663.551 809.836 663.03 810.04C662.316 810.356 661.557 810.555 660.78 810.63C659.28 810.664 657.804 811.017 656.45 811.665C655.097 812.314 653.897 813.242 652.93 814.39C650.18 817.94 648.45 822.8 653.93 827.06L673.69 833.88C673.69 833.88 707.63 838.28 705.82 830.66Z" fill="url(#paint6_linear)"/>
<path d="M576.06 843.29L556.94 836.47C551.66 832.21 553.34 827.35 556.01 823.79C556.925 822.65 558.075 821.72 559.381 821.062C560.687 820.405 562.119 820.036 563.58 819.98C564.876 819.822 566.122 819.381 567.23 818.69C568.436 818.019 569.465 817.069 570.23 815.92C571.629 813.707 572.384 811.148 572.41 808.53C572.41 808.53 593.41 802.38 599.15 808.53C600.175 809.642 601.031 810.899 601.69 812.26C604.69 818.34 604.37 825.78 604.37 825.78C604.37 825.78 605.44 832.45 607.17 840.08C608.9 847.71 576.06 843.29 576.06 843.29Z" fill="#2D293D"/>
<path d="M669.63 833.87L650.51 827.05C645.24 822.79 646.92 817.93 649.58 814.38C650.493 813.237 651.642 812.306 652.949 811.648C654.255 810.991 655.688 810.623 657.15 810.57C657.908 810.496 658.648 810.297 659.34 809.98C659.845 809.775 660.336 809.538 660.81 809.27C666.16 806.33 666.02 799.11 666.02 799.11C666.02 799.11 687.02 792.96 692.76 799.11C693.528 799.941 694.199 800.857 694.76 801.84C698.36 808.06 697.96 816.36 697.96 816.36C697.96 816.36 699.03 823.04 700.77 830.66C702.51 838.28 669.63 833.87 669.63 833.87Z" fill="#2D293D"/>
<path opacity="0.1" d="M599.18 808.53C600.205 809.642 601.061 810.899 601.72 812.26L570.26 815.91C571.659 813.697 572.414 811.138 572.44 808.52C572.44 808.52 593.44 802.39 599.18 808.53Z" fill="black"/>
<path opacity="0.1" d="M694.77 801.84V807.73C689.88 815.79 666.21 814.03 659.34 809.98C659.845 809.775 660.336 809.538 660.81 809.27C666.16 806.33 666.02 799.11 666.02 799.11C666.02 799.11 687.02 792.96 692.76 799.11C693.532 799.94 694.206 800.856 694.77 801.84Z" fill="black"/>
<path d="M698.51 776.45C697.043 779.008 695.792 781.684 694.77 784.45V805.59C689.42 814.41 661.61 811.47 657.87 806.66C654.13 801.85 650.12 789.28 654.39 787.14C658.66 785 662.13 774.31 662.13 774.31C662.13 774.31 657.58 775.38 650.36 766.82C643.14 758.26 645.28 739.28 646.63 734.74C647.98 730.2 646.63 714.95 646.63 714.95C646.63 714.95 646.9 704.26 644.76 700.78C642.62 697.3 638.13 677.52 638.13 677.52C638.13 677.52 638.13 670.84 634.38 667.36C630.63 663.88 628.23 650.25 628.23 650.25C626.042 646.842 625.098 642.783 625.56 638.76C626.36 632.07 621.01 624.85 621.01 624.85L611.92 595.98L603.37 574.32L598.56 586.89C598.56 586.89 597.22 616.3 598.29 622.45C599.36 628.6 600.96 644.91 600.96 644.91C600.96 644.91 595.62 655.6 598.02 664.69C600.42 673.78 599.63 693.3 599.63 693.3C599.63 693.3 602.03 733.67 599.89 736.88C597.75 740.09 598.02 748.11 598.02 748.11C598.02 748.11 609.02 771.63 605.51 774.84C602 778.05 603.1 786.84 603.1 786.84C603.1 786.84 610.59 786.84 607.38 790.05C604.17 793.26 601.76 810.05 601.76 810.05L569.44 813.8C569.44 813.8 566.44 810.05 562.2 800.16C557.96 790.27 563 791.34 567.3 790.27C571.6 789.2 568.88 786.53 563.8 783.27C558.72 780.01 561.66 772.84 561.66 772.84C561.66 772.84 569.41 759.74 566.74 758.67C564.07 757.6 563.8 739.15 563.8 739.15C563.8 739.15 558.45 717.23 559.8 711.35C561.15 705.47 555.47 691.39 555.47 691.39L553.6 674.54C543.97 657.97 547.72 642.73 547.72 642.73V616.83C547.72 616.83 540.23 566.57 539.16 541.17C538.48 524.9 538.67 502.7 538.89 488.85C539.02 481.08 539.16 475.93 539.16 475.93L654.66 463.93C654.66 463.93 654.54 469.26 656.76 481.09C657.93 487.43 659.76 495.64 662.68 505.91C670.97 535.32 665.89 557.24 665.89 557.24L664.82 594.39C664.82 594.39 674.98 619.26 672.82 627.81C671.538 632.885 670.82 638.087 670.68 643.32C670.68 643.32 693.43 697.58 691.02 713.39C688.61 729.2 698.51 754.03 698.51 754.03C698.51 754.03 701.18 771.63 698.51 776.45Z" fill="#575988"/>
<path opacity="0.05" d="M632.47 637.15L667.63 632.47C667.63 632.47 647.71 652.79 632.47 637.15Z" fill="black"/>
<path opacity="0.1" d="M662.55 598.12C662.55 598.12 663.75 610.55 656.13 615.23C656.13 615.23 669.77 613.09 662.55 598.12Z" fill="black"/>
<path opacity="0.1" d="M660.39 558.55C660.39 558.55 631 582.74 620.31 580.74C609.62 578.74 660.39 558.55 660.39 558.55Z" fill="black"/>
<path opacity="0.1" d="M588.89 648.52C588.89 648.52 566.57 653.59 565.89 662.52C565.21 671.45 588.89 648.52 588.89 648.52Z" fill="black"/>
<path opacity="0.05" d="M593.8 760C593.8 760 562.25 765.89 571.21 769.9C580.17 773.91 594.87 777.11 594.87 777.11C594.87 777.11 605.03 777.65 593.8 760Z" fill="black"/>
<g opacity="0.05">
<path opacity="0.05" d="M564.84 776.26C564.045 775.765 563.373 775.097 562.872 774.305C562.372 773.514 562.057 772.62 561.95 771.69L561.63 772.25C561.63 772.25 558.69 779.47 563.77 782.68L565.42 783.76C566.35 783.59 567.36 783.46 568.34 783.21C572.64 782.14 569.92 779.47 564.84 776.26Z" fill="black"/>
<path opacity="0.05" d="M605.48 774.12C606.34 773.32 606.31 771.27 605.78 768.63C604.36 770.7 604.02 773.92 603.99 776.37C604.32 775.522 604.828 774.755 605.48 774.12Z" fill="black"/>
<path opacity="0.05" d="M600.62 641.11C599.451 644.27 598.734 647.58 598.49 650.94C599.092 648.619 599.909 646.359 600.93 644.19C600.93 644.19 600.81 642.98 600.62 641.11Z" fill="black"/>
<path opacity="0.05" d="M672.85 627.07C673.069 626.113 673.166 625.132 673.14 624.15C672.75 626.15 672.47 628 672.27 629.62C672.44 628.79 672.63 627.94 672.85 627.07Z" fill="black"/>
<path opacity="0.05" d="M599.86 736.16C600.3 735.5 600.54 733.3 600.66 730.22C599.66 732.17 599.25 735.32 599.12 737.72C599.304 737.173 599.552 736.649 599.86 736.16Z" fill="black"/>
<path opacity="0.05" d="M606.49 786.58C604.29 792.58 602.8 803 602.8 803L570.47 806.74C570.47 806.74 567.47 803 563.23 793.11C562.86 792.24 562.56 791.46 562.32 790.75C560.38 791.64 559.62 793.65 562.16 799.52C566.44 809.41 569.4 813.16 569.4 813.16L601.73 809.39C601.73 809.39 604.14 792.55 607.35 789.39C608.93 787.79 607.92 786.98 606.49 786.58Z" fill="black"/>
<path opacity="0.05" d="M563.77 738.56C563.77 738.56 564.04 757.01 566.71 758.08C568.06 755.03 568.96 752.08 567.71 751.65C565.04 750.59 564.77 732.14 564.77 732.14C564.77 732.14 559.42 710.21 560.77 704.33C562.12 698.45 556.49 684.28 556.49 684.28L554.62 667.44C544.99 650.86 548.74 635.62 548.74 635.62V609.7C548.74 609.7 541.25 559.43 540.18 534.03C539.5 517.77 539.69 495.57 539.91 481.72C539.91 479.21 540 476.99 540.04 475.12L539.11 475.21C539.11 475.21 538.97 480.36 538.84 488.13C538.62 501.98 538.43 524.13 539.11 540.45C540.18 565.85 547.67 616.11 547.67 616.11V642.05C547.67 642.05 543.92 657.29 553.55 673.86L555.42 690.71C555.42 690.71 561.03 704.88 559.7 710.71C558.37 716.54 563.77 738.56 563.77 738.56Z" fill="black"/>
<path opacity="0.05" d="M658.95 799.52C656.323 795.719 654.574 791.381 653.83 786.82C650.53 789.82 654.32 801.37 657.83 805.94C661.57 810.75 689.38 813.69 694.73 804.87V799.78C687.55 806.95 662.49 804.07 658.95 799.52Z" fill="black"/>
<path opacity="0.05" d="M699.59 769.31C698.118 771.867 696.863 774.543 695.84 777.31V781.06C696.45 779.69 697.32 777.86 698.52 775.71C699.29 774.32 699.61 771.87 699.69 769.08C699.65 769.17 699.62 769.25 699.59 769.31Z" fill="black"/>
<path opacity="0.05" d="M660.59 773.52C661.613 771.466 662.495 769.344 663.23 767.17C663.23 767.17 658.68 768.24 651.46 759.69C646.21 753.46 645.91 741.69 646.66 734.02C645.31 738.57 643.18 757.55 650.39 766.1C655.13 771.7 658.68 773.17 660.59 773.52Z" fill="black"/>
<path opacity="0.05" d="M646.65 714.23C647.121 719.499 647.298 724.791 647.18 730.08C647.317 729.244 647.501 728.416 647.73 727.6C649.08 723.06 647.73 707.82 647.73 707.82C647.73 707.82 648 697.12 645.86 693.65C643.72 690.18 639.13 670.39 639.13 670.39C639.13 670.39 639.13 663.7 635.39 660.23C631.65 656.76 629.24 643.12 629.24 643.12C627.053 639.708 626.109 635.646 626.57 631.62C627.37 624.94 622.02 617.72 622.02 617.72L612.93 588.84L604.38 567.19L599.56 579.75C599.56 579.75 599.49 581.33 599.4 583.81L603.31 573.6L611.86 595.26L620.95 624.13C620.95 624.13 626.3 631.35 625.5 638.04C625.038 642.063 625.982 646.122 628.17 649.53C628.17 649.53 630.58 663.17 634.32 666.64C638.06 670.11 638.13 676.8 638.13 676.8C638.13 676.8 642.68 696.59 644.82 700.06C646.96 703.53 646.65 714.23 646.65 714.23Z" fill="black"/>
</g>
<path d="M669.13 222.39L667.13 232.15L667.25 236.49L667.33 239.7L656.13 240.8L654.88 238.49C652.57 234.31 647.78 225.8 646.22 224.49C644.16 222.75 640.48 195.61 644.9 197.22C647.593 198.262 649.805 200.264 651.11 202.84C651.11 202.84 673.05 205.39 669.13 222.39Z" fill="#FFCDD3"/>
<path opacity="0.1" d="M667.29 239.65L656.13 240.8L654.88 238.49C656.48 236.84 661.05 233.09 667.2 236.49L667.29 239.65Z" fill="black"/>
<path d="M670.13 244.93L655.4 248.39L655.09 246.19L654.26 240.3C654.26 240.3 660.07 232.54 668.5 238.35L669.23 241.35L670.13 244.93Z" fill="#DCE6F2"/>
<path d="M431.81 223.39L416.13 231.83C416.13 231.83 415.53 230.59 414.71 228.83C413.21 225.7 410.99 220.98 410.38 219.29C409.45 216.69 402.89 213.41 402.89 213.41C386.46 197.7 406.04 184.2 406.04 184.2C416.4 163.35 427.96 191.28 427.96 191.28C427.96 191.28 429.56 206 428.43 206.99C427.3 207.98 427.3 211.99 427.3 211.99C428.8 214.884 430.064 217.893 431.08 220.99C431.55 222.49 431.81 223.39 431.81 223.39Z" fill="#FFCDD3"/>
<path opacity="0.1" d="M431.81 223.39L416.13 231.83C416.13 231.83 415.53 230.59 414.71 228.83C416.92 226.98 424.78 220.61 427.36 220.9C428.594 221.053 429.84 221.083 431.08 220.99C431.55 222.49 431.81 223.39 431.81 223.39Z" fill="black"/>
<path d="M433.42 228.15L415.77 236.85L415.42 233.05L415.13 230.39C415.13 230.39 425.35 221.63 428.37 221.97C429.898 222.195 431.452 222.195 432.98 221.97L433.18 225.15L433.42 228.15Z" fill="#DCE6F2"/>
<path d="M626.32 287.18C626.32 287.18 549.38 295.86 563.76 291.18C573.76 287.92 577.76 281.55 578.58 274.49C579.26 268.58 577.74 262.19 575.72 256.69C573.903 251.836 571.598 247.179 568.84 242.79C568.84 242.79 627.66 210.43 615.84 239.79C614.027 244.24 612.904 248.941 612.51 253.73C612.15 258.486 612.662 263.268 614.02 267.84C616.248 275.302 620.506 281.998 626.32 287.18Z" fill="#FFCDD3"/>
<path opacity="0.1" d="M615.89 239.85C614.077 244.3 612.954 249.001 612.56 253.79C607.02 258.44 600.94 258.14 593.14 258.14C587.14 258.14 580.51 259.59 575.72 256.7C573.903 251.846 571.598 247.189 568.84 242.8C568.84 242.8 627.66 210.44 615.89 239.85Z" fill="black"/>
<path d="M592.1 260.18C609.674 260.18 623.92 245.934 623.92 228.36C623.92 210.786 609.674 196.54 592.1 196.54C574.526 196.54 560.28 210.786 560.28 228.36C560.28 245.934 574.526 260.18 592.1 260.18Z" fill="#FFCDD3"/>
<path opacity="0.1" d="M626.32 287.18C626.32 287.18 549.38 295.86 563.76 291.18C573.76 287.92 577.76 281.55 578.58 274.49C582.41 270.35 590.11 267.35 595.05 265.76C599.58 264.235 604.472 264.154 609.05 265.53C610.846 266.065 612.554 266.861 614.12 267.89C616.328 275.323 620.551 281.999 626.32 287.18Z" fill="black"/>
<path opacity="0.1" d="M670.13 244.93L655.4 248.39L655.09 246.19C659.24 240.89 664.47 240.25 669.23 241.36L670.13 244.93Z" fill="black"/>
<path opacity="0.1" d="M433.42 228.15L415.77 236.85L415.42 233.05C421.73 229.33 432.3 225.5 433.22 225.17L433.42 228.15Z" fill="black"/>
<path opacity="0.1" d="M656.76 481.06C626.96 485.76 584.55 491.89 577.82 489.84C572.24 488.14 554.41 488.32 538.89 488.84C539.02 481.07 539.16 475.92 539.16 475.92L654.66 463.92C654.66 463.92 654.54 469.23 656.76 481.06Z" fill="black"/>
<path d="M686.48 474.06C686.48 474.06 588.36 490.91 577.82 487.7C567.28 484.49 513.23 487.97 513.23 487.97C488.9 504.27 499.06 480.21 499.06 480.21C499.06 480.21 496.92 467.65 499.86 457.49C501.821 450.037 503.159 442.434 503.86 434.76C503.86 434.76 503.33 418.76 506.27 414.98C509.21 411.2 512.68 384.5 512.68 384.5C512.68 384.5 515.36 366.32 515.09 362.31C514.82 358.3 515.89 347.07 515.89 347.07L519.38 328.39C499.38 325.72 438.38 288.29 438.38 288.29C435.44 275.72 412.71 246.29 412.71 246.29C412.38 243.817 411.752 241.393 410.84 239.07C409.23 234.79 433.3 226.24 433.3 226.24C433.3 226.24 451.21 248.16 454.95 254.04C458.69 259.92 471.53 270.89 471.53 270.89C473.523 270.685 475.537 270.949 477.41 271.66C477.52 271.66 477.61 271.72 477.72 271.75C477.83 271.78 477.72 271.75 477.72 271.75C483.72 273.84 489.72 278.62 489.72 278.62C499.35 278.09 506.03 284.77 506.03 284.77C506.03 284.77 517.03 283.17 518.86 285.04C520.69 286.91 530.09 285.04 530.09 285.04C530.09 285.04 539.45 265.25 545.6 271.04C551.75 276.83 577.84 276.52 577.84 276.52C581.32 271.9 589.78 268.59 595.07 266.88C599.6 265.355 604.492 265.274 609.07 266.65C611.043 267.212 612.904 268.112 614.57 269.31L630.4 284.81C630.4 284.81 634.95 278.93 634.4 277.59C633.85 276.25 639.75 275.19 639.75 275.19C639.75 275.19 647.5 272.78 650.44 271.98C653.38 271.18 656.08 274.36 656.32 274.64C656.22 274.3 654.21 267.83 654.99 262.89C655.77 257.95 651.78 253.26 651.78 253.26C661.14 230.26 682.26 249.52 682.26 249.52C682.26 249.52 684.67 262.09 682.53 266.9C680.39 271.71 684.67 281.9 684.13 284.54C683.59 287.18 685.2 291.76 685.2 296.84C685.2 301.92 682.53 311.55 680.92 315.84C679.31 320.13 666.43 329.69 666.43 329.69C666.43 329.69 665.62 344.93 660.01 353.75C654.4 362.57 657.87 392.75 657.87 392.75C657.87 392.75 663.22 416.28 669.87 423.75C676.52 431.22 686.48 474.06 686.48 474.06Z" fill="#656691"/>
<path opacity="0.1" d="M543.44 298.14C543.44 298.14 540.5 289.32 537.83 288.51C535.167 287.531 532.575 286.372 530.07 285.04L531.79 281.75C531.79 281.75 541.84 284.5 543.44 287.44C545.04 290.38 543.44 298.14 543.44 298.14Z" fill="black"/>
<path opacity="0.1" d="M489.7 278.62C489.17 281.3 465.37 283.7 465.37 283.7L477.37 271.64L477.67 271.74C483.75 273.84 489.7 278.62 489.7 278.62Z" fill="black"/>
<path d="M420.85 244.06C422.032 244.06 422.99 243.102 422.99 241.92C422.99 240.738 422.032 239.78 420.85 239.78C419.668 239.78 418.71 240.738 418.71 241.92C418.71 243.102 419.668 244.06 420.85 244.06Z" fill="#575988"/>
<path d="M423.59 248.34C424.772 248.34 425.73 247.382 425.73 246.2C425.73 245.018 424.772 244.06 423.59 244.06C422.408 244.06 421.45 245.018 421.45 246.2C421.45 247.382 422.408 248.34 423.59 248.34Z" fill="#575988"/>
<path d="M426.27 252.29C427.452 252.29 428.41 251.332 428.41 250.15C428.41 248.968 427.452 248.01 426.27 248.01C425.088 248.01 424.13 248.968 424.13 250.15C424.13 251.332 425.088 252.29 426.27 252.29Z" fill="#575988"/>
<path d="M429.07 256.56C430.252 256.56 431.21 255.602 431.21 254.42C431.21 253.238 430.252 252.28 429.07 252.28C427.888 252.28 426.93 253.238 426.93 254.42C426.93 255.602 427.888 256.56 429.07 256.56Z" fill="#575988"/>
<path d="M681.09 255.93C682.051 255.93 682.83 255.151 682.83 254.19C682.83 253.229 682.051 252.45 681.09 252.45C680.129 252.45 679.35 253.229 679.35 254.19C679.35 255.151 680.129 255.93 681.09 255.93Z" fill="#575988"/>
<path d="M681.36 259.87C682.321 259.87 683.1 259.091 683.1 258.13C683.1 257.169 682.321 256.39 681.36 256.39C680.399 256.39 679.62 257.169 679.62 258.13C679.62 259.091 680.399 259.87 681.36 259.87Z" fill="#575988"/>
<path d="M681.6 263.82C682.561 263.82 683.34 263.041 683.34 262.08C683.34 261.119 682.561 260.34 681.6 260.34C680.639 260.34 679.86 261.119 679.86 262.08C679.86 263.041 680.639 263.82 681.6 263.82Z" fill="#575988"/>
<path opacity="0.1" d="M543.57 370.59C543.33 370.28 603.57 446.39 650.38 402.41C650.38 402.39 576.46 412.44 543.57 370.59Z" fill="black"/>
<path opacity="0.1" d="M508.95 410.16C508.95 410.16 545.01 411.16 548.79 421.52V432.31C547.765 432.884 546.61 433.185 545.435 433.185C544.26 433.185 543.105 432.884 542.08 432.31C538.44 430.31 516.64 419.31 508.95 424.6V410.16Z" fill="black"/>
<path d="M509.62 410.16C509.62 410.16 544.11 411.1 547.72 420.99V431.28C546.739 431.828 545.634 432.116 544.51 432.116C543.386 432.116 542.281 431.828 541.3 431.28C537.83 429.41 516.97 418.85 509.62 423.93V410.16Z" fill="#656691"/>
<path opacity="0.1" d="M528.64 331.85C528.64 331.85 532.77 342.47 542.64 355.85C548.742 364.037 556.135 371.177 564.53 376.99C564.53 376.99 529.24 336.81 528.64 331.85Z" fill="black"/>
<path opacity="0.1" d="M516.84 289.94C516.84 289.94 522.84 315.94 538.36 324.74L516.84 289.94Z" fill="black"/>
<path opacity="0.1" d="M507.61 292.57C507.46 292.09 502.27 313.11 527.61 324.74C527.6 324.74 516.84 321.09 507.61 292.57Z" fill="black"/>
<path opacity="0.1" d="M665.13 275.15C664.73 275.15 677.63 283.36 681.13 287.15C681.13 287.18 672.71 274.61 665.13 275.15Z" fill="black"/>
<path d="M583.5 257.2C583.95 258.84 584.5 260.64 585.98 261.5C586.916 261.95 587.942 262.179 588.98 262.17C598.68 262.77 608.77 263.17 617.75 259.46C619.422 258.865 620.922 257.869 622.12 256.56C623.71 254.61 624.02 251.96 624.66 249.56C625.92 244.81 628.6 240.56 630.54 236.05C633.79 228.404 634.88 220.013 633.69 211.79C633.44 209.264 632.608 206.83 631.26 204.68C628.68 201.01 624 199.52 620.59 196.6C617.18 193.68 615 189.21 611.03 187.01C607.45 185.01 603.03 185.26 599.03 185.94C591.096 187.293 583.494 190.147 576.63 194.35C574.33 195.77 571.8 197.4 569.14 196.9C566.82 196.46 565.14 194.51 563.64 192.68C561.74 197.041 560.92 201.795 561.25 206.54C561.352 207.235 561.328 207.943 561.18 208.63C560.851 209.461 560.346 210.212 559.7 210.83C557.31 213.61 555.81 218.01 558.18 220.83C559.18 222.05 560.79 222.72 561.79 223.96C563.59 226.2 562.98 229.41 562.94 232.27C562.833 233.263 563.081 234.262 563.64 235.09C564.54 236.18 566.18 236.27 567.57 236.03C568.96 235.79 570.38 235.32 571.75 235.63C573.244 236.127 574.526 237.114 575.39 238.43C579.87 244.08 581.62 250.39 583.5 257.2Z" fill="#2D293D"/>
<g opacity="0.1">
<path opacity="0.1" d="M623.19 254.11C621.992 255.419 620.492 256.415 618.82 257.01C609.82 260.75 599.75 260.32 590.05 259.71C589.012 259.727 587.985 259.501 587.05 259.05C585.58 258.18 585.05 256.39 584.57 254.75C582.69 247.89 580.94 241.63 576.46 235.93C575.596 234.614 574.314 233.627 572.82 233.13C571.45 232.82 570.03 233.29 568.64 233.53C567.25 233.77 565.64 233.68 564.71 232.59C564.151 231.762 563.903 230.763 564.01 229.77C564.01 226.91 564.65 223.69 562.86 221.46C561.86 220.21 560.28 219.55 559.24 218.33C557.76 216.56 557.8 214.17 558.63 211.94C556.93 214.64 556.19 218.11 558.18 220.46C559.18 221.69 560.79 222.35 561.79 223.6C563.58 225.83 562.98 229.05 562.94 231.91C562.833 232.903 563.081 233.902 563.64 234.73C564.54 235.82 566.18 235.91 567.57 235.67C568.96 235.43 570.38 234.96 571.75 235.27C573.244 235.767 574.526 236.754 575.39 238.07C579.87 243.77 581.62 250.07 583.5 256.89C583.95 258.52 584.5 260.32 585.98 261.19C586.915 261.641 587.942 261.867 588.98 261.85C598.68 262.46 608.77 262.85 617.75 259.15C619.422 258.555 620.922 257.559 622.12 256.25C622.726 255.477 623.193 254.604 623.5 253.67C623.4 253.82 623.3 253.97 623.19 254.11Z" fill="black"/>
<path opacity="0.1" d="M561.28 207.75C561.723 207.29 562.064 206.741 562.28 206.14C562.428 205.453 562.452 204.745 562.35 204.05C562.086 200.153 562.593 196.242 563.84 192.54L563.67 192.33C561.769 196.69 560.95 201.445 561.28 206.19C561.33 206.709 561.33 207.231 561.28 207.75Z" fill="black"/>
</g>
<path opacity="0.1" d="M577.82 276.48C577.82 276.48 617.57 281.75 621.14 275.78L577.82 276.48Z" fill="black"/>
<path opacity="0.1" d="M655.13 260.04C655.13 260.04 677.21 260.04 682.07 268.34L655.13 260.04Z" fill="black"/>
</g>
<defs>
<linearGradient id="paint0_linear" x1="770.54" y1="371.81" x2="770.54" y2="162.46" gradientUnits="userSpaceOnUse">
<stop stop-color="#808080" stop-opacity="0.25"/>
<stop offset="0.54" stop-color="#808080" stop-opacity="0.12"/>
<stop offset="1" stop-color="#808080" stop-opacity="0.1"/>
</linearGradient>
<linearGradient id="paint1_linear" x1="42699.9" y1="87808.1" x2="42699.9" y2="38557.4" gradientUnits="userSpaceOnUse">
<stop stop-color="#808080" stop-opacity="0.25"/>
<stop offset="0.54" stop-color="#808080" stop-opacity="0.12"/>
<stop offset="1" stop-color="#808080" stop-opacity="0.1"/>
</linearGradient>
<linearGradient id="paint2_linear" x1="163597" y1="201641" x2="163597" y2="126666" gradientUnits="userSpaceOnUse">
<stop stop-color="#808080" stop-opacity="0.25"/>
<stop offset="0.54" stop-color="#808080" stop-opacity="0.12"/>
<stop offset="1" stop-color="#808080" stop-opacity="0.1"/>
</linearGradient>
<linearGradient id="paint3_linear" x1="43179.1" y1="185735" x2="43179.1" y2="116803" gradientUnits="userSpaceOnUse">
<stop stop-color="#808080" stop-opacity="0.25"/>
<stop offset="0.54" stop-color="#808080" stop-opacity="0.12"/>
<stop offset="1" stop-color="#808080" stop-opacity="0.1"/>
</linearGradient>
<linearGradient id="paint4_linear" x1="116351" y1="191104" x2="116351" y2="123146" gradientUnits="userSpaceOnUse">
<stop stop-color="#808080" stop-opacity="0.25"/>
<stop offset="0.54" stop-color="#808080" stop-opacity="0.12"/>
<stop offset="1" stop-color="#808080" stop-opacity="0.1"/>
</linearGradient>
<linearGradient id="paint5_linear" x1="154996" y1="50292.8" x2="154996" y2="25414" gradientUnits="userSpaceOnUse">
<stop stop-color="#808080" stop-opacity="0.25"/>
<stop offset="0.54" stop-color="#808080" stop-opacity="0.12"/>
<stop offset="1" stop-color="#808080" stop-opacity="0.1"/>
</linearGradient>
<linearGradient id="paint6_linear" x1="197059" y1="581410" x2="197059" y2="135170" gradientUnits="userSpaceOnUse">
<stop stop-color="#808080" stop-opacity="0.25"/>
<stop offset="0.54" stop-color="#808080" stop-opacity="0.12"/>
<stop offset="1" stop-color="#808080" stop-opacity="0.1"/>
</linearGradient>
<clipPath id="clip0">
<rect width="1046.26" height="851.78" fill="white"/>
</clipPath>
</defs>
</svg>
