<svg width="1097" height="806" viewBox="0 0 1097 806" fill="none" xmlns="http://www.w3.org/2000/svg">
<g clip-path="url(#clip0)">
<path opacity="0.1" d="M641.82 111.4C577.1 109.15 515.46 88.26 456.6 65.4C397.74 42.54 339.44 17.21 276.23 5.1C235.64 -2.69 189.17 -3.79 156.43 17.98C124.93 38.98 114.75 75.13 109.28 108.7C105.16 133.97 102.74 160.55 114.02 184.2C121.86 200.62 135.76 214.42 145.38 230.2C178.85 284.92 155.19 352.4 118.93 405.83C101.93 430.89 82.1802 454.83 69.0502 481.49C55.9202 508.15 49.8502 538.74 61.3402 565.95C72.7202 592.95 99.8502 613.19 129.24 627.45C188.93 656.39 259.24 664.68 327.85 669.37C479.68 679.76 632.31 675.26 784.54 670.76C840.88 669.09 897.46 667.4 952.88 658.69C983.66 653.85 1015.43 646.17 1037.77 627.69C1066.14 604.16 1073.17 564.31 1054.16 534.81C1022.28 485.32 934.16 473.02 911.85 419.91C899.59 390.68 912.18 358.11 930.01 331C968.25 272.83 1032.34 221.81 1035.71 155.32C1038.03 109.66 1007.22 63.93 959.58 42.32C909.65 19.67 840.4 22.52 803.58 60.01C765.63 98.53 698.97 113.38 641.82 111.4Z" fill="#FF00AC"/>
<g opacity="0.9">
<path opacity="0.9" d="M714.9 248.78H710.62C709.355 248.78 708.33 249.805 708.33 251.07V319.51C708.33 320.775 709.355 321.8 710.62 321.8H714.9C716.165 321.8 717.19 320.775 717.19 319.51V251.07C717.19 249.805 716.165 248.78 714.9 248.78Z" fill="#3A3768"/>
<path opacity="0.9" d="M416.57 191.58H416.18C414.915 191.58 413.89 192.605 413.89 193.87V213.33C413.89 214.595 414.915 215.62 416.18 215.62H416.57C417.835 215.62 418.86 214.595 418.86 213.33V193.87C418.86 192.605 417.835 191.58 416.57 191.58Z" fill="#3A3768"/>
<path opacity="0.9" d="M417.02 235.59H416C414.735 235.59 413.71 236.615 413.71 237.88V275.14C413.71 276.405 414.735 277.43 416 277.43H417.02C418.285 277.43 419.31 276.405 419.31 275.14V237.88C419.31 236.615 418.285 235.59 417.02 235.59Z" fill="#3A3768"/>
<path opacity="0.9" d="M416.84 292.07H416.09C414.825 292.07 413.8 293.095 413.8 294.36V331.98C413.8 333.245 414.825 334.27 416.09 334.27H416.84C418.105 334.27 419.13 333.245 419.13 331.98V294.36C419.13 293.095 418.105 292.07 416.84 292.07Z" fill="#3A3768"/>
<path opacity="0.9" d="M674.12 112.14H455.7C434.166 112.14 416.71 129.596 416.71 151.13V675.54C416.71 697.074 434.166 714.53 455.7 714.53H674.12C695.654 714.53 713.11 697.074 713.11 675.54V151.13C713.11 129.596 695.654 112.14 674.12 112.14Z" fill="#3A3768"/>
<path opacity="0.9" d="M573.83 130.12H540.18C538.043 130.12 536.31 131.853 536.31 133.99V134.65C536.31 136.787 538.043 138.52 540.18 138.52H573.83C575.967 138.52 577.7 136.787 577.7 134.65V133.99C577.7 131.853 575.967 130.12 573.83 130.12Z" fill="#E6E8EC"/>
<path opacity="0.9" d="M588.73 139.1C591.364 139.1 593.5 136.964 593.5 134.33C593.5 131.696 591.364 129.56 588.73 129.56C586.096 129.56 583.96 131.696 583.96 134.33C583.96 136.964 586.096 139.1 588.73 139.1Z" fill="#E6E8EC"/>
</g>
<path opacity="0.1" d="M238.04 748.77C348.48 748.77 438.01 739.646 438.01 728.39C438.01 717.134 348.48 708.01 238.04 708.01C127.599 708.01 38.0698 717.134 38.0698 728.39C38.0698 739.646 127.599 748.77 238.04 748.77Z" fill="#FF00AC"/>
<path opacity="0.1" d="M682.68 805.97C734.418 805.97 776.36 801.694 776.36 796.42C776.36 791.146 734.418 786.87 682.68 786.87C630.942 786.87 589 791.146 589 796.42C589 801.694 630.942 805.97 682.68 805.97Z" fill="#FF00AC"/>
<path opacity="0.1" d="M1002.78 757.85C1054.52 757.85 1096.46 753.574 1096.46 748.3C1096.46 743.026 1054.52 738.75 1002.78 738.75C951.042 738.75 909.1 743.026 909.1 748.3C909.1 753.574 951.042 757.85 1002.78 757.85Z" fill="#FF00AC"/>
<path d="M671.23 127.82H637.33V131.91C637.33 137.05 635.288 141.979 631.654 145.614C628.019 149.248 623.09 151.29 617.95 151.29H509.77C504.63 151.29 499.701 149.248 496.066 145.614C492.432 141.979 490.39 137.05 490.39 131.91V127.82H458.55C455.459 127.82 452.399 128.429 449.543 129.612C446.688 130.795 444.093 132.529 441.908 134.715C439.723 136.901 437.99 139.496 436.808 142.352C435.626 145.208 435.019 148.269 435.02 151.36V675.29C435.019 678.381 435.626 681.442 436.808 684.298C437.99 687.154 439.723 689.749 441.908 691.935C444.093 694.121 446.688 695.855 449.543 697.038C452.399 698.221 455.459 698.83 458.55 698.83H671.23C677.473 698.83 683.461 696.35 687.875 691.935C692.29 687.521 694.77 681.533 694.77 675.29V151.36C694.77 145.117 692.29 139.129 687.875 134.715C683.461 130.3 677.473 127.82 671.23 127.82Z" fill="#FF00AC"/>
<path d="M815.72 85.71C815.72 85.71 731.52 80.63 741.45 139.63C741.45 139.63 739.45 150.06 748.93 154.79C748.93 154.79 749.08 150.42 757.56 151.9C760.581 152.411 763.653 152.559 766.71 152.34C770.843 152.064 774.772 150.445 777.9 147.73C777.9 147.73 801.56 137.95 810.77 99.27C810.77 99.27 817.58 90.83 817.31 88.66L803.1 94.73C803.1 94.73 807.95 104.98 804.1 113.5C804.1 113.5 803.64 95.1 800.91 95.5C800.35 95.58 793.52 99.05 793.52 99.05C793.52 99.05 801.88 116.9 795.52 129.88C795.52 129.88 797.91 107.88 790.86 100.34L780.86 106.18C780.86 106.18 790.62 124.62 784.01 139.67C784.01 139.67 785.7 116.59 778.76 107.6L769.7 114.67C769.7 114.67 778.87 132.84 773.28 145.32C773.28 145.32 772.54 118.46 767.73 116.43C767.73 116.43 759.8 123.43 758.59 126.29C758.59 126.29 764.87 139.49 760.98 146.45C760.98 146.45 758.59 128.55 756.63 128.45C756.63 128.45 748.73 140.31 747.91 148.45C747.91 148.45 748.25 136.36 754.71 127.33C754.71 127.33 747.08 128.64 742.62 133.59C742.62 133.59 743.85 125.21 756.62 124.47C756.62 124.47 763.15 115.47 764.9 114.93C764.9 114.93 752.15 113.86 744.42 117.29C744.42 117.29 751.22 109.38 767.24 112.98L776.18 105.67C776.18 105.67 759.4 103.38 752.28 105.91C752.28 105.91 760.48 98.91 778.6 104.01L788.34 98.19C788.34 98.19 774.03 95.1 765.5 96.19C765.5 96.19 774.5 91.34 791.19 96.6L798.19 93.47C798.19 93.47 787.7 91.41 784.63 91.08C781.56 90.75 781.4 89.91 781.4 89.91C788.091 88.7984 794.96 89.5812 801.23 92.17C801.23 92.17 815.97 86.64 815.72 85.71Z" fill="#FF00AC"/>
<path d="M729.36 59.47C729.36 59.47 691.36 57.18 695.8 83.84C695.8 83.84 694.91 88.55 699.18 90.69C699.18 90.69 699.25 88.69 703.08 89.38C704.444 89.6095 705.83 89.6767 707.21 89.58C709.078 89.4545 710.854 88.7244 712.27 87.5C712.27 87.5 722.96 83.08 727.12 65.6C727.12 65.6 730.2 61.79 730.12 60.81L723.7 63.55C723.7 63.55 725.89 68.18 724.16 72.03C724.16 72.03 723.96 63.72 722.72 63.91C722.47 63.91 719.39 65.52 719.39 65.52C719.39 65.52 723.16 73.58 720.31 79.45C720.31 79.45 721.39 69.51 718.21 66.1L713.69 68.74C713.69 68.74 718.1 77.07 715.11 83.87C715.11 83.87 715.88 73.44 712.74 69.38L708.64 72.58C708.64 72.58 712.79 80.79 710.26 86.43C710.26 86.43 709.93 74.29 707.76 73.37C707.76 73.37 704.17 76.53 703.63 77.83C703.63 77.83 706.46 83.83 704.7 86.94C704.7 86.94 703.62 78.85 702.7 78.81C702.7 78.81 699.13 84.17 698.76 87.81C698.933 84.4165 699.991 81.1274 701.83 78.27C699.772 78.6593 697.874 79.6432 696.37 81.1C696.37 81.1 696.92 77.31 702.71 76.98C702.71 76.98 705.66 72.91 706.45 72.66C706.45 72.66 700.69 72.18 697.2 73.73C697.2 73.73 700.27 70.16 707.51 71.73L711.51 68.43C711.51 68.43 703.93 67.43 700.71 68.54C700.71 68.54 704.42 65.38 712.6 67.68L717 65.05C717 65.05 710.54 63.66 706.69 64.16C706.69 64.16 710.75 61.97 718.29 64.34L721.44 62.93C721.44 62.93 716.71 62 715.32 61.85C713.93 61.7 713.86 61.32 713.86 61.32C716.858 60.8209 719.937 61.1672 722.75 62.32C722.75 62.32 729.47 59.89 729.36 59.47Z" fill="#FF00AC"/>
<path d="M40.21 685.37C62.4174 685.37 80.42 682.326 80.42 678.57C80.42 674.814 62.4174 671.77 40.21 671.77C18.0026 671.77 0 674.814 0 678.57C0 682.326 18.0026 685.37 40.21 685.37Z" fill="#FF00AC"/>
<path d="M56.83 667.44C58.6683 665.949 60.008 663.933 60.67 661.66C61.16 659.36 60.18 656.66 57.99 655.77C55.53 654.82 52.9 656.53 50.91 658.25C48.92 659.97 46.63 661.94 44.02 661.57C45.3569 660.351 46.3553 658.807 46.9179 657.088C47.4804 655.369 47.5879 653.533 47.23 651.76C47.1222 651.023 46.8104 650.33 46.33 649.76C44.97 648.3 42.49 648.93 40.85 650.08C35.65 653.74 34.2 660.8 34.18 667.16C33.65 664.86 34.09 662.47 34.08 660.16C34.07 657.85 33.42 655.16 31.44 653.94C30.2122 653.28 28.8333 652.953 27.44 652.99C25.1 652.91 22.5 653.14 20.9 654.85C18.9 656.97 19.43 660.54 21.16 662.85C22.89 665.16 25.51 666.65 27.92 668.27C29.8612 669.421 31.516 670.997 32.76 672.88C32.9075 673.14 33.0281 673.415 33.12 673.7H47.77C51.0592 672.033 54.107 669.927 56.83 667.44Z" fill="#FF00AC"/>
<path d="M830.57 583.52C830.57 583.52 839.22 594.84 826.57 611.92C813.92 629 803.5 643.42 807.72 654.07C807.72 654.07 826.8 622.35 842.33 621.9C857.86 621.45 847.65 602.6 830.57 583.52Z" fill="#FF00AC"/>
<path opacity="0.1" d="M830.57 583.52C831.322 584.615 831.918 585.81 832.34 587.07C847.49 604.87 855.56 621.49 840.99 621.9C827.43 622.29 811.15 646.55 807.26 652.67C807.383 653.146 807.537 653.614 807.72 654.07C807.72 654.07 826.8 622.35 842.33 621.9C857.86 621.45 847.65 602.6 830.57 583.52Z" fill="black"/>
<path d="M846.65 597.98C846.65 601.98 846.2 605.19 845.65 605.19C845.1 605.19 844.65 601.96 844.65 597.98C844.65 594 845.21 595.88 845.76 595.88C846.31 595.88 846.65 593.98 846.65 597.98Z" fill="#FFD037"/>
<path d="M852.17 602.7C848.67 604.6 845.63 605.76 845.36 605.27C845.09 604.78 847.72 602.85 851.22 600.94C854.72 599.03 853.33 600.43 853.6 600.94C853.87 601.45 855.67 600.79 852.17 602.7Z" fill="#FFD037"/>
<path d="M784.87 583.52C784.87 583.52 776.22 594.84 788.87 611.92C801.52 629 811.94 643.42 807.73 654.07C807.73 654.07 788.65 622.35 773.12 621.9C757.59 621.45 767.79 602.6 784.87 583.52Z" fill="#FF00AC"/>
<path opacity="0.1" d="M784.87 583.52C784.113 584.612 783.517 585.808 783.1 587.07C767.95 604.87 759.88 621.49 774.44 621.9C788.01 622.29 804.28 646.55 808.18 652.67C808.052 653.145 807.899 653.612 807.72 654.07C807.72 654.07 788.64 622.35 773.11 621.9C757.58 621.45 767.79 602.6 784.87 583.52Z" fill="black"/>
<path d="M768.78 597.98C768.78 601.98 769.23 605.19 769.78 605.19C770.33 605.19 770.78 601.96 770.78 597.98C770.78 594 770.22 595.88 769.67 595.88C769.12 595.88 768.78 593.98 768.78 597.98Z" fill="#FFD037"/>
<path d="M763.23 602.7C766.72 604.6 769.77 605.76 770.03 605.27C770.29 604.78 767.68 602.85 764.18 600.94C760.68 599.03 762.06 600.43 761.8 600.94C761.54 601.45 759.77 600.79 763.23 602.7Z" fill="#FFD037"/>
<path d="M771.54 652.59C771.54 652.59 795.73 651.84 803.02 646.65C810.31 641.46 840.23 635.26 842.02 643.59C843.81 651.92 878.37 685 851.02 685.22C823.67 685.44 787.56 680.96 780.29 676.53C773.02 672.1 771.54 652.59 771.54 652.59Z" fill="#A8A8A8"/>
<path opacity="0.2" d="M851.57 682.32C824.26 682.54 788.11 678.06 780.84 673.63C775.29 670.26 773.09 658.15 772.35 652.56H771.54C771.54 652.56 773.07 672.07 780.35 676.5C787.63 680.93 823.77 685.41 851.08 685.19C858.96 685.12 861.69 682.32 861.54 678.19C860.44 680.7 857.44 682.27 851.57 682.32Z" fill="black"/>
<path opacity="0.3" d="M662.56 487.87H584.53V565.9H662.56V487.87Z" fill="#3A3768"/>
<path opacity="0.3" d="M547.56 384.87H469.53V462.9H547.56V384.87Z" fill="#3A3768"/>
<path opacity="0.3" d="M555.06 589.11H477.03V667.14H555.06V589.11Z" fill="#3A3768"/>
<path d="M537.65 193.28H459.62V271.31H537.65V193.28Z" fill="white"/>
<path d="M513.78 218.77L511.01 221.53C511.919 222.437 512.641 223.515 513.133 224.702C513.625 225.888 513.878 227.16 513.878 228.445C513.878 229.73 513.625 231.002 513.133 232.188C512.641 233.375 511.919 234.453 511.01 235.36L513.78 238.14C516.348 235.571 517.791 232.087 517.791 228.455C517.791 224.823 516.348 221.339 513.78 218.77Z" fill="#FF00AC"/>
<path d="M519.32 213.44L516.59 216.17C519.844 219.429 521.671 223.845 521.671 228.45C521.671 233.055 519.844 237.471 516.59 240.73L519.32 243.46C523.297 239.481 525.53 234.086 525.53 228.46C525.53 222.834 523.297 217.439 519.32 213.46V213.44ZM506.32 223.66V211.16H502.47L490.95 220.76H475.59L471.75 222.68V236.13L475.59 238.05L485.23 253.42H490.99L487.39 238.05H490.99L502.51 245.74H506.36V233.24C507.447 232.995 508.419 232.387 509.115 231.517C509.812 230.646 510.191 229.565 510.191 228.45C510.191 227.335 509.812 226.254 509.115 225.383C508.419 224.513 507.447 223.905 506.36 223.66H506.32Z" fill="#FF00AC"/>
<path d="M646.92 459.737L589.061 512.091L641.414 569.951L699.274 517.597L646.92 459.737Z" fill="white"/>
<path d="M621.57 504.12L627.23 498.98L658.23 533.15L652.53 538.31L621.57 504.12ZM634.94 536.12L640.64 530.97L649.64 540.97L643.94 546.12L634.94 536.12ZM646.88 514.96L652.58 509.8L666.75 525.47L661.06 530.62L646.88 514.96ZM647.69 498.68L653.39 493.52L675.3 517.73L669.6 522.89L647.69 498.68Z" fill="#FF00AC"/>
<path d="M661.27 287.31H583.24V365.34H661.27V287.31Z" fill="white"/>
<path d="M637.07 316.98L626.6 332.98C627.444 334.005 627.904 335.292 627.9 336.62C627.838 338.107 627.203 339.513 626.129 340.544C625.055 341.574 623.624 342.15 622.135 342.15C620.646 342.15 619.215 341.574 618.141 340.544C617.066 339.513 616.432 338.107 616.37 336.62C616.373 336.261 616.406 335.903 616.47 335.55L609.55 331.55C608.653 332.405 607.506 332.95 606.277 333.105C605.047 333.26 603.8 333.016 602.72 332.41L595.36 339.3V346.17C595.363 347.53 595.904 348.833 596.865 349.795C597.827 350.756 599.13 351.297 600.49 351.3H644.03C645.389 351.295 646.691 350.753 647.651 349.792C648.612 348.831 649.155 347.529 649.16 346.17V320.65L642.16 315.98C641.154 316.772 639.91 317.201 638.63 317.2C638.116 317.197 637.605 317.126 637.11 316.99L637.07 316.98Z" fill="#FF00AC"/>
<path d="M605.56 321.64C606.317 321.639 607.067 321.787 607.767 322.076C608.467 322.364 609.103 322.789 609.639 323.324C610.175 323.859 610.6 324.494 610.89 325.193C611.181 325.893 611.33 326.643 611.33 327.4C611.33 327.65 611.33 327.91 611.28 328.15L618.5 332.15C619.526 331.302 620.818 330.841 622.15 330.85C622.567 330.85 622.983 330.897 623.39 330.99L633.89 314.73C633.366 313.991 633.024 313.139 632.892 312.243C632.759 311.347 632.84 310.433 633.127 309.574C633.414 308.715 633.9 307.936 634.545 307.3C635.189 306.664 635.975 306.189 636.838 305.913C637.701 305.638 638.616 305.57 639.51 305.714C640.404 305.859 641.251 306.212 641.983 306.746C642.715 307.279 643.311 307.978 643.722 308.785C644.133 309.592 644.348 310.484 644.35 311.39C644.349 311.848 644.295 312.304 644.19 312.75L649.19 316.06V306.44C649.185 305.082 648.642 303.781 647.681 302.822C646.72 301.863 645.418 301.323 644.06 301.32H600.49C599.131 301.32 597.828 301.859 596.866 302.819C595.904 303.779 595.363 305.081 595.36 306.44V333.98L600.16 329.38C599.923 328.74 599.802 328.063 599.8 327.38C599.805 325.856 600.414 324.396 601.494 323.32C602.574 322.244 604.036 321.64 605.56 321.64Z" fill="#FF00AC"/>
<path d="M562.63 374.31H484.6V452.34H562.63V374.31Z" fill="white"/>
<path d="M547.16 388.47L499.16 414.47C498.996 414.559 498.861 414.692 498.769 414.854C498.677 415.016 498.633 415.201 498.64 415.387C498.647 415.573 498.706 415.753 498.811 415.907C498.915 416.062 499.06 416.184 499.23 416.26L507.42 419.35C507.894 419.534 508.28 419.892 508.5 420.35L514.86 433.45C514.98 434.03 516.05 434.19 516.06 433.6L515.06 422.77C515.117 421.966 515.424 421.2 515.94 420.58L540.82 396.2C540.892 396.131 540.979 396.081 541.075 396.053C541.171 396.025 541.272 396.02 541.37 396.04C541.463 396.063 541.549 396.108 541.62 396.173C541.69 396.238 541.743 396.319 541.774 396.41C541.805 396.501 541.813 396.598 541.796 396.692C541.78 396.786 541.74 396.875 541.68 396.95L520.23 423.17C519.777 423.81 519.489 424.552 519.39 425.33L518.11 434.68C518.21 435.5 518.85 435.81 519.37 435.08L523.99 429.65C524.145 429.446 524.373 429.309 524.626 429.268C524.879 429.228 525.138 429.285 525.35 429.43L537.26 438.11C537.393 438.196 537.544 438.249 537.702 438.265C537.859 438.28 538.018 438.259 538.166 438.201C538.313 438.143 538.445 438.052 538.55 437.933C538.655 437.815 538.73 437.673 538.77 437.52L548.54 389.52C548.571 389.341 548.552 389.157 548.486 388.987C548.42 388.818 548.309 388.669 548.165 388.558C548.021 388.447 547.85 388.377 547.669 388.357C547.488 388.336 547.305 388.365 547.14 388.44L547.16 388.47Z" fill="#FF00AC"/>
<path d="M971.84 732.59C976.38 733.18 981.09 733.59 985.44 732.13C986.11 731.92 986.88 731.46 986.79 730.77C986.739 730.529 986.633 730.303 986.48 730.11C984.834 727.651 983.45 725.027 982.35 722.28C982.31 722.138 982.221 722.014 982.1 721.93C981.959 721.875 981.802 721.875 981.66 721.93C979.66 722.45 977.92 723.75 975.92 724.3C974.905 724.58 973.846 724.661 972.8 724.54C971.9 724.44 970.66 723.69 969.85 723.78C970.35 726.75 971.49 729.56 971.84 732.59Z" fill="#FF00AC"/>
<path d="M1057.77 724.98C1060.77 722.98 1063.87 720.76 1065.64 717.59C1065.77 717.404 1065.84 717.185 1065.85 716.96C1065.82 716.735 1065.74 716.521 1065.6 716.34C1063.91 713.665 1061.75 711.326 1059.21 709.44C1057.88 710.379 1056.68 711.484 1055.64 712.73C1054.89 713.52 1052.81 714.82 1052.79 716C1052.79 716.71 1053.58 717.48 1053.95 718C1054.45 718.74 1054.95 719.5 1055.38 720.26C1055.61 720.72 1057.99 724.86 1057.77 724.98Z" fill="#FF00AC"/>
<path d="M989.64 741.77C989.703 742.48 989.512 743.189 989.1 743.77C988.779 744.087 988.384 744.317 987.95 744.44C981.59 746.71 974.27 743.87 967.95 746.12C966.64 746.58 965.41 747.24 964.1 747.68C962.549 748.148 960.948 748.433 959.33 748.53C957.08 748.75 954.83 748.88 952.58 748.94C950.874 749.06 949.16 748.912 947.5 748.5C946.671 748.285 945.895 747.899 945.224 747.367C944.552 746.835 943.999 746.168 943.6 745.41C943.259 744.727 943.191 743.941 943.41 743.21C943.507 742.952 943.645 742.712 943.82 742.5C944.253 742.02 944.759 741.611 945.32 741.29L947.66 739.78C948.755 739.004 949.944 738.372 951.2 737.9C952.12 737.6 953.11 737.47 954.04 737.2C957.33 736.2 959.83 733.63 962.16 731.13L965.34 727.74C965.635 727.366 966.011 727.065 966.44 726.86C966.877 726.709 967.342 726.661 967.8 726.72C970.89 726.947 973.873 727.951 976.47 729.64C977.14 730.13 977.857 730.552 978.61 730.9C979.609 731.19 980.656 731.273 981.687 731.144C982.719 731.015 983.714 730.677 984.61 730.15C985.43 729.72 985.25 729.45 985.61 728.68C985.97 727.91 986.79 727.41 987.51 728.12C987.726 728.367 987.88 728.662 987.96 728.98C988.66 731.25 988.39 733.68 988.39 736.05C988.371 736.422 988.419 736.794 988.53 737.15C988.707 737.501 988.915 737.835 989.15 738.15C989.201 738.232 989.245 738.319 989.28 738.41C989.675 739.483 989.799 740.637 989.64 741.77Z" fill="#514E7F"/>
<path d="M989.64 741.77C989.703 742.48 989.512 743.189 989.1 743.77C988.779 744.087 988.384 744.317 987.95 744.44C981.59 746.71 974.27 743.87 967.95 746.12C966.64 746.58 965.41 747.24 964.1 747.68C962.549 748.148 960.948 748.433 959.33 748.53C957.08 748.75 954.83 748.88 952.58 748.94C950.874 749.06 949.16 748.912 947.5 748.5C946.671 748.285 945.895 747.899 945.224 747.367C944.552 746.835 943.999 746.168 943.6 745.41C943.259 744.727 943.191 743.941 943.41 743.21C943.507 742.952 943.645 742.712 943.82 742.5C944.2 743.28 944.47 744.3 944.7 744.67C945.017 745.223 945.448 745.701 945.966 746.071C946.484 746.442 947.075 746.698 947.7 746.82C948.617 746.868 949.535 746.749 950.41 746.47C956.17 745.04 962.29 745.02 967.81 742.86C969.654 741.991 971.559 741.259 973.51 740.67C975.55 740.363 977.608 740.196 979.67 740.17C982.92 739.91 986.06 738.93 989.27 738.42C989.667 739.489 989.794 740.64 989.64 741.77Z" fill="#464353"/>
<path d="M1072.29 724.59C1071.99 727 1070.46 729.08 1068.78 730.84C1066.99 732.478 1065.35 734.275 1063.88 736.21C1062.22 738.73 1061.49 741.84 1059.35 743.97C1058.54 744.759 1057.62 745.432 1056.63 745.97C1055.51 746.63 1054.33 747.173 1053.1 747.59C1049.91 748.59 1046.47 748.38 1043.1 748.14C1042.02 748.127 1040.95 747.917 1039.94 747.52C1039.47 747.289 1039.02 747.018 1038.6 746.71C1037.78 746.182 1037.1 745.474 1036.6 744.64C1036.35 744.184 1036.29 743.653 1036.41 743.15C1036.61 742.584 1036.95 742.08 1037.41 741.69C1038.16 740.91 1038.97 740.185 1039.82 739.52C1041 738.759 1042.05 737.829 1042.96 736.76C1043.52 735.915 1043.92 734.981 1044.17 734C1044.65 732.287 1044.95 730.527 1045.05 728.75C1045.05 727.57 1045.17 726.393 1045.42 725.24C1045.93 723.44 1047.27 721.81 1047.11 719.94C1047.05 719.672 1047.08 719.393 1047.18 719.14C1047.35 718.949 1047.57 718.813 1047.81 718.75C1048.86 718.339 1049.97 718.086 1051.09 718C1051.65 717.965 1052.2 718.053 1052.72 718.259C1053.24 718.464 1053.71 718.782 1054.09 719.19C1054.56 719.75 1054.86 720.53 1055.55 720.78C1055.88 720.85 1056.22 720.85 1056.55 720.78C1058.23 720.61 1060.02 720.4 1061.31 719.31C1061.93 718.759 1062.42 718.086 1062.77 717.334C1063.11 716.582 1063.3 715.767 1063.31 714.94C1063.31 714.32 1063.03 713.67 1063.98 713.54C1064.71 713.44 1065.28 714.2 1065.65 714.7C1067.11 716.408 1068.2 718.4 1068.86 720.55C1069.05 720.471 1069.26 720.43 1069.47 720.43C1069.9 720.424 1070.32 720.523 1070.7 720.718C1071.08 720.913 1071.41 721.199 1071.65 721.55C1072.23 722.449 1072.46 723.532 1072.29 724.59Z" fill="#514E7F"/>
<path d="M1072.29 724.59C1071.99 727 1070.46 729.08 1068.78 730.84C1066.99 732.478 1065.35 734.275 1063.88 736.21C1062.22 738.73 1061.49 741.84 1059.35 743.97C1058.54 744.759 1057.62 745.432 1056.63 745.97C1055.51 746.63 1054.33 747.173 1053.1 747.59C1049.91 748.59 1046.47 748.38 1043.1 748.14C1042.02 748.127 1040.95 747.917 1039.94 747.52C1039.47 747.289 1039.02 747.018 1038.6 746.71C1037.78 746.182 1037.1 745.474 1036.6 744.64C1037.24 744.328 1037.95 744.16 1038.66 744.15C1040.15 744.23 1041.23 745.63 1042.66 746.06C1044.66 746.67 1046.66 745.24 1048.75 744.75C1050.09 744.44 1051.51 744.53 1052.82 744.1C1053.92 743.674 1054.93 743.058 1055.82 742.28C1057.04 741.41 1058.12 740.365 1059.03 739.18C1059.79 737.998 1060.43 736.737 1060.92 735.42C1062 732.896 1063.28 730.459 1064.73 728.13C1064.95 727.764 1065.21 727.428 1065.51 727.13C1065.82 726.84 1066.21 726.63 1066.51 726.37C1067.88 725.37 1068.45 723.6 1068.93 721.96C1069.06 721.452 1069.24 720.959 1069.47 720.49C1069.9 720.484 1070.32 720.583 1070.7 720.778C1071.08 720.973 1071.41 721.259 1071.65 721.61C1072.22 722.493 1072.45 723.552 1072.29 724.59Z" fill="#464353"/>
<path d="M928.63 510.98C930.322 512.254 931.714 513.882 932.71 515.75C933.71 517.63 939.2 532.23 938.88 534.32C940.68 532.5 947.82 532.2 949.61 530.39C950.37 529.63 954.48 525.83 955.09 524.95C955.7 524.07 960.28 522.18 960.78 521.28C962.65 517.93 947.52 505.28 949.45 501.92C949.561 501.77 949.618 501.586 949.61 501.4C949.569 501.245 949.482 501.105 949.36 501C948.015 499.842 946.546 498.836 944.98 498C943.393 497.146 942.197 495.714 941.64 494C940.216 494.656 938.908 495.541 937.77 496.62C935.003 498.987 932.277 501.413 929.59 503.9C928.53 504.9 926.51 506.17 926.02 507.56C925.53 508.95 927.62 510.16 928.63 510.98Z" fill="#A1616A"/>
<path d="M953.12 505.59C950.796 507.146 948.626 508.921 946.64 510.89C944.76 512.74 942.98 514.89 942.51 517.5C942.32 518.5 942.35 519.56 942.19 520.59C941.52 525.07 937.63 528.36 935.92 532.59C935.419 533.883 935.051 535.223 934.82 536.59C934.341 539.184 934.08 541.813 934.04 544.45C934.04 547.01 936.5 548.77 937.42 551.16C938.185 553.528 938.73 555.962 939.05 558.43C940.052 563.032 941.42 567.546 943.14 571.93C946.52 581.26 957.47 607.06 960.85 616.4C971.2 613.8 998.76 607.83 1007.92 602.4C1010.98 600.58 986.72 580.02 989.99 578.6C990.366 578.486 990.689 578.241 990.9 577.91C991.008 577.585 991.008 577.235 990.9 576.91C987.64 562.62 977.41 550.91 972.78 536.91C971.17 532.08 968.28 527.96 966.08 523.36C964.08 519.2 963.03 514.61 960.66 510.66C960.206 509.847 959.622 509.114 958.93 508.49C958.332 508.04 957.689 507.655 957.01 507.34C955.7 506.64 954.44 506.25 953.12 505.59Z" fill="#514E7F"/>
<path d="M929.18 509.35C938.127 509.35 945.38 502.097 945.38 493.15C945.38 484.203 938.127 476.95 929.18 476.95C920.233 476.95 912.98 484.203 912.98 493.15C912.98 502.097 920.233 509.35 929.18 509.35Z" fill="#A1616A"/>
<path d="M945.66 500.76C946.468 500.016 947.483 499.535 948.57 499.379C949.657 499.224 950.766 499.402 951.75 499.89C952.315 500.133 952.791 500.543 953.115 501.065C953.438 501.588 953.594 502.197 953.56 502.81L961.56 502.93C962.839 502.901 964.118 503.018 965.37 503.28C966.631 503.556 967.755 504.263 968.55 505.28C968.65 505.41 968.76 505.56 968.92 505.59C969.054 505.586 969.183 505.541 969.29 505.46C970.524 504.833 971.915 504.582 973.29 504.74C977.63 505.02 981.65 507.2 985.05 509.91C985.675 510.329 986.163 510.924 986.45 511.62C986.73 512.53 986.45 513.7 987.11 514.32C987.11 521.87 989.7 528.9 991.43 536.25C991.73 537.56 992.99 538.71 993.86 539.74C994.938 540.879 995.817 542.19 996.46 543.62C997.92 547.43 995.9 551.9 997.33 555.73C998.054 557.296 998.982 558.758 1000.09 560.08C1001.38 561.701 1002.19 563.646 1002.44 565.7C1002.5 566.62 1002.38 567.54 1002.44 568.47C1002.53 569.704 1002.75 570.925 1003.1 572.11C1003.68 574.32 1004.3 576.53 1004.94 578.73C1005.94 582.29 1007.34 586.14 1010.53 588.04C1002.82 589.35 994.7 590.62 987.35 587.95C986.326 587.599 985.354 587.112 984.46 586.5C981.81 584.61 980.53 581.37 979.39 578.32C978.11 574.89 976.81 571.41 976.55 567.76C976.558 566.593 976.396 565.431 976.07 564.31C975.32 562.31 973.34 561.12 971.52 560.02C969.482 558.9 967.636 557.462 966.05 555.76C965.261 554.902 964.657 553.892 964.275 552.791C963.893 551.69 963.742 550.522 963.83 549.36C963.97 548.23 964.41 547.14 964.46 546C964.528 545.432 964.414 544.858 964.133 544.36C963.853 543.862 963.421 543.466 962.9 543.23C957.29 541.53 954.61 534.89 953.36 529.16C952.818 526.192 952.577 523.177 952.64 520.16L952.57 514.37C951.795 513.667 951.171 512.813 950.738 511.86C950.305 510.908 950.071 509.876 950.05 508.83C950.14 508.223 950.14 507.607 950.05 507C949.786 506.242 949.347 505.557 948.77 505C947.519 503.758 946.469 502.327 945.66 500.76Z" fill="#464353"/>
<path d="M928.4 519.29C928.22 521.1 928.63 522.95 928.22 524.73C928.06 525.41 927.79 526.06 927.59 526.73C926.986 529.283 927.25 531.964 928.34 534.35C929.426 536.715 930.729 538.974 932.23 541.1C932.745 541.82 933.165 542.603 933.48 543.43C933.74 544.299 933.901 545.195 933.96 546.1C934.356 549.719 934.994 553.307 935.87 556.84C936.63 559.92 937.62 563.03 939.65 565.47C940.02 566.005 940.576 566.383 941.21 566.53C941.669 566.546 942.126 566.45 942.54 566.25L946.68 564.68C947.044 564.574 947.384 564.397 947.68 564.16C948.058 563.705 948.264 563.131 948.26 562.54C948.55 559.2 947.55 555.89 946.44 552.73C943.08 543.19 938.62 534 936.44 524.13C935.83 521.37 935.51 517.13 933.5 514.98C932.67 514.08 932.95 514.46 931.96 514.98C931.46 515.205 930.976 515.462 930.51 515.75C929.915 516.144 929.416 516.666 929.051 517.279C928.686 517.892 928.463 518.579 928.4 519.29Z" fill="#464353"/>
<path d="M940.88 537.39C941.98 543.21 943.103 549.033 944.25 554.86L960.33 550.64C960.46 548.96 959.56 547.4 958.94 545.83C957.47 542.15 957.44 538.06 956.25 534.28C955.35 531.4 953.79 528.75 952.95 525.85C952.46 524.17 952.22 522.41 951.74 520.72C951.22 519.05 950.588 517.416 949.85 515.83C948.942 513.528 947.764 511.343 946.34 509.32C944.28 510.09 942.09 510.98 940.92 512.83C940.309 513.884 939.966 515.072 939.92 516.29C939.64 519.91 940.92 523.54 940.51 527.12C940.079 530.541 940.204 534.009 940.88 537.39Z" fill="#FF00AC"/>
<path d="M960.6 614.98C961.5 618.42 960.19 621.98 959.13 625.4C957.52 630.509 956.421 635.764 955.85 641.09C955.792 642.458 955.519 643.808 955.04 645.09C954.444 646.189 953.793 647.257 953.09 648.29C951.47 651.15 951.51 654.65 951.86 657.92C952.09 660.08 952.44 662.23 952.86 664.36C953.39 666.95 954.04 669.67 953.28 672.2C954.55 671.92 955.42 673.56 955.37 674.87C955.32 676.18 954.86 677.58 955.48 678.73C957.06 679.3 957.08 681.47 957.03 683.14C957.054 686.053 957.419 688.953 958.12 691.78C960.506 703.24 963.04 714.67 965.72 726.07C971.51 727.87 978.27 729.74 983.79 727.25C984.327 727.076 984.815 726.777 985.213 726.377C985.611 725.977 985.908 725.488 986.08 724.95C986.136 724.351 986.061 723.747 985.86 723.18L983.24 713.66C982.455 711.415 982.135 709.033 982.3 706.66C982.56 704.89 983.3 702.99 982.46 701.44C982.16 700.91 981.7 700.44 981.36 699.98C979.98 697.98 980.7 695.29 980.82 692.85C980.86 692.304 980.82 691.755 980.7 691.22C980.512 690.596 980.254 689.995 979.93 689.43C977.772 685.232 976.739 680.546 976.93 675.83C977.014 675.226 976.931 674.61 976.69 674.05C976.519 673.826 976.371 673.585 976.25 673.33C976.141 672.89 976.191 672.427 976.39 672.02C975.604 671.446 974.895 670.774 974.28 670.02C974.653 669.777 974.967 669.455 975.199 669.076C975.432 668.697 975.578 668.271 975.626 667.829C975.674 667.386 975.622 666.939 975.476 666.519C975.33 666.099 975.092 665.717 974.78 665.4C975.06 665.345 975.319 665.213 975.529 665.02C975.738 664.826 975.89 664.578 975.966 664.303C976.043 664.028 976.042 663.737 975.963 663.463C975.884 663.189 975.731 662.942 975.52 662.75C975.18 662.51 974.74 662.41 974.52 662.07C974.15 661.57 974.45 660.86 974.75 660.32L976.35 657.43C977.54 655.29 977.81 652.64 979.09 650.55C980.821 647.492 982.235 644.265 983.31 640.92L987.87 628.22L990.97 630.91C992.006 631.699 992.874 632.689 993.52 633.82C993.961 634.934 994.238 636.106 994.34 637.3C995.48 644.2 999.83 650.18 1001.44 656.99C1001.66 658.531 1002.16 660.02 1002.9 661.39C1003.21 661.787 1003.49 662.208 1003.74 662.65C1003.97 663.323 1004.09 664.029 1004.09 664.74C1004.23 666.134 1004.67 667.481 1005.38 668.689C1006.09 669.897 1007.05 670.937 1008.2 671.74C1009.72 672.74 1011.65 673.51 1012.45 675.17C1012.62 675.683 1012.86 676.173 1013.15 676.63C1013.89 677.52 1015.49 677.63 1015.81 678.74C1015.98 679.37 1015.65 680.11 1016.01 680.66C1016.2 680.911 1016.46 681.105 1016.76 681.22L1021.23 683.46C1026.23 685.95 1028.75 691.66 1032.44 695.85C1033.71 697.205 1034.84 698.693 1035.79 700.29C1037.38 703.13 1038.12 706.7 1040.79 708.53C1041.51 708.906 1042.16 709.392 1042.73 709.97C1043.58 711.08 1043.27 712.64 1043.34 714.04C1043.41 715.44 1044.49 717.1 1045.82 716.68C1045.35 718.371 1045.35 720.159 1045.82 721.85C1051.65 721.548 1057.22 719.294 1061.62 715.45C1062.92 714.31 1064.18 712.86 1064.19 711.14C1064.2 710.841 1064.14 710.544 1064 710.28C1063.74 709.94 1063.4 709.677 1063 709.52C1058.83 707.26 1057.57 702.02 1055.48 697.76C1053.63 694.01 1050.91 690.76 1048.6 687.28C1043.6 679.78 1040.26 670.71 1032.75 665.75C1031.1 664.66 1029.18 663.69 1028.36 661.89C1028.01 660.84 1027.72 659.772 1027.48 658.69C1027.34 658.156 1027.04 657.677 1026.62 657.32C1026.2 656.962 1025.68 656.742 1025.13 656.69C1025.6 655.068 1025.79 653.376 1025.67 651.69C1025.71 650.964 1025.63 650.237 1025.42 649.54C1025.14 648.793 1024.77 648.081 1024.32 647.42C1022.36 644.092 1021.38 640.28 1021.49 636.42C1021.55 634.42 1021.9 632.42 1021.3 630.51C1021 629.51 1020.48 628.68 1020.11 627.75C1019.56 626.087 1019.27 624.35 1019.25 622.6L1018.84 616.01C1018.78 613.816 1018.5 611.635 1017.99 609.5C1016.6 604.39 1015.27 582.98 1010.56 580.57C1005.85 578.16 997.81 594.63 992.56 594.96C990.214 595.061 987.896 595.506 985.68 596.28C982.17 597.6 979.22 600.06 976.35 602.47L966.63 610.63C964.778 612.288 962.757 613.746 960.6 614.98Z" fill="#464353"/>
<path d="M913.97 475.16C915.102 473.741 916.535 472.592 918.166 471.796C919.797 471.001 921.585 470.578 923.4 470.56C927.037 470.559 930.617 471.459 933.82 473.18C934.766 473.717 935.773 474.136 936.82 474.43C938.54 474.78 940.44 474.31 941.99 475.13C944.05 476.22 944.44 479 944.26 481.32C944.08 483.64 943.65 486.18 944.88 488.17C945.31 488.741 945.707 489.335 946.07 489.95C946.453 491.198 946.414 492.537 945.96 493.76C945.25 492.959 944.582 492.121 943.96 491.25C943.24 490.46 942.01 489.92 941.13 490.51C940.25 491.1 940.25 492.19 940.21 493.16C940.17 494.13 939.91 495.3 938.99 495.62C938.615 495.691 938.228 495.654 937.873 495.512C937.519 495.37 937.212 495.13 936.99 494.82C935.42 492.9 936.05 489.82 934.5 487.9C933.61 486.8 932.14 486.27 931.32 485.12C930.68 484.22 930.52 483.05 929.96 482.12C929.4 481.19 928.09 480.43 927.21 481.12C926.913 481.41 926.666 481.748 926.48 482.12C925.937 482.896 925.148 483.466 924.241 483.738C923.333 484.011 922.361 483.969 921.48 483.62C920.802 483.214 920.072 482.901 919.31 482.69C918.815 482.662 918.321 482.772 917.885 483.009C917.448 483.245 917.087 483.599 916.84 484.03C916.36 484.904 916.135 485.895 916.19 486.89C916.19 488.24 916.43 489.72 915.65 490.82C915.33 491.224 914.937 491.563 914.49 491.82C913.34 492.55 911.77 493.04 910.69 492.21C910.333 491.876 910.067 491.456 909.918 490.991C909.77 490.525 909.743 490.029 909.84 489.55C910.047 488.596 910.318 487.658 910.65 486.74C911.25 484.62 910.47 482.23 911.13 480.23C911.831 478.414 912.787 476.706 913.97 475.16Z" fill="#464353"/>
<path d="M922.65 523.49C922.546 523.99 922.599 524.51 922.8 524.98C923.005 525.3 923.282 525.567 923.61 525.76C925.919 527.189 928.541 528.037 931.25 528.23C931.599 528.243 931.941 528.335 932.25 528.5C932.535 528.765 932.732 529.112 932.812 529.494C932.893 529.875 932.854 530.272 932.7 530.63C932.386 531.342 932.223 532.112 932.22 532.89C932.42 534.32 934.11 534.97 935.55 535.15C937.552 535.558 939.634 535.155 941.34 534.03C942.418 533.047 943.239 531.814 943.73 530.44C947.66 521.44 949.04 511.44 953.02 502.44C953.327 501.856 953.53 501.223 953.62 500.57C953.662 500.242 953.615 499.909 953.485 499.605C953.355 499.3 953.146 499.037 952.88 498.84C952.14 498.38 950.99 498.64 950.49 497.93C950.24 497.56 950.27 497.07 950.05 496.69C949.59 495.87 948.39 495.97 947.56 495.53C946.92 495.18 946.47 494.53 945.76 494.34C945.405 494.321 945.051 494.384 944.725 494.524C944.399 494.665 944.109 494.879 943.88 495.15C941.55 497.33 940.32 500.42 939.02 503.34C937.015 507.814 934.675 512.129 932.02 516.25C932.33 515.77 930.54 512.12 929.84 511.98C928.62 511.73 927.04 513.88 926.38 514.69C924.328 517.211 923.035 520.263 922.65 523.49Z" fill="#FF00AC"/>
<path d="M1008.86 536.29H930.83V614.32H1008.86V536.29Z" fill="white"/>
<path d="M970.45 562.49V552.25H944.87V598.35H994.82V562.49H970.45ZM955.1 593.22H949.99V588.1H955.1V593.22ZM955.1 582.98H949.99V577.86H955.1V582.98ZM955.1 572.74H949.99V567.61H955.1V572.74ZM955.1 562.49H949.99V557.36H955.1V562.49ZM965.33 593.22H960.23V588.1H965.34L965.33 593.22ZM965.33 582.98H960.23V577.86H965.34L965.33 582.98ZM965.33 572.74H960.23V567.61H965.34L965.33 572.74ZM965.33 562.49H960.23V557.36H965.34L965.33 562.49ZM989.71 593.22H970.45V588.1H975.56V582.98H970.45V577.86H975.56V572.73H970.45V567.61H989.71V593.22ZM985.23 572.74H980.12V577.87H985.23V572.74ZM985.23 582.98H980.12V588.11H985.23V582.98Z" fill="#FF00AC"/>
<path d="M1008.23 579.27C1006.89 580.456 1005.65 581.754 1004.53 583.15C1003.39 584.565 1002.79 586.335 1002.83 588.15C1002.84 588.674 1003 589.184 1003.31 589.61C1003.47 589.818 1003.69 589.971 1003.94 590.048C1004.19 590.125 1004.45 590.122 1004.7 590.04C1004.97 589.892 1005.2 589.683 1005.38 589.43C1006.1 588.557 1006.87 587.722 1007.68 586.93C1007.98 586.64 1008.36 586.33 1008.76 586.44C1008.94 586.502 1009.1 586.609 1009.23 586.75C1009.7 587.146 1010.05 587.67 1010.23 588.26C1010.28 588.793 1010.21 589.332 1010.03 589.836C1009.85 590.339 1009.55 590.795 1009.17 591.17C1008.39 591.915 1007.78 592.819 1007.38 593.82C1007.27 594.093 1007.27 594.397 1007.38 594.67C1007.51 594.866 1007.7 595.025 1007.91 595.13C1008.89 595.665 1009.98 595.98 1011.1 596.052C1012.22 596.125 1013.34 595.953 1014.38 595.55C1015.77 595 1016.97 594.04 1018.38 593.55C1018.99 593.389 1019.58 593.168 1020.15 592.89C1020.55 592.624 1020.9 592.28 1021.17 591.878C1021.44 591.476 1021.63 591.025 1021.72 590.55C1021.9 589.597 1021.93 588.624 1021.83 587.66C1021.65 583.916 1020.84 580.23 1019.42 576.76C1019.35 576.535 1019.21 576.334 1019.03 576.18C1018.83 576.062 1018.6 575.996 1018.37 575.99C1016.62 575.81 1013.74 574.91 1012.05 575.56C1011.46 575.881 1010.95 576.336 1010.56 576.89C1010.17 577.24 1008.23 578.81 1008.23 579.27Z" fill="#A1616A"/>
<path d="M1007.63 577.72C1007.63 576.04 1005.55 572.01 1008.84 571.72C1008.84 569.94 1006.31 568.82 1006.77 566.94C1006.93 566.3 1007.44 565.79 1007.52 565.15C1007.73 563.32 1004.43 562.33 1004.97 560.57C1005.17 559.9 1005.9 559.49 1006.06 558.81C1006.43 557.23 1003.6 556.52 1003.55 554.9C1003.55 554.35 1003.85 553.83 1003.83 553.29C1003.83 552.6 1003.23 552.08 1002.9 551.49C1002.05 549.96 1002.46 547.59 1000.9 546.81C1001.9 546.89 1002.29 545.36 1001.85 544.42C1001.41 543.48 1000.55 542.67 1000.55 541.63C1000.6 541.248 1000.6 540.862 1000.55 540.48C1000.26 539.48 998.62 539.41 998.35 538.41C998.33 538.034 998.33 537.656 998.35 537.28C998.25 536.5 997.45 536.02 996.7 535.79C995.926 535.664 995.181 535.399 994.5 535.01C994.02 534.64 993.5 534.01 992.95 534.36C992.76 534.47 992.66 534.69 992.51 534.86C991.9 535.57 990.73 535.26 989.95 534.73C987.66 533.18 986.53 530.39 986.03 527.67C985.53 524.95 985.56 522.14 984.96 519.44C984.773 518.604 984.529 517.782 984.23 516.98C983.757 516.204 983.368 515.379 983.07 514.52C982.95 512.95 986.21 514.02 987.45 514.18C988.655 514.292 989.847 514.516 991.01 514.85C992.247 515.316 993.459 515.847 994.64 516.44C999.64 518.63 1005.56 518.9 1009.54 522.57C1010.85 523.78 1011.95 525.36 1013.64 525.9C1014.42 526.056 1015.19 526.257 1015.94 526.5C1017.83 527.39 1018.12 529.89 1019.15 531.7C1019.47 532.177 1019.76 532.679 1020 533.2C1020.2 533.821 1020.29 534.469 1020.27 535.12L1020.41 539.87C1020.64 547.87 1020.88 555.8 1020.03 563.71C1019.75 566.31 1019.36 569 1020.12 571.51C1020.32 572.19 1020.61 572.84 1020.78 573.51C1020.94 574.324 1021.03 575.15 1021.04 575.98L1021.15 579.05C1021.19 579.297 1021.14 579.55 1021 579.76C1020.89 579.853 1020.75 579.918 1020.61 579.953C1020.46 579.988 1020.31 579.99 1020.17 579.96C1015.88 579.58 1011.56 577.16 1007.51 578.62" fill="#464353"/>
<path d="M927.89 565.19C927.7 565.283 927.535 565.42 927.41 565.59C926.975 566.177 926.74 566.889 926.74 567.62C926.74 568.351 926.975 569.063 927.41 569.65C927.512 569.769 927.593 569.904 927.65 570.05C927.678 570.284 927.637 570.52 927.53 570.73C927.322 571.132 927.24 571.588 927.295 572.038C927.351 572.488 927.54 572.91 927.84 573.25C928.15 573.51 928.57 573.64 928.77 573.98C929.12 574.56 928.63 575.3 928.71 575.98C928.81 576.87 929.86 577.31 930.71 577.42C931.052 577.501 931.41 577.496 931.75 577.406C932.091 577.315 932.403 577.141 932.66 576.9C932.831 576.637 932.923 576.329 932.923 576.015C932.923 575.701 932.831 575.393 932.66 575.13C932.312 574.607 931.863 574.158 931.34 573.81C931.823 573.785 932.281 573.586 932.628 573.249C932.976 572.913 933.189 572.462 933.23 571.98C933.265 571.502 933.179 571.024 932.98 570.588C932.78 570.153 932.474 569.775 932.09 569.49C931.91 569.34 931.69 569.19 931.64 568.95C931.59 568.71 931.83 568.38 932.05 568.15C933.05 567.15 933.82 564.7 931.94 564.15C931.275 564.034 930.592 564.064 929.94 564.24C929.46 564.39 929.46 564.68 929.09 564.88C928.72 565.08 928.31 564.98 927.89 565.19Z" fill="#A1616A"/>
<path opacity="0.1" d="M947.54 496.12C947.048 496.13 946.564 496.251 946.125 496.472C945.685 496.694 945.301 497.011 945 497.4C944.372 498.429 944.008 499.597 943.94 500.8C943.329 504.647 941.97 508.336 939.94 511.66" fill="black"/>
<path opacity="0.1" d="M951.04 498.86C950.36 498.873 949.695 499.065 949.112 499.416C948.529 499.767 948.049 500.265 947.72 500.86C947.263 501.939 946.979 503.083 946.88 504.25C946.294 506.832 945.158 509.257 943.55 511.36" fill="black"/>
<path d="M305.89 562.57C306.47 568.89 301.7 575.01 303.09 581.19C303.39 582.51 303.96 583.76 304.17 585.09C304.74 588.76 302.55 592.24 300.46 595.31L282.52 621.65C281.793 622.806 280.93 623.87 279.95 624.82C276.51 627.82 271.37 627.55 266.86 628.46C263.695 629.108 260.707 630.431 258.1 632.34C257.981 632.43 257.901 632.563 257.879 632.71C257.856 632.858 257.893 633.009 257.98 633.13C258.726 634.143 259.713 634.953 260.852 635.488C261.99 636.022 263.244 636.263 264.5 636.19C264.97 636.81 264.5 637.72 263.85 638.19C262.85 638.86 261.56 639.03 261.37 640.67C261.302 641.238 261.418 641.813 261.7 642.31C262.422 643.419 263.549 644.201 264.84 644.49C271.05 646.39 277.77 643.06 282.41 638.49C287.05 633.92 290.41 628.22 294.97 623.59C297.5 621.04 300.37 618.84 302.97 616.36C308.17 611.42 312.2 605.36 316.1 599.36C317.371 597.61 318.332 595.655 318.94 593.58C319.42 591.52 319.2 589.35 319.76 587.31C320.48 584.65 322.44 582.52 324.06 580.31C327.25 575.93 329.37 570.56 328.95 565.16C328.53 559.76 325.19 554.42 320.09 552.59C318.501 551.949 316.746 551.84 315.09 552.28C313 552.93 311.46 554.66 310.03 556.28L306.63 560.22C305.77 561.076 305.09 562.096 304.63 563.22C304.412 563.786 304.361 564.404 304.486 564.998C304.61 565.593 304.903 566.138 305.33 566.57" fill="#FBBEBE"/>
<path opacity="0.05" d="M305.89 562.57C306.47 568.89 301.7 575.01 303.09 581.19C303.39 582.51 303.96 583.76 304.17 585.09C304.74 588.76 302.55 592.24 300.46 595.31L282.52 621.65C281.793 622.806 280.93 623.87 279.95 624.82C276.51 627.82 271.37 627.55 266.86 628.46C263.695 629.108 260.707 630.431 258.1 632.34C257.981 632.43 257.901 632.563 257.879 632.71C257.856 632.858 257.893 633.009 257.98 633.13C258.726 634.143 259.713 634.953 260.852 635.488C261.99 636.022 263.244 636.263 264.5 636.19C264.97 636.81 264.5 637.72 263.85 638.19C262.85 638.86 261.56 639.03 261.37 640.67C261.302 641.238 261.418 641.813 261.7 642.31C262.422 643.419 263.549 644.201 264.84 644.49C271.05 646.39 277.77 643.06 282.41 638.49C287.05 633.92 290.41 628.22 294.97 623.59C297.5 621.04 300.37 618.84 302.97 616.36C308.17 611.42 312.2 605.36 316.1 599.36C317.371 597.61 318.332 595.655 318.94 593.58C319.42 591.52 319.2 589.35 319.76 587.31C320.48 584.65 322.44 582.52 324.06 580.31C327.25 575.93 329.37 570.56 328.95 565.16C328.53 559.76 325.19 554.42 320.09 552.59C318.501 551.949 316.746 551.84 315.09 552.28C313 552.93 311.46 554.66 310.03 556.28L306.63 560.22C305.77 561.076 305.09 562.096 304.63 563.22C304.412 563.786 304.361 564.404 304.486 564.998C304.61 565.593 304.903 566.138 305.33 566.57" fill="black"/>
<path d="M169.23 589.42C170.23 592.58 171.23 595.74 172.44 598.82C174.651 604.16 177.437 609.244 180.75 613.98C182.883 617.097 185.176 620.101 187.62 622.98C190.68 626.59 194.1 630.22 195.18 634.83C195.81 637.49 195.6 640.28 195.86 643C196.12 645.72 197.01 648.61 199.21 650.24C200.88 651.274 202.772 651.897 204.73 652.06C206.11 652.28 207.84 652.35 208.56 651.15C208.812 650.662 208.942 650.12 208.94 649.57L209.28 645.57C209.35 644.71 209.65 643.57 210.51 643.57C211.37 643.57 211.81 644.68 212.51 645.19C212.771 645.331 213.057 645.416 213.352 645.442C213.648 645.467 213.945 645.432 214.226 645.339C214.507 645.245 214.766 645.095 214.987 644.897C215.208 644.7 215.386 644.459 215.51 644.19C215.957 643.071 215.986 641.828 215.59 640.69C214.992 638.427 213.924 636.315 212.454 634.494C210.984 632.672 209.146 631.182 207.06 630.12C205.61 629.525 204.217 628.799 202.9 627.95C201.562 626.793 200.453 625.396 199.63 623.83C192.07 611.38 184.47 598.83 179.13 585.32C178.078 582.9 177.368 580.345 177.02 577.73C176.911 575.059 177.022 572.383 177.35 569.73C177.662 564.93 177.217 560.111 176.03 555.45C175.77 554.225 175.307 553.052 174.66 551.98C172.47 548.64 167.3 548.15 164.04 550.45C162.84 551.375 161.846 552.538 161.119 553.867C160.393 555.196 159.95 556.661 159.82 558.17C159.58 560.86 161.14 563.67 161.93 566.17C164.376 573.917 166.81 581.667 169.23 589.42Z" fill="#A1616A"/>
<path opacity="0.05" d="M169.23 589.42C170.23 592.58 171.23 595.74 172.44 598.82C174.651 604.16 177.437 609.244 180.75 613.98C182.883 617.097 185.176 620.101 187.62 622.98C190.68 626.59 194.1 630.22 195.18 634.83C195.81 637.49 195.6 640.28 195.86 643C196.12 645.72 197.01 648.61 199.21 650.24C200.88 651.274 202.772 651.897 204.73 652.06C206.11 652.28 207.84 652.35 208.56 651.15C208.812 650.662 208.942 650.12 208.94 649.57L209.28 645.57C209.35 644.71 209.65 643.57 210.51 643.57C211.37 643.57 211.81 644.68 212.51 645.19C212.771 645.331 213.057 645.416 213.352 645.442C213.648 645.467 213.945 645.432 214.226 645.339C214.507 645.245 214.766 645.095 214.987 644.897C215.208 644.7 215.386 644.459 215.51 644.19C215.957 643.071 215.986 641.828 215.59 640.69C214.992 638.427 213.924 636.315 212.454 634.494C210.984 632.672 209.146 631.182 207.06 630.12C205.61 629.525 204.217 628.799 202.9 627.95C201.562 626.793 200.453 625.396 199.63 623.83C192.07 611.38 184.47 598.83 179.13 585.32C178.078 582.9 177.368 580.345 177.02 577.73C176.911 575.059 177.022 572.383 177.35 569.73C177.662 564.93 177.217 560.111 176.03 555.45C175.77 554.225 175.307 553.052 174.66 551.98C172.47 548.64 167.3 548.15 164.04 550.45C162.84 551.375 161.846 552.538 161.119 553.867C160.393 555.196 159.95 556.661 159.82 558.17C159.58 560.86 161.14 563.67 161.93 566.17C164.376 573.917 166.81 581.667 169.23 589.42Z" fill="black"/>
<path d="M320.98 708.16C317.06 710.55 312.18 710.69 307.62 710.16C306.89 710.07 306.02 710.01 305.55 710.58C304.87 711.4 305.67 712.58 306.5 713.28C309.192 715.293 312.351 716.59 315.68 717.05C318.662 717.466 321.67 717.667 324.68 717.65C332.87 717.79 341.1 717.92 349.21 716.74C349.68 716.709 350.137 716.576 350.55 716.35C351.064 715.979 351.421 715.43 351.55 714.81C351.747 713.734 351.652 712.625 351.276 711.598C350.9 710.572 350.255 709.664 349.41 708.97C347.705 707.608 345.767 706.568 343.69 705.9L336.57 703.13C334.9 702.48 332.21 700.75 330.4 700.89C327.04 701.11 323.81 706.5 320.98 708.16Z" fill="#3F3D56"/>
<path d="M338.87 724.89C335.59 727.828 331.323 729.421 326.92 729.35C325.8 729.35 324.24 729.56 324.24 730.68C324.256 731.014 324.367 731.337 324.56 731.61C325.955 733.928 328.155 735.652 330.74 736.45C333.182 737.031 335.705 737.19 338.2 736.92L345.5 736.54C346.88 736.47 348.27 736.4 349.64 736.23C351.01 736.06 352.5 735.78 353.93 735.56C357.45 735.063 361.009 734.896 364.56 735.06C365.021 735.15 365.497 735.134 365.951 735.013C366.405 734.891 366.826 734.668 367.18 734.36C367.83 733.54 367.45 732.36 367.24 731.36C366.8 729.25 367.24 727.03 366.83 724.9C366.13 721.18 362.93 718.32 359.38 716.97C356.1 715.72 350.28 714.29 347.17 716.37C343.83 718.58 341.82 722.22 338.87 724.89Z" fill="#3F3D56"/>
<path d="M324.45 630.43C321.45 634.38 318.45 638.94 319.15 643.82C319.55 646.45 321.02 648.77 322.1 651.21C323.457 654.557 324.463 658.035 325.1 661.59C326.21 666.76 327.32 671.94 328.01 677.18C328.776 683.114 328.994 689.106 328.66 695.08C328.57 696.52 328.41 698.08 327.41 699.08C327.01 699.48 326.49 699.81 326.32 700.35C326.212 700.861 326.294 701.395 326.55 701.85C328.382 705.601 331.56 708.525 335.45 710.04C339.313 711.521 343.413 712.287 347.55 712.3C348.099 712.363 348.655 712.291 349.17 712.09C349.725 711.755 350.162 711.255 350.42 710.66C353.42 704.96 351.75 698.08 351.8 691.66C351.8 686.29 353.1 680.97 352.87 675.6C352.68 671.3 351.53 667.1 351.11 662.81C350.42 655.81 351.71 648.71 353 641.76C354 636.44 355 631.11 356.25 625.84C356.886 622.593 358.048 619.472 359.69 616.6C361.09 614.39 362.99 612.54 364.59 610.46C369.015 604.65 370.983 597.336 370.07 590.09C369.97 589.37 359.77 592.67 358.89 593.09C355.213 594.635 351.83 596.804 348.89 599.5C346.53 601.74 344.68 604.74 342.61 607.26C339.69 610.813 336.817 614.387 333.99 617.98C330.763 622.1 327.583 626.25 324.45 630.43Z" fill="#464353"/>
<path opacity="0.05" d="M324.45 630.43C321.45 634.38 318.45 638.94 319.15 643.82C319.55 646.45 321.02 648.77 322.1 651.21C323.457 654.557 324.463 658.035 325.1 661.59C326.21 666.76 327.32 671.94 328.01 677.18C328.776 683.114 328.994 689.106 328.66 695.08C328.57 696.52 328.41 698.08 327.41 699.08C327.01 699.48 326.49 699.81 326.32 700.35C326.212 700.861 326.294 701.395 326.55 701.85C328.382 705.601 331.56 708.525 335.45 710.04C339.313 711.521 343.413 712.287 347.55 712.3C348.099 712.363 348.655 712.291 349.17 712.09C349.725 711.755 350.162 711.255 350.42 710.66C353.42 704.96 351.75 698.08 351.8 691.66C351.8 686.29 353.1 680.97 352.87 675.6C352.68 671.3 351.53 667.1 351.11 662.81C350.42 655.81 351.71 648.71 353 641.76C354 636.44 355 631.11 356.25 625.84C356.886 622.593 358.048 619.472 359.69 616.6C361.09 614.39 362.99 612.54 364.59 610.46C369.015 604.65 370.983 597.336 370.07 590.09C369.97 589.37 359.77 592.67 358.89 593.09C355.213 594.635 351.83 596.804 348.89 599.5C346.53 601.74 344.68 604.74 342.61 607.26C339.69 610.813 336.817 614.387 333.99 617.98C330.763 622.1 327.583 626.25 324.45 630.43Z" fill="black"/>
<path d="M346.11 600.05C346.75 603.11 349.72 605.45 349.8 608.58C349.87 611.08 348.09 613.18 346.8 615.33C345.588 617.554 344.564 619.875 343.74 622.27C341.311 628.498 338.298 634.481 334.74 640.14C333.03 642.86 331.11 645.81 331.51 649C331.778 650.489 332.303 651.92 333.06 653.23L338.2 663.44C339.327 665.478 340.206 667.643 340.82 669.89C341.27 671.83 341.31 673.89 341.57 675.81C342.38 682.07 345.31 688.37 343.57 694.44C343.42 694.96 342.87 695.59 342.46 695.23C344.16 698.4 345.53 701.6 345.39 705.23C345.33 707.12 344.75 709.08 345.45 710.84C345.842 711.498 346.106 712.224 346.23 712.98C346.23 713.49 345.99 713.98 345.94 714.49C345.8 715.93 347.12 717.14 348.5 717.6C349.88 718.06 351.38 718.03 352.77 718.44C355.45 719.24 357.35 721.54 359.65 723.14C361.972 724.75 364.715 725.643 367.54 725.71C367.941 725.752 368.345 725.672 368.7 725.48C368.902 725.304 369.064 725.087 369.176 724.844C369.288 724.601 369.347 724.338 369.35 724.07C369.473 722.79 369.279 721.499 368.786 720.311C368.292 719.124 367.514 718.076 366.52 717.26C366.104 716.978 365.761 716.601 365.52 716.16C365.391 715.763 365.357 715.342 365.42 714.93C365.84 709.316 365.74 703.675 365.12 698.08C364.849 696.307 364.762 694.511 364.86 692.72C365.156 691.249 365.3 689.751 365.29 688.25C364.975 686.785 364.516 685.355 363.92 683.98C363.13 681.43 363.35 678.69 363.27 675.98C362.971 671.353 362.214 666.767 361.01 662.29C360.746 660.485 360.011 658.781 358.88 657.35C357.81 656.23 356.08 655.17 356.49 653.68C356.717 653.128 357.058 652.631 357.49 652.22C357.988 651.598 358.354 650.88 358.566 650.112C358.777 649.343 358.83 648.54 358.72 647.75C359.169 647.864 359.644 647.819 360.064 647.622C360.483 647.425 360.821 647.089 361.02 646.67C369.519 642.465 376.016 635.077 379.1 626.11C379.277 625.463 379.55 624.846 379.91 624.28C380.68 623.2 382.03 622.73 383.22 622.13C386.96 620.25 389.54 616.72 391.91 613.27C393.401 611.342 394.539 609.165 395.27 606.84C395.594 605.315 395.748 603.759 395.73 602.2L395.94 594.2C395.981 593.672 395.93 593.141 395.79 592.63C395.586 592.151 395.291 591.716 394.92 591.35C392.638 588.944 389.645 587.332 386.38 586.75C384.19 586.36 381.95 586.43 379.73 586.25C375.43 585.89 371.18 584.56 366.87 584.87C360.11 585.37 354.09 590.06 350.87 596.04C349.69 598.18 348.51 599.98 346.11 600.05Z" fill="#464353"/>
<path d="M121.72 722.52C123.196 723.031 124.765 723.219 126.32 723.07C126.43 721.8 128.14 721.52 129.41 721.58C130.041 721.549 130.67 721.687 131.23 721.98C131.55 722.18 131.79 722.48 132.1 722.69C132.652 722.992 133.271 723.15 133.9 723.15L140.52 723.71C143.47 723.96 146.52 724.19 149.3 723.13C149.854 722.966 150.345 722.638 150.71 722.19C151.46 721.12 150.71 719.58 149.71 718.8C148.71 718.02 147.34 717.66 146.3 716.86C144 715.11 143.69 711.86 142.47 709.22C141.615 707.562 140.553 706.02 139.31 704.63C138.407 703.434 137.355 702.359 136.18 701.43C133.53 699.51 130.47 699.55 127.36 699.28C125.16 699.08 123.09 698.95 121.51 700.9C119.56 703.32 120.34 708.2 120.46 711.09C120.578 714.927 121 718.749 121.72 722.52Z" fill="#514E7F"/>
<path opacity="0.05" d="M121.72 722.52C123.196 723.031 124.765 723.219 126.32 723.07C126.43 721.8 128.14 721.52 129.41 721.58C130.041 721.549 130.67 721.687 131.23 721.98C131.55 722.18 131.79 722.48 132.1 722.69C132.652 722.992 133.271 723.15 133.9 723.15L140.52 723.71C143.47 723.96 146.52 724.19 149.3 723.13C149.854 722.966 150.345 722.638 150.71 722.19C151.46 721.12 150.71 719.58 149.71 718.8C148.71 718.02 147.34 717.66 146.3 716.86C144 715.11 143.69 711.86 142.47 709.22C141.615 707.562 140.553 706.02 139.31 704.63C138.407 703.434 137.355 702.359 136.18 701.43C133.53 699.51 130.47 699.55 127.36 699.28C125.16 699.08 123.09 698.95 121.51 700.9C119.56 703.32 120.34 708.2 120.46 711.09C120.578 714.927 121 718.749 121.72 722.52Z" fill="black"/>
<path d="M124.4 593.84C122.4 594.49 121.5 597.01 121.87 599.11C122.24 601.21 123.5 603.01 124.54 604.86C127.48 610.13 128.76 616.16 131.23 621.66C133.08 625.77 135.58 629.57 137.41 633.66C139.24 637.75 140.41 642.43 139.26 646.8C138.72 648.93 137.68 650.89 136.98 652.97C136.296 655.252 135.847 657.597 135.64 659.97C134.745 667.992 134.585 676.079 135.16 684.13C135.169 685.115 135.377 686.087 135.77 686.99C136.18 687.79 136.9 688.63 136.55 689.46C136.41 689.79 136.11 690.03 135.96 690.36C135.54 691.28 136.39 692.24 137.16 692.89C137.023 693.136 136.837 693.352 136.613 693.524C136.39 693.696 136.133 693.821 135.86 693.89C136.417 694.244 136.845 694.767 137.081 695.383C137.317 695.999 137.348 696.675 137.17 697.31C136.48 697.41 136.44 698.46 136.88 699.01C137.32 699.56 137.99 699.91 138.3 700.53C138.484 701.042 138.465 701.604 138.248 702.102C138.03 702.601 137.63 702.997 137.13 703.21C136.114 703.605 135.004 703.689 133.94 703.45C132.132 703.201 130.346 702.81 128.6 702.28C128.011 702.136 127.454 701.881 126.96 701.53C126.079 700.674 125.554 699.517 125.49 698.29C125.081 694.973 124.958 691.628 125.12 688.29C125.41 672.13 125.12 655.95 124.42 639.8C124.13 633.3 122.18 626.96 119.66 620.96C118.272 617.881 116.723 614.877 115.02 611.96C111.4 605.3 108.18 597.96 109.02 590.41C109.11 589.6 109.41 588.62 110.21 588.49C110.525 588.455 110.843 588.507 111.13 588.64C112.803 589.427 114.423 590.322 115.98 591.32C118.542 592.829 121.431 593.693 124.4 593.84Z" fill="#464353"/>
<path opacity="0.05" d="M124.4 593.84C122.4 594.49 121.5 597.01 121.87 599.11C122.24 601.21 123.5 603.01 124.54 604.86C127.48 610.13 128.76 616.16 131.23 621.66C133.08 625.77 135.58 629.57 137.41 633.66C139.24 637.75 140.41 642.43 139.26 646.8C138.72 648.93 137.68 650.89 136.98 652.97C136.296 655.252 135.847 657.597 135.64 659.97C134.745 667.992 134.585 676.079 135.16 684.13C135.169 685.115 135.377 686.087 135.77 686.99C136.18 687.79 136.9 688.63 136.55 689.46C136.41 689.79 136.11 690.03 135.96 690.36C135.54 691.28 136.39 692.24 137.16 692.89C137.023 693.136 136.837 693.352 136.613 693.524C136.39 693.696 136.133 693.821 135.86 693.89C136.417 694.244 136.845 694.767 137.081 695.383C137.317 695.999 137.348 696.675 137.17 697.31C136.48 697.41 136.44 698.46 136.88 699.01C137.32 699.56 137.99 699.91 138.3 700.53C138.484 701.042 138.465 701.604 138.248 702.102C138.03 702.601 137.63 702.997 137.13 703.21C136.114 703.605 135.004 703.689 133.94 703.45C132.132 703.201 130.346 702.81 128.6 702.28C128.011 702.136 127.454 701.881 126.96 701.53C126.079 700.674 125.554 699.517 125.49 698.29C125.081 694.973 124.958 691.628 125.12 688.29C125.41 672.13 125.12 655.95 124.42 639.8C124.13 633.3 122.18 626.96 119.66 620.96C118.272 617.881 116.723 614.877 115.02 611.96C111.4 605.3 108.18 597.96 109.02 590.41C109.11 589.6 109.41 588.62 110.21 588.49C110.525 588.455 110.843 588.507 111.13 588.64C112.803 589.427 114.423 590.322 115.98 591.32C118.542 592.829 121.431 593.693 124.4 593.84Z" fill="black"/>
<path d="M97.0801 574.19C96.0249 573.517 94.8107 573.134 93.5601 573.08C92.1193 573.307 90.7827 573.97 89.7301 574.98C88.3945 576.012 87.1253 577.128 85.9301 578.32C83.4493 580.963 81.7202 584.221 80.9219 587.757C80.1237 591.293 80.2853 594.978 81.3901 598.43C82.6001 602.02 84.7901 605.19 86.9501 608.29L91.3501 614.61C98.0601 624.25 104.78 633.89 111.81 643.3C111.817 643.525 111.894 643.743 112.03 643.922C112.166 644.101 112.355 644.233 112.57 644.3C112.83 644.37 113.14 644.36 113.3 644.57C113.371 644.702 113.402 644.851 113.39 645C113.366 645.683 113.234 646.358 113 647C112.885 647.211 112.857 647.458 112.92 647.69C113.14 648.22 114.11 647.92 114.41 648.42C114.62 648.74 114.41 649.17 114.09 649.42C113.77 649.67 113.49 650.01 113.54 650.42C113.59 650.83 114.26 651.21 114.23 651.71C114.23 651.99 113.99 652.2 113.82 652.42C113.58 652.77 113.471 653.193 113.511 653.615C113.551 654.037 113.739 654.432 114.04 654.73C114.5 659.33 112.04 663.68 111.51 668.28C110.72 675.51 113.99 682.57 114.39 689.83C114.37 690.646 114.523 691.457 114.84 692.21C115.52 693.46 117.26 694.21 117.2 695.64C117.077 696.227 116.913 696.805 116.71 697.37C116.723 698.199 116.81 699.026 116.97 699.84C116.97 700.67 116.27 701.66 115.5 701.34C116.08 703.26 116.593 705.197 117.04 707.15L132.44 708.42C132.604 707.034 132.556 705.632 132.3 704.26C131.98 702.78 131.3 701.39 130.96 699.91C130.733 699.185 130.67 698.419 130.776 697.666C130.881 696.914 131.153 696.195 131.57 695.56C131.167 695.566 130.774 695.429 130.463 695.172C130.151 694.916 129.941 694.557 129.87 694.16C129.73 693.369 129.73 692.56 129.87 691.77C130.28 687.77 128.59 683.77 128.64 679.77C128.69 676.59 129.8 673.54 130.37 670.42C131.57 663.74 130.32 656.49 133.29 650.42C135.09 646.74 137.58 642.66 135.56 639.1C134.56 637.34 132.81 636.1 131.67 634.48C130.735 632.923 130.031 631.239 129.58 629.48C127.2 622.12 123.37 615.33 120 608.36C119.069 606.61 118.376 604.744 117.94 602.81C117.702 601.114 117.618 599.401 117.69 597.69C117.681 594.615 117.49 591.543 117.12 588.49C117.049 587.15 116.665 585.845 116 584.68C115.348 583.803 114.533 583.059 113.6 582.49C108.55 579.05 102.53 577.06 97.0801 574.19Z" fill="#464353"/>
<path d="M115.53 728.16C117.006 728.671 118.575 728.859 120.13 728.71C120.25 727.44 121.95 727.16 123.22 727.22C123.836 727.201 124.446 727.342 124.99 727.63C125.31 727.83 125.55 728.13 125.87 728.34C126.421 728.645 127.041 728.803 127.67 728.8L134.28 729.36C137.23 729.61 140.28 729.84 143.07 728.78C143.62 728.613 144.107 728.286 144.47 727.84C145.22 726.77 144.47 725.23 143.47 724.45C142.47 723.67 141.1 723.31 140.05 722.51C137.76 720.76 137.44 717.51 136.22 714.87C135.365 713.213 134.303 711.67 133.06 710.28C132.161 709.084 131.112 708.009 129.94 707.08C127.28 705.16 124.23 705.2 121.12 704.93C118.91 704.73 116.84 704.6 115.27 706.55C113.27 708.97 114.09 713.85 114.21 716.74C114.354 720.575 114.796 724.393 115.53 728.16Z" fill="#514E7F"/>
<path d="M277.06 612.17H199.03V690.2H277.06V612.17Z" fill="white"/>
<path d="M261.1 648.57C261.1 657.47 256.93 663.07 250.34 663.07C246.97 663.07 244.4 661.27 243.95 658.6H243.47C242.911 659.953 241.941 661.096 240.698 661.869C239.455 662.643 238.001 663.006 236.54 662.91C230.68 662.91 226.77 658.21 226.77 651.22C226.77 644.51 230.71 639.84 236.46 639.84C237.819 639.786 239.163 640.129 240.33 640.827C241.497 641.525 242.435 642.548 243.03 643.77H243.51V640.43H248.3V655.98C248.251 656.39 248.294 656.806 248.426 657.198C248.558 657.589 248.775 657.947 249.063 658.244C249.35 658.541 249.7 658.77 250.087 658.914C250.474 659.059 250.889 659.116 251.3 659.08C254.62 659.08 256.74 655.08 256.74 648.78C256.74 638.78 249.24 632.09 238.17 632.09C227.1 632.09 219.42 640.09 219.42 651.37C219.42 662.92 227.14 670.3 239.16 670.3C241.349 670.311 243.535 670.124 245.69 669.74C246.171 669.661 246.664 669.77 247.067 670.045C247.47 670.319 247.752 670.738 247.855 671.214C247.958 671.691 247.873 672.189 247.619 672.605C247.365 673.021 246.961 673.324 246.49 673.45C244.023 674.009 241.5 674.284 238.97 674.27C224.36 674.27 214.97 665.27 214.97 651.27C214.97 637.59 224.52 628.2 238.43 628.2C251.83 628.12 261.1 636.47 261.1 648.57ZM231.95 651.33C231.95 655.77 234.03 658.46 237.43 658.46C241.01 658.46 243.27 655.7 243.27 651.33C243.27 646.96 241.01 644.26 237.49 644.26C233.97 644.26 231.95 646.88 231.95 651.33Z" fill="#FF00AC"/>
<path d="M183.77 547.53C192.192 547.53 199.02 540.702 199.02 532.28C199.02 523.858 192.192 517.03 183.77 517.03C175.348 517.03 168.52 523.858 168.52 532.28C168.52 540.702 175.348 547.53 183.77 547.53Z" fill="#A1616A"/>
<path d="M169.39 536.8C167.2 538.69 164.07 538.8 161.2 539.12C155.068 539.745 149.099 541.473 143.58 544.22C142.828 544.552 142.149 545.027 141.58 545.62C141.098 546.269 140.757 547.011 140.58 547.8C140.059 549.515 139.862 551.313 140 553.1C140.2 554.839 140.697 556.53 141.47 558.1C143.587 562.485 146.857 566.211 150.93 568.88C151.621 569.387 152.402 569.76 153.23 569.98C155.23 570.4 157.18 569.23 159.15 568.71C160.953 568.244 162.852 568.306 164.62 568.89C166.28 569.44 168.03 570.45 169.62 569.78C170.652 569.2 171.456 568.287 171.9 567.19C173.459 564.235 174.848 561.193 176.06 558.08C176.497 556.873 177.001 555.691 177.57 554.54C179.34 551.17 182.4 548.54 183.92 545.08C184.074 544.812 184.167 544.514 184.191 544.206C184.215 543.898 184.17 543.588 184.06 543.3C183.778 542.91 183.389 542.612 182.94 542.44C180.689 541.151 178.637 539.54 176.85 537.66C175.85 536.66 174 534.1 172.56 533.87C170.98 533.66 170.49 535.86 169.39 536.8Z" fill="#A1616A"/>
<path d="M169.75 567.79C167.98 568.64 165.9 568.26 163.98 567.86C159.04 566.86 154.05 565.78 149.48 563.64C148.051 563.1 146.812 562.151 145.92 560.91C145.355 559.851 145.015 558.687 144.92 557.49L144.08 551.82C143.79 549.82 144.3 548 144.34 546C144.372 545.777 144.359 545.55 144.303 545.332C144.246 545.114 144.147 544.909 144.01 544.73C143.731 544.498 143.371 544.387 143.01 544.42C140.72 544.42 139.34 546.85 137.73 548.48C136.808 549.418 135.706 550.159 134.49 550.66C133.02 551.26 131.21 551.66 130.62 553.15C130.37 553.76 130.4 554.46 130.15 555.07C129.15 557.51 124.75 556.7 123.64 559.07C123.32 559.75 123.34 560.61 122.81 561.15C122.28 561.69 121.31 561.67 120.51 561.81C117.33 562.33 115.78 566.01 113.06 567.74C110.77 569.2 107.82 569.17 105.36 570.31C104.079 571.077 102.742 571.746 101.36 572.31C99.8289 572.577 98.2705 572.654 96.7202 572.54C96.553 572.525 96.3845 572.544 96.2247 572.595C96.0649 572.647 95.9172 572.73 95.7902 572.84C95.6986 572.988 95.6381 573.153 95.6123 573.325C95.5865 573.496 95.596 573.672 95.6402 573.84C96.3958 578.657 98.3931 583.194 101.435 587.004C104.478 590.815 108.46 593.767 112.99 595.57C113.513 595.739 114.011 595.978 114.47 596.28C115.86 597.28 116.1 599.55 117.67 600.28C118.24 600.475 118.852 600.511 119.44 600.384C120.029 600.257 120.572 599.972 121.01 599.56C121.868 598.724 122.673 597.835 123.42 596.9C124.858 595.404 126.743 594.415 128.79 594.08C130.68 593.78 132.79 594 134.32 592.84C134.946 592.264 135.528 591.643 136.06 590.98C137.209 589.915 138.573 589.11 140.06 588.62C144.059 587.076 148.279 586.185 152.56 585.98C156.56 585.75 160.71 586.12 164.5 584.81C165.486 584.512 166.395 584 167.16 583.31C167.978 582.427 168.587 581.371 168.94 580.22C170.319 576.224 170.599 571.931 169.75 567.79Z" fill="#514E7F"/>
<path d="M150.09 545.32C151.22 545.22 152.35 545.32 153.48 545.32C154.81 545.32 156.12 545 157.48 544.99C159.583 545.024 161.619 545.73 163.292 547.003C164.965 548.277 166.187 550.052 166.78 552.07C166.894 552.391 166.915 552.738 166.84 553.07C166.796 553.235 166.693 553.378 166.552 553.473C166.41 553.569 166.239 553.61 166.07 553.59C165.632 552.385 165.058 551.235 164.36 550.16C163.091 548.443 161.292 547.191 159.24 546.6C157.189 546.019 155.028 545.94 152.94 546.37C152.08 546.53 151.23 546.76 150.38 547L146.23 548.12C145.48 548.32 144.73 548.53 144 548.8C143.44 549 142.47 549.8 141.92 549.8C141.17 549.8 141.78 549.15 142.11 548.71C142.772 547.803 143.703 547.128 144.77 546.78C146.476 546.076 148.263 545.585 150.09 545.32Z" fill="#514E7F"/>
<path d="M160.37 591.13C161.37 594.29 162.37 597.45 163.58 600.53C165.794 605.871 168.584 610.954 171.9 615.69C174.033 618.807 176.326 621.811 178.77 624.69C181.83 628.3 185.25 631.93 186.33 636.54C186.96 639.2 186.75 641.99 187.01 644.71C187.27 647.43 188.16 650.32 190.36 651.95C192.031 652.984 193.922 653.607 195.88 653.77C197.26 653.99 198.99 654.06 199.71 652.86C199.962 652.372 200.092 651.83 200.09 651.28L200.42 647.28C200.5 646.42 200.8 645.28 201.66 645.28C202.52 645.28 202.96 646.39 203.66 646.9C203.921 647.041 204.208 647.126 204.503 647.152C204.798 647.177 205.095 647.142 205.376 647.049C205.657 646.955 205.916 646.805 206.137 646.607C206.358 646.41 206.536 646.169 206.66 645.9C207.101 644.78 207.13 643.539 206.74 642.4C206.146 640.137 205.081 638.024 203.615 636.201C202.148 634.378 200.313 632.885 198.23 631.82C196.78 631.225 195.387 630.499 194.07 629.65C192.729 628.496 191.62 627.098 190.8 625.53C183.23 613.08 175.63 600.53 170.3 587.02C169.249 584.6 168.538 582.045 168.19 579.43C168.082 576.759 168.192 574.083 168.52 571.43C168.845 566.625 168.409 561.799 167.23 557.13C166.97 555.905 166.507 554.732 165.86 553.66C163.67 550.32 158.5 549.83 155.24 552.13C154.04 553.055 153.046 554.218 152.32 555.547C151.593 556.876 151.151 558.341 151.02 559.85C150.78 562.54 152.34 565.35 153.13 567.85C155.543 575.617 157.957 583.377 160.37 591.13Z" fill="#A1616A"/>
<path d="M205.96 521.5C206.08 520.23 204.96 519.08 203.65 518.27C202.288 517.564 200.978 516.762 199.73 515.87C198.57 514.87 197.94 513.56 196.78 512.56C195.466 511.557 193.973 510.814 192.38 510.37C188.998 509.179 185.445 508.541 181.86 508.48C178.318 508.386 174.823 509.309 171.79 511.14C171.121 511.553 170.54 512.093 170.08 512.73C169.644 513.512 169.362 514.371 169.25 515.26C168.6 517.996 167.72 520.672 166.62 523.26C165.49 526.14 164.28 529.12 161.62 531.34C158.77 533.72 154.4 535.09 152.52 537.96C152.315 538.217 152.171 538.517 152.1 538.837C152.029 539.158 152.033 539.491 152.11 539.81C152.38 540.53 153.25 541.02 154.04 541.48C158.67 544.14 162.66 547.58 164.72 551.7C165.799 553.693 166.284 555.953 166.117 558.213C165.95 560.472 165.139 562.637 163.78 564.45C162.71 565.85 161.23 567.51 162.28 568.92C163.87 571.06 169.36 569.84 170.62 572.1C170.882 572.851 170.94 573.659 170.79 574.44C170.79 576.81 173.08 578.93 175.86 580.02C178.797 581.017 181.878 581.524 184.98 581.52C185.818 579.657 185.901 577.542 185.21 575.62C185.004 575.206 184.924 574.74 184.98 574.28C185.197 573.771 185.541 573.327 185.98 572.99C189.33 569.83 188.62 565.18 186.61 561.43C184.6 557.68 181.48 554.24 180.32 550.29C179.74 548.29 179.73 546.12 181.32 544.49C182.213 543.707 183.174 543.004 184.19 542.39C185.993 541.161 187.387 539.419 188.19 537.39C189.12 534.79 188.98 531.66 191.72 529.94C194.46 528.22 198.01 528.78 200.9 527.67C203.23 526.74 205.78 523.35 205.96 521.5Z" fill="#464353"/>
<path d="M291.47 543.52C300.654 543.52 308.1 536.075 308.1 526.89C308.1 517.706 300.654 510.26 291.47 510.26C282.285 510.26 274.84 517.706 274.84 526.89C274.84 536.075 282.285 543.52 291.47 543.52Z" fill="#FBBEBE"/>
<path d="M306.44 526.19C307.975 528.642 309.988 530.76 312.359 532.418C314.729 534.076 317.41 535.24 320.24 535.84L318.99 540.38C316.83 548.2 314.39 556.48 308.35 561.9C308.612 560.556 308.598 559.173 308.307 557.836C308.017 556.498 307.456 555.234 306.66 554.12C305.063 551.901 303.164 549.915 301.02 548.22L291.45 539.89C291.157 539.676 290.912 539.404 290.73 539.09C290.495 538.506 290.495 537.854 290.73 537.27C291.95 533.47 295.43 531.1 298.25 528.54C299.671 527.213 300.942 525.735 302.04 524.13C304 521.43 305.23 524.16 306.44 526.19Z" fill="#FBBEBE"/>
<path d="M308.56 547.7C308.653 548.944 308.486 550.194 308.07 551.37C307.838 551.944 307.407 552.415 306.856 552.698C306.306 552.981 305.672 553.056 305.07 552.91C305.42 552.12 304.5 551.22 303.64 551.32C303.217 551.415 302.823 551.612 302.493 551.892C302.162 552.172 301.904 552.528 301.74 552.93C301.163 554.079 300.97 555.383 301.19 556.65C301.46 558.23 302.37 559.74 302.13 561.32C301.94 562.63 300.97 563.94 301.49 565.17C301.823 565.725 302.242 566.225 302.73 566.65C303.406 567.485 303.736 568.548 303.653 569.62C303.569 570.691 303.078 571.69 302.28 572.41L315.28 572.66C314.8 574.83 315.78 577.05 316.89 578.97C319.998 584.262 324.29 588.763 329.429 592.118C334.568 595.474 340.415 597.593 346.51 598.31C346.181 598.503 345.899 598.767 345.685 599.082C345.47 599.398 345.328 599.757 345.268 600.133C345.209 600.51 345.234 600.896 345.342 601.261C345.449 601.627 345.636 601.965 345.89 602.25C346.95 603.3 348.73 603.17 350.05 602.49C351.301 601.685 352.494 600.793 353.62 599.82C355.742 598.299 358.339 597.589 360.94 597.82C362.57 597.97 364.14 598.49 365.77 598.58C370.57 598.84 374.7 595.38 379.29 593.97C382.66 592.97 386.47 592.97 389.29 590.83C390.51 589.93 391.51 588.45 391.15 586.97C390.85 586.126 390.372 585.355 389.75 584.71C388.12 582.6 387.17 580.07 386 577.71C383.694 572.977 380.515 568.722 376.63 565.17C373.706 562.605 370.605 560.249 367.35 558.12C366.559 557.539 365.715 557.034 364.83 556.61C363.651 556.227 362.502 555.759 361.39 555.21C359.86 554.21 358.99 552.56 357.82 551.21C355.25 548.21 351.3 546.84 348.13 544.48C346.01 542.9 344.13 540.82 341.6 540.05C340.37 539.68 339.05 539.65 337.82 539.28C335.02 538.43 332.98 535.94 330.23 534.94C328.06 534.14 325.66 534.35 323.36 534.06C320.827 533.746 318.407 532.83 316.3 531.39C315.615 530.827 314.845 530.375 314.02 530.05C310.55 529.05 310.27 535.47 309.94 537.71C309.42 540.98 308.56 544.33 308.56 547.7Z" fill="#3F3D56"/>
<path d="M311.95 569.41C312.53 575.72 307.76 581.84 309.15 588.03C309.45 589.35 310.01 590.6 310.22 591.93C310.8 595.6 308.61 599.07 306.52 602.14L288.52 628.48C287.805 629.641 286.945 630.707 285.96 631.65C282.52 634.7 277.38 634.38 272.87 635.3C269.701 635.945 266.709 637.269 264.1 639.18C263.985 639.271 263.909 639.403 263.888 639.548C263.868 639.693 263.904 639.841 263.99 639.96C264.734 640.975 265.721 641.787 266.86 642.321C267.999 642.856 269.254 643.096 270.51 643.02C270.98 643.64 270.51 644.56 269.86 645.02C268.86 645.69 267.57 645.87 267.38 647.5C267.314 648.07 267.425 648.646 267.7 649.15C268.428 650.257 269.557 651.038 270.85 651.33C277.06 653.23 283.77 649.89 288.42 645.33C293.07 640.77 296.42 635.06 300.98 630.43C303.51 627.87 306.38 625.68 308.98 623.2C314.17 618.2 318.21 612.2 322.11 606.2C323.381 604.447 324.341 602.488 324.95 600.41C325.43 598.36 325.21 596.18 325.77 594.15C326.49 591.48 328.44 589.35 330.07 587.15C333.26 582.76 335.38 577.4 334.96 571.99C334.54 566.58 331.19 561.26 326.1 559.42C324.509 558.782 322.755 558.677 321.1 559.12C319.01 559.76 317.47 561.49 316.04 563.12L312.63 567.06C311.775 567.921 311.096 568.94 310.63 570.06C310.411 570.626 310.361 571.244 310.485 571.838C310.609 572.433 310.903 572.978 311.33 573.41" fill="#FBBEBE"/>
<path d="M321.03 543.48C318.67 543.62 316.03 543.85 314.4 545.48C313.703 546.254 313.142 547.14 312.74 548.1C311.12 551.39 309.54 554.84 309.43 558.51C309.33 561.44 310.18 564.31 310.63 567.21C311 569.62 310.06 572.08 309.88 574.52C313.141 573.633 316.304 572.416 319.32 570.89C321.064 569.753 322.916 568.792 324.85 568.02C327.66 567.08 332.4 568.69 335.06 570.02C335.21 568.14 333.8 564.87 333.95 563.02C333.969 562.226 334.11 561.44 334.37 560.69C334.767 559.897 335.239 559.143 335.78 558.44C336.803 556.782 337.273 554.842 337.124 552.9C336.975 550.958 336.214 549.113 334.95 547.63C332.58 544.96 328.86 543.96 325.31 543.54C323.073 543.283 320.819 543.207 318.57 543.31" fill="#3F3D56"/>
<path d="M269.56 510.17L269.18 507.04C271.81 507.71 274.3 505.49 275.98 503.18C277.66 500.87 279.21 498.18 281.76 497.18C284.87 496.01 288.16 497.88 291.13 499.42C294.448 501.294 298.099 502.503 301.88 502.98C302.483 503.006 303.08 503.103 303.66 503.27C305.59 503.96 306.51 506.38 306.79 508.58C307.07 510.78 306.99 513.12 307.94 515.08C308.67 516.56 309.94 517.67 310.66 519.08C312.66 523.01 310.73 528.39 312.88 532.25L307.55 527.37C307.06 526.92 306.37 526.45 305.84 526.83C305.31 527.21 305.38 527.83 305.2 528.3C305.048 528.645 304.828 528.956 304.553 529.214C304.278 529.472 303.954 529.671 303.6 529.8C303.246 529.929 302.869 529.985 302.493 529.964C302.116 529.944 301.748 529.847 301.41 529.68C300.063 528.913 298.904 527.853 298.02 526.58C295.804 523.745 292.889 521.536 289.56 520.17C288.117 519.613 286.571 519.372 285.027 519.463C283.483 519.555 281.977 519.976 280.61 520.7C278.12 522.11 276.3 525.38 273.25 525.49C269.07 525.65 267.33 517.87 265.4 514.8C266.106 514.266 266.602 513.501 266.803 512.639C267.004 511.777 266.897 510.871 266.5 510.08C266.79 509.98 269.5 509.69 269.56 510.17Z" fill="#464353"/>
<path d="M718.46 793.5C717.65 790.07 717.16 787.07 717.16 787.07C717.228 784.802 716.715 782.554 715.67 780.54V779.6V772.7C716.143 771.448 716.725 770.24 717.41 769.09C718.65 766.93 717.41 758.99 717.41 758.99C717.41 758.99 712.81 747.8 713.92 740.7C715.03 733.6 704.48 709.17 704.48 709.17C704.547 706.806 704.882 704.458 705.48 702.17C705.594 701.692 705.638 701.2 705.61 700.71C705.615 700.65 705.615 700.59 705.61 700.53V700.59C705.45 695.91 701.75 687.13 701.75 687.13L702.25 670.41C702.25 670.41 704.61 660.54 700.76 647.3C699.41 642.68 698.55 638.99 698 636.13C697.94 635.81 697.88 635.5 697.83 635.2C705.76 633.99 711.83 632.98 711.83 632.98C711.83 632.98 707.23 613.73 704.12 610.36C701.01 606.99 698.53 596.41 698.53 596.41C698.53 596.41 696.91 582.81 699.53 578.84C702.15 574.87 702.53 568.01 702.53 568.01C702.53 568.01 708.53 563.68 709.24 561.75C710.299 559.01 710.972 556.136 711.24 553.21C711.24 550.92 710.49 548.88 710.74 547.67C710.99 546.46 709 541.9 710 539.73C710.258 539.063 710.39 538.355 710.39 537.64C710.395 537.62 710.395 537.6 710.39 537.58C710.394 535.684 710.216 533.792 709.86 531.93C708.138 530.473 706.128 529.396 703.96 528.77L703.83 528.26L703.49 526.91C703.302 526.779 703.105 526.662 702.9 526.56V526.06V524.06L703.83 519.66C705.67 512.03 695.47 510.89 695.47 510.89C694.853 509.716 693.824 508.811 692.58 508.35C690.58 507.63 692.24 519.85 693.2 520.63C693.92 521.21 696.2 525.05 697.2 526.93L697.38 527.24C697.21 527.39 697.053 527.554 696.91 527.73L697.3 530.38L697.36 530.79C696.683 531.628 696.133 532.561 695.73 533.56C695.73 533.56 697.6 535.61 697.22 537.9C697.076 539.687 697.287 541.485 697.84 543.19C697.73 543.06 696.42 541.64 695.11 541.99C693.8 542.34 690.11 543.43 690.11 543.43C690.11 543.43 687.37 543.91 687.62 544.51C687.87 545.11 685.76 547.76 685.76 547.76L678.41 540.76C678.33 540.55 678.26 540.34 678.19 540.13C677.889 539.151 677.678 538.147 677.56 537.13C678.358 536.939 679.14 536.688 679.9 536.38C680.661 536.112 681.346 535.666 681.9 535.08C682.517 534.12 682.919 533.039 683.08 531.91C683.66 529.77 684.91 527.86 685.81 525.83C687.294 522.419 687.786 518.658 687.23 514.98C687.116 513.84 686.732 512.743 686.11 511.78C684.91 510.13 682.73 509.46 681.11 508.14C679.49 506.82 678.51 504.82 676.66 503.83C674.903 503.064 672.943 502.896 671.08 503.35C667.404 503.949 663.874 505.231 660.67 507.13C659.59 507.77 658.42 508.5 657.18 508.28C656.159 507.969 655.274 507.32 654.67 506.44C654.666 506.403 654.666 506.367 654.67 506.33L654.58 506.24C653.809 507.97 653.42 509.846 653.44 511.74C653.44 512.03 653.44 512.32 653.44 512.62C653.44 512.72 653.44 512.82 653.44 512.92C653.445 513.007 653.445 513.093 653.44 513.18C653.435 513.312 653.415 513.443 653.38 513.57C653.228 513.948 652.996 514.29 652.7 514.57C652.469 514.819 652.268 515.095 652.1 515.39C652.1 515.29 652.16 515.19 652.2 515.09C651.728 515.771 651.461 516.572 651.43 517.4C651.39 518.006 651.592 518.602 651.99 519.06C652.353 519.431 652.752 519.766 653.18 520.06C653.039 520.866 652.969 521.682 652.97 522.5C652.983 524.946 653.626 527.348 654.838 529.473C656.051 531.598 657.791 533.374 659.89 534.63L660.14 535.26C661.204 537.786 661.66 540.526 661.47 543.26C661.47 543.46 661.47 543.65 661.38 543.85L661.12 544.15C661.12 544.15 648.98 544.27 646.12 541.68C643.26 539.09 638.91 548 638.91 548C638.91 548 634.56 548.85 633.69 548C632.82 547.15 627.69 547.88 627.69 547.88C625.604 546.033 622.895 545.047 620.11 545.12C618.412 543.825 616.536 542.781 614.54 542.02L614.4 541.97C613.524 541.653 612.587 541.537 611.66 541.63C611.66 541.63 605.66 536.69 603.96 534.05C602.26 531.41 593.96 521.58 593.89 521.53V521.06L593.79 519.63C593.545 519.67 593.298 519.693 593.05 519.7C593.05 519.55 592.95 519.39 592.88 519.2C592.402 517.821 591.814 516.484 591.12 515.2C591.12 515.2 591.12 513.4 591.65 512.95C592.18 512.5 591.43 505.88 591.43 505.88C591.43 505.88 586.05 493.31 581.24 502.69C581.24 502.69 572.13 508.76 579.77 515.84C579.77 515.84 582.77 517.31 583.25 518.48C583.54 519.24 584.57 521.37 585.25 522.78L585.56 523.41L585.47 523.48L585.59 524.66V525.12C584.15 525.93 583.18 526.74 583.41 527.36C583.838 528.402 584.13 529.494 584.28 530.61C584.28 530.61 594.85 543.84 596.22 549.5C596.22 549.5 624.56 566.34 633.88 567.55L632.27 575.97C632.029 578.249 631.905 580.538 631.9 582.83C632.02 584.63 630.78 592.83 630.78 592.83C630.78 592.83 629.16 604.83 627.78 606.54C626.4 608.25 626.66 615.45 626.66 615.45C626.336 618.904 625.714 622.323 624.8 625.67C623.43 630.25 624.43 635.9 624.43 635.9C624.43 635.9 619.7 646.73 631.02 639.39C631.02 639.39 636.57 639.05 643.02 638.83C643.02 639.04 643.02 639.25 643.02 639.47C643.02 640.29 643.02 641.18 643.02 642.12C642.94 648.32 642.9 656.87 643.18 663.34C643.68 674.77 647.18 697.34 647.18 697.34V708.7C646.962 709.769 646.855 710.859 646.86 711.95C646.776 715.957 647.838 719.905 649.92 723.33L650.79 730.91C650.79 730.91 652.79 735.91 652.87 738.91C652.862 739.152 652.832 739.393 652.78 739.63C652.705 740.012 652.671 740.401 652.68 740.79C652.57 744.23 654.68 752.47 654.68 752.47C654.68 752.47 654.81 760.77 656.05 761.25C657.11 761.66 654.63 766.04 653.89 767.25C653.868 767.171 653.852 767.091 653.84 767.01C653.75 767.17 653.69 767.26 653.69 767.26C653.432 767.93 653.3 768.642 653.3 769.36C653.228 769.928 653.319 770.504 653.564 771.022C653.808 771.539 654.196 771.976 654.68 772.28C657.04 773.73 658.31 774.93 656.31 775.41C655.572 775.522 654.841 775.676 654.12 775.87C654.12 775.78 654.04 775.68 654.01 775.59C653.748 775.708 653.531 775.906 653.391 776.156C653.251 776.407 653.194 776.695 653.23 776.98C653.252 777.963 653.509 778.927 653.98 779.79C654.857 781.961 655.984 784.021 657.34 785.93L658.34 785.82C658.195 786.175 658.007 786.511 657.78 786.82C657.422 787.342 656.941 787.767 656.38 788.06C655.859 788.37 655.281 788.57 654.68 788.65C654.005 788.668 653.342 788.83 652.735 789.125C652.128 789.42 651.591 789.841 651.16 790.36C649.92 791.96 649.16 794.15 651.59 796.07L660.48 799.13C660.48 799.13 675.77 801.13 674.96 797.69C674.15 794.25 673.66 791.26 673.66 791.26C673.72 789.161 673.292 787.076 672.41 785.17C672.257 784.855 672.076 784.554 671.87 784.27L672.41 784.21C672.41 784.21 673.53 776.63 675.02 775.21C675.37 774.88 675.45 774.62 675.36 774.42C675.52 774.01 675.13 773.77 674.63 773.63L674.52 773.93C674.033 773.828 673.537 773.774 673.04 773.77C673.04 773.77 672.54 769.77 674.15 768.35C674.282 768.186 674.378 767.996 674.433 767.793C674.488 767.59 674.501 767.378 674.47 767.17C674.479 766.625 674.421 766.081 674.3 765.55L674.24 765.65C673.322 762.443 672.127 759.321 670.67 756.32C670.67 756.32 670.55 752.71 671.54 751.26C672.53 749.81 671.42 731.65 671.42 731.65C671.42 731.65 671.79 722.87 670.67 718.78C669.55 714.69 672.04 709.87 672.04 709.87V709.61V709.55C672.04 709.55 671.98 709.01 671.89 708.16V708.25C671.64 705.92 671.17 701.71 670.82 699.77C670.32 697 670.94 683.77 670.94 683.77L673.18 678.12L677.18 687.86L681.4 700.86C682.606 702.47 683.349 704.379 683.55 706.38C683.55 706.52 683.55 706.66 683.55 706.79C683.531 707.08 683.531 707.37 683.55 707.66C683.479 709.301 683.931 710.922 684.84 712.29C684.84 712.29 685.96 718.43 687.7 719.99C689.44 721.55 689.44 724.56 689.44 724.56C689.44 724.56 691.55 733.47 692.55 735.03C693.39 736.35 693.43 739.97 693.42 741.03V741.36C693.42 741.36 693.71 744.54 693.7 747.22C693.7 747.54 693.7 747.87 693.7 748.22V748.15C693.698 748.878 693.611 749.603 693.44 750.31V750.44C693.44 750.29 693.44 750.13 693.44 749.99C692.995 751.806 692.779 753.67 692.8 755.54C692.74 758.74 693.23 762.54 695.17 764.75C698.53 768.6 700.64 768.12 700.64 768.12C700.64 768.12 699.02 772.93 697.03 773.9C696.956 773.936 696.885 773.98 696.82 774.03C696.82 773.94 696.82 773.84 696.77 773.75C696.554 773.993 696.391 774.279 696.291 774.589C696.191 774.899 696.157 775.226 696.19 775.55C696.28 778.119 697.137 780.602 698.65 782.68C699.117 783.149 699.695 783.493 700.33 783.68L700.02 783.87C699.796 783.992 699.566 784.103 699.33 784.2C699.013 784.339 698.675 784.427 698.33 784.46C697.655 784.478 696.992 784.64 696.385 784.935C695.778 785.23 695.241 785.651 694.81 786.17C693.57 787.77 692.81 789.96 695.24 791.88L704.13 794.94C704.13 794.94 719.23 796.98 718.46 793.5Z" fill="url(#paint0_linear)"/>
<path d="M660.06 799.18L651.45 796.12C649.08 794.2 649.84 792.01 651.04 790.41C651.449 789.895 651.964 789.476 652.551 789.181C653.139 788.885 653.783 788.721 654.44 788.7C655.025 788.621 655.587 788.42 656.09 788.11C656.636 787.811 657.102 787.386 657.45 786.87C658.087 785.875 658.434 784.722 658.45 783.54C658.45 783.54 667.9 780.78 670.45 783.54C670.912 784.041 671.3 784.607 671.6 785.22C672.45 787.135 672.861 789.216 672.8 791.31C672.8 791.31 673.28 794.31 674.06 797.74C674.84 801.17 660.06 799.18 660.06 799.18Z" fill="#2D293D"/>
<path d="M702.17 794.98L693.57 791.92C691.19 790 691.95 787.81 693.15 786.22C693.559 785.702 694.075 785.279 694.665 784.982C695.254 784.685 695.901 784.52 696.56 784.5C696.906 784.47 697.244 784.382 697.56 784.24C697.788 784.146 698.008 784.036 698.22 783.91C700.63 782.59 700.57 779.34 700.57 779.34C700.57 779.34 710.01 776.57 712.57 779.34C712.916 779.714 713.218 780.127 713.47 780.57C714.486 782.597 714.984 784.844 714.92 787.11C714.92 787.11 715.4 790.11 716.18 793.54C716.96 796.97 702.17 794.98 702.17 794.98Z" fill="#2D293D"/>
<path opacity="0.1" d="M670.46 783.54C670.923 784.041 671.31 784.607 671.61 785.22L657.45 786.86C658.088 785.865 658.434 784.712 658.45 783.53C658.45 783.53 667.88 780.78 670.46 783.54Z" fill="black"/>
<path opacity="0.1" d="M713.48 780.53V783.18C711.28 786.81 700.63 786.02 697.54 784.18C697.768 784.086 697.988 783.976 698.2 783.85C700.61 782.53 700.55 779.28 700.55 779.28C700.55 779.28 709.99 776.51 712.55 779.28C712.908 779.659 713.22 780.078 713.48 780.53Z" fill="black"/>
<path d="M715.17 769.1C714.506 770.254 713.941 771.461 713.48 772.71V782.22C711.08 786.22 698.56 784.87 696.88 782.7C695.2 780.53 693.39 774.88 695.31 773.92C697.23 772.96 698.8 768.14 698.8 768.14C698.8 768.14 696.8 768.62 693.51 764.77C690.22 760.92 691.23 752.38 691.83 750.33C692.43 748.28 691.83 741.43 691.83 741.43C691.83 741.43 691.95 736.62 690.99 735.05C690.03 733.48 687.99 724.58 687.99 724.58C687.99 724.58 687.99 721.58 686.31 720.01C684.63 718.44 683.54 712.31 683.54 712.31C682.555 710.777 682.131 708.95 682.34 707.14C682.7 704.14 680.29 700.88 680.29 700.88L676.2 687.88L672.35 678.13L670.19 683.78C670.19 683.78 669.58 697.02 670.07 699.78C670.56 702.54 671.27 709.88 671.27 709.88C671.27 709.88 668.86 714.7 669.95 718.79C671.04 722.88 670.67 731.66 670.67 731.66C670.67 731.66 671.75 749.83 670.79 751.28C669.83 752.73 669.95 756.28 669.95 756.28C669.95 756.28 674.88 766.87 673.31 768.28C671.74 769.69 672.23 773.7 672.23 773.7C672.23 773.7 675.6 773.7 674.16 775.14C672.72 776.58 671.63 784.14 671.63 784.14L657.06 785.98C655.745 784.063 654.652 782.003 653.8 779.84C651.88 775.39 654.16 775.84 656.1 775.39C658.04 774.94 656.81 773.71 654.52 772.26C652.23 770.81 653.52 767.57 653.52 767.57C653.52 767.57 657.01 761.67 655.81 761.19C654.61 760.71 654.48 752.41 654.48 752.41C654.48 752.41 652.08 742.54 652.68 739.9C653.28 737.26 650.75 730.9 650.75 730.9L649.91 723.32C647.346 719.009 646.423 713.917 647.31 708.98V697.27C647.31 697.27 643.94 674.65 643.45 663.27C643.15 655.95 643.23 645.96 643.33 639.72C643.39 636.23 643.45 633.91 643.45 633.91L695.45 628.5C695.533 631.097 695.851 633.681 696.4 636.22C696.93 639.07 697.76 642.77 699.06 647.39C702.79 660.62 700.51 670.49 700.51 670.49L700.03 687.21C700.03 687.21 704.6 698.4 703.64 702.21C703.047 704.499 702.712 706.847 702.64 709.21C702.64 709.21 712.87 733.64 711.79 740.74C710.71 747.84 715.17 758.98 715.17 758.98C715.17 758.98 716.37 766.98 715.17 769.1Z" fill="#464353"/>
<path opacity="0.05" d="M685.45 706.42L701.23 704.31C701.23 704.31 692.31 713.45 685.45 706.42Z" fill="black"/>
<path opacity="0.1" d="M698.98 688.85C698.98 688.85 699.53 694.44 696.1 696.55C696.1 696.55 702.23 695.59 698.98 688.85Z" fill="black"/>
<path opacity="0.1" d="M698.01 671.04C698.01 671.04 684.79 681.93 680.01 681.04C675.23 680.15 698.01 671.04 698.01 671.04Z" fill="black"/>
<path opacity="0.1" d="M665.83 711.53C665.83 711.53 655.83 713.82 655.49 717.85C655.15 721.88 665.83 711.53 665.83 711.53Z" fill="black"/>
<path opacity="0.05" d="M668.04 761.7C668.04 761.7 653.85 764.35 657.88 766.16C661.337 767.526 664.898 768.609 668.53 769.4C668.53 769.4 673.1 769.64 668.04 761.7Z" fill="black"/>
<g opacity="0.05">
<path opacity="0.05" d="M655.01 768.98C654.652 768.756 654.35 768.455 654.125 768.098C653.9 767.742 653.758 767.339 653.71 766.92L653.57 767.18C653.57 767.18 652.24 770.42 654.57 771.87C654.83 772.03 655.08 772.2 655.31 772.36C655.73 772.28 656.19 772.22 656.62 772.11C658.52 771.67 657.3 770.46 655.01 768.98Z" fill="black"/>
<path opacity="0.05" d="M673.3 768.06C673.69 767.7 673.67 766.77 673.44 765.58C672.859 766.648 672.579 767.855 672.63 769.07C672.773 768.686 673.002 768.341 673.3 768.06Z" fill="black"/>
<path opacity="0.05" d="M671.11 708.2C670.576 709.62 670.239 711.108 670.11 712.62C670.384 711.589 670.752 710.584 671.21 709.62C671.21 709.62 671.23 709.04 671.11 708.2Z" fill="black"/>
<path opacity="0.05" d="M703.62 701.88C703.714 701.447 703.758 701.004 703.75 700.56C703.57 701.46 703.45 702.3 703.36 703.03C703.44 702.65 703.52 702.27 703.62 701.88Z" fill="black"/>
<path opacity="0.05" d="M670.77 750.98C671.049 750.119 671.171 749.214 671.13 748.31C670.681 749.377 670.446 750.522 670.44 751.68C670.522 751.434 670.632 751.199 670.77 750.98Z" fill="black"/>
<path opacity="0.05" d="M673.75 773.66C673.007 776.076 672.455 778.547 672.1 781.05L657.55 782.74C656.23 780.826 655.136 778.766 654.29 776.6C654.135 776.254 653.998 775.9 653.88 775.54C653.01 775.94 652.66 776.84 653.81 779.54C654.654 781.703 655.748 783.761 657.07 785.67L671.61 783.98C671.61 783.98 672.7 776.4 674.14 774.98C674.85 774.21 674.4 773.85 673.75 773.66Z" fill="black"/>
<path opacity="0.05" d="M654.53 752.05C654.53 752.05 654.65 760.36 655.85 760.84C656.46 759.47 656.85 758.17 656.32 757.95C655.12 757.47 655 749.17 655 749.17C655 749.17 652.59 739.3 653.2 736.65C653.81 734 651.27 727.65 651.27 727.65L650.43 720.07C647.857 715.769 646.916 710.687 647.78 705.75V694.06C647.78 694.06 644.41 671.44 643.93 660.01C643.62 652.69 643.71 642.7 643.81 636.46C643.81 635.34 643.81 634.34 643.81 633.46H643.4C643.4 633.46 643.34 635.77 643.28 639.27C643.18 645.5 643.09 655.5 643.4 662.82C643.88 674.25 647.25 696.87 647.25 696.87V708.54C646.368 713.523 647.331 718.656 649.96 722.98L650.8 730.56C650.8 730.56 653.33 736.93 652.72 739.56C652.11 742.19 654.53 752.05 654.53 752.05Z" fill="black"/>
<path opacity="0.05" d="M697.36 779.49C696.178 777.778 695.392 775.824 695.06 773.77C693.57 775.11 695.28 780.32 696.88 782.38C698.48 784.44 711.08 785.87 713.49 781.89V779.6C710.23 782.83 698.96 781.54 697.36 779.49Z" fill="black"/>
<path opacity="0.05" d="M715.65 765.89C714.991 767.045 714.429 768.252 713.97 769.5V771.19C714.24 770.57 714.63 769.75 715.17 768.78C715.556 767.828 715.736 766.806 715.7 765.78L715.65 765.89Z" fill="black"/>
<path opacity="0.05" d="M698.1 767.79C698.56 766.864 698.957 765.909 699.29 764.93C699.29 764.93 697.29 765.41 693.99 761.56C691.63 758.76 691.5 753.47 691.83 750.01C691.23 752.06 690.26 760.6 693.51 764.45C695.64 766.98 697.23 767.63 698.1 767.79Z" fill="black"/>
<path opacity="0.05" d="M691.83 741.11C692.038 743.481 692.118 745.861 692.07 748.24C692.15 747.77 692.24 747.39 692.31 747.12C692.92 745.12 692.31 738.22 692.31 738.22C692.31 738.22 692.43 733.4 691.47 731.84C690.51 730.28 688.47 721.37 688.47 721.37C688.47 721.37 688.47 718.37 686.79 716.8C685.11 715.23 684.02 709.1 684.02 709.1C683.032 707.568 682.604 705.741 682.81 703.93C683.18 700.93 680.81 697.67 680.81 697.67L676.72 684.67L672.82 674.98L670.65 680.63C670.65 680.63 670.65 681.34 670.58 682.46L672.34 677.87L676.19 687.61L680.28 700.61C680.28 700.61 682.68 703.86 682.28 706.86C682.099 708.659 682.54 710.466 683.53 711.98C683.53 711.98 684.61 718.11 686.29 719.68C687.97 721.25 687.98 724.25 687.98 724.25C687.98 724.25 689.98 733.15 690.98 734.72C691.98 736.29 691.83 741.11 691.83 741.11Z" fill="black"/>
</g>
<path d="M701.93 519.73L701.03 524.13L701.08 526.13V527.57L696.08 528.09L695.52 527.09C694.52 525.21 692.32 521.38 691.62 520.79C690.69 520.01 689.04 507.79 691.02 508.52C692.235 508.986 693.233 509.888 693.82 511.05C693.82 511.05 703.71 512.09 701.93 519.73Z" fill="#FFCDD3"/>
<path opacity="0.1" d="M701.12 527.52L696.12 528.04L695.56 527.04C696.235 526.27 697.157 525.758 698.167 525.592C699.177 525.426 700.214 525.616 701.1 526.13L701.12 527.52Z" fill="black"/>
<path d="M702.38 529.9L695.77 531.44L695.63 530.44L695.25 527.79C695.611 527.309 696.064 526.903 696.583 526.598C697.101 526.293 697.675 526.094 698.271 526.012C698.867 525.93 699.474 525.967 700.056 526.122C700.637 526.276 701.183 526.544 701.66 526.91L701.99 528.26L702.38 529.9Z" fill="#DCE6F2"/>
<path d="M595.14 520.21L588.08 524.01L587.44 522.67C586.76 521.26 585.76 519.14 585.44 518.38C585.02 517.21 582.07 515.73 582.07 515.73C574.67 508.66 583.48 502.59 583.48 502.59C588.15 493.2 593.35 505.77 593.35 505.77C593.35 505.77 594.07 512.4 593.56 512.84C593.05 513.28 593.05 515.1 593.05 515.1C593.725 516.386 594.297 517.724 594.76 519.1C595.03 519.8 595.14 520.21 595.14 520.21Z" fill="#FFCDD3"/>
<path opacity="0.1" d="M595.14 520.21L588.08 524.01L587.44 522.67C588.44 521.84 591.97 518.97 593.13 519.1C593.688 519.157 594.251 519.157 594.81 519.1C595.03 519.8 595.14 520.21 595.14 520.21Z" fill="black"/>
<path d="M595.86 522.35L587.92 526.26L587.76 524.55L587.65 523.38C587.65 523.38 592.25 519.43 593.65 519.58C594.34 519.678 595.04 519.678 595.73 519.58L595.82 521.01L595.86 522.35Z" fill="#DCE6F2"/>
<path d="M682.68 548.91C682.68 548.91 648.05 552.82 654.52 550.72C659.03 549.25 660.82 546.39 661.2 543.21C661.373 540.48 660.933 537.747 659.91 535.21C659.089 533.024 658.051 530.927 656.81 528.95C656.81 528.95 683.28 514.39 677.99 527.63C677.166 529.629 676.66 531.745 676.49 533.9C676.327 536.036 676.554 538.185 677.16 540.24C678.164 543.584 680.075 546.585 682.68 548.91Z" fill="#FFCDD3"/>
<path opacity="0.1" d="M677.99 527.62C677.167 529.619 676.66 531.735 676.49 533.89C673.99 535.98 671.26 535.89 667.75 535.89C665.05 535.89 662.06 536.55 659.91 535.25C659.089 533.065 658.051 530.967 656.81 528.99C656.81 528.99 683.28 514.38 677.99 527.62Z" fill="black"/>
<path d="M667.28 536.77C675.189 536.77 681.6 530.359 681.6 522.45C681.6 514.541 675.189 508.13 667.28 508.13C659.371 508.13 652.96 514.541 652.96 522.45C652.96 530.359 659.371 536.77 667.28 536.77Z" fill="#FFCDD3"/>
<path opacity="0.1" d="M682.68 548.91C682.68 548.91 648.05 552.82 654.52 550.72C659.03 549.25 660.82 546.39 661.2 543.21C662.92 541.34 666.38 539.99 668.61 539.28C670.639 538.598 672.83 538.563 674.88 539.18C675.686 539.398 676.454 539.735 677.16 540.18C678.154 543.546 680.065 546.569 682.68 548.91Z" fill="black"/>
<path opacity="0.1" d="M702.38 529.9L695.77 531.44L695.63 530.44C696.336 529.466 697.326 528.733 698.465 528.343C699.603 527.953 700.834 527.924 701.99 528.26L702.38 529.9Z" fill="black"/>
<path opacity="0.1" d="M595.86 522.35L587.92 526.26L587.76 524.55C590.334 523.172 593.008 521.988 595.76 521.01L595.86 522.35Z" fill="black"/>
<path opacity="0.1" d="M696.38 636.17C682.97 638.28 663.88 641.04 660.85 640.12C658.34 639.35 650.32 639.43 643.33 639.67C643.39 636.18 643.45 633.86 643.45 633.86L695.45 628.45C695.527 631.046 695.838 633.63 696.38 636.17Z" fill="black"/>
<path d="M709.75 632.98C709.75 632.98 665.59 640.56 660.85 639.11C656.11 637.66 631.78 639.24 631.78 639.24C620.83 646.57 625.41 635.75 625.41 635.75C625.41 635.75 624.41 630.09 625.77 625.52C626.652 622.166 627.254 618.744 627.57 615.29C627.57 615.29 627.33 608.07 628.65 606.39C629.97 604.71 631.54 592.67 631.54 592.67C631.54 592.67 632.75 584.49 632.63 582.67C632.51 580.85 632.99 575.82 632.99 575.82L634.55 567.39C625.55 566.19 598.09 549.34 598.09 549.34C596.77 543.69 586.54 530.45 586.54 530.45C586.392 529.337 586.11 528.245 585.7 527.2C584.98 525.28 595.81 521.43 595.81 521.43C595.81 521.43 603.87 531.3 605.55 533.94C607.23 536.58 613.01 541.52 613.01 541.52C613.908 541.43 614.816 541.55 615.66 541.87H615.8C617.734 542.632 619.547 543.673 621.18 544.96C623.894 544.893 626.527 545.887 628.52 547.73C628.52 547.73 633.46 547.01 634.3 547.85C635.14 548.69 639.3 547.85 639.3 547.85C639.3 547.85 643.52 538.95 646.3 541.53C649.08 544.11 660.81 544 660.81 544C662.38 541.92 666.18 540.43 668.57 539.66C670.599 538.978 672.79 538.943 674.84 539.56C675.732 539.809 676.571 540.215 677.32 540.76L684.44 547.76C684.44 547.76 686.44 545.11 686.25 544.51C686.06 543.91 688.66 543.43 688.66 543.43C688.66 543.43 692.15 542.35 693.47 541.98C694.79 541.61 696.01 543.06 696.11 543.18C695.576 541.471 695.372 539.675 695.51 537.89C695.619 536.313 695.101 534.757 694.07 533.56C698.32 523.28 707.83 531.98 707.83 531.98C707.83 531.98 708.91 537.63 707.95 539.8C706.99 541.97 708.95 546.54 708.67 547.74C708.39 548.94 709.15 550.99 709.15 553.27C708.894 556.193 708.248 559.068 707.23 561.82C706.5 563.74 700.73 568.07 700.73 568.07C700.73 568.07 700.37 574.93 697.84 578.9C695.31 582.87 696.84 596.47 696.84 596.47C696.84 596.47 699.24 607.06 702.25 610.47C705.26 613.88 709.75 632.98 709.75 632.98Z" fill="#3F3D56"/>
<path opacity="0.1" d="M645.38 553.85C645.38 553.85 644.06 549.85 642.85 549.51C641.653 549.069 640.487 548.548 639.36 547.95L640.14 546.47C640.14 546.47 644.66 547.71 645.38 549.03C646.1 550.35 645.38 553.85 645.38 553.85Z" fill="black"/>
<path opacity="0.1" d="M621.23 545.06C620.99 546.27 610.29 547.35 610.29 547.35L615.7 541.92L615.84 541.97C617.778 542.732 619.594 543.773 621.23 545.06Z" fill="black"/>
<path d="M590.21 529.51C590.74 529.51 591.17 529.08 591.17 528.55C591.17 528.02 590.74 527.59 590.21 527.59C589.68 527.59 589.25 528.02 589.25 528.55C589.25 529.08 589.68 529.51 590.21 529.51Z" fill="#575988"/>
<path d="M591.44 531.44C591.97 531.44 592.4 531.01 592.4 530.48C592.4 529.95 591.97 529.52 591.44 529.52C590.91 529.52 590.48 529.95 590.48 530.48C590.48 531.01 590.91 531.44 591.44 531.44Z" fill="#575988"/>
<path d="M592.65 533.21C593.18 533.21 593.61 532.78 593.61 532.25C593.61 531.72 593.18 531.29 592.65 531.29C592.12 531.29 591.69 531.72 591.69 532.25C591.69 532.78 592.12 533.21 592.65 533.21Z" fill="#575988"/>
<path d="M593.91 535.14C594.44 535.14 594.87 534.71 594.87 534.18C594.87 533.65 594.44 533.22 593.91 533.22C593.38 533.22 592.95 533.65 592.95 534.18C592.95 534.71 593.38 535.14 593.91 535.14Z" fill="#575988"/>
<path d="M707.33 534.85C707.761 534.85 708.11 534.501 708.11 534.07C708.11 533.639 707.761 533.29 707.33 533.29C706.899 533.29 706.55 533.639 706.55 534.07C706.55 534.501 706.899 534.85 707.33 534.85Z" fill="#575988"/>
<path d="M707.45 536.63C707.881 536.63 708.23 536.281 708.23 535.85C708.23 535.419 707.881 535.07 707.45 535.07C707.019 535.07 706.67 535.419 706.67 535.85C706.67 536.281 707.019 536.63 707.45 536.63Z" fill="#575988"/>
<path d="M707.55 538.4C707.981 538.4 708.33 538.051 708.33 537.62C708.33 537.189 707.981 536.84 707.55 536.84C707.119 536.84 706.77 537.189 706.77 537.62C706.77 538.051 707.119 538.4 707.55 538.4Z" fill="#575988"/>
<path opacity="0.1" d="M645.44 586.45C645.33 586.31 672.44 620.56 693.51 600.77C693.51 600.77 660.23 605.28 645.44 586.45Z" fill="black"/>
<path opacity="0.1" d="M629.86 604.26C629.86 604.26 646.09 604.7 647.79 609.37V614.23C647.33 614.483 646.814 614.616 646.29 614.616C645.765 614.616 645.249 614.483 644.79 614.23C643.15 613.35 633.34 608.36 629.88 610.76L629.86 604.26Z" fill="black"/>
<path d="M630.16 604.26C630.16 604.26 645.68 604.68 647.31 609.13V613.77C646.867 614.013 646.37 614.141 645.865 614.141C645.36 614.141 644.863 614.013 644.42 613.77C642.85 612.92 633.42 608.17 630.16 610.46V604.26Z" fill="#3F3D56"/>
<path opacity="0.1" d="M638.72 568.98C640.378 572.815 642.489 576.438 645.01 579.77C647.755 583.46 651.086 586.676 654.87 589.29C654.87 589.29 638.99 571.25 638.72 568.98Z" fill="black"/>
<path opacity="0.1" d="M633.41 550.16C633.41 550.16 636.12 561.85 643.09 565.82L633.41 550.16Z" fill="black"/>
<path opacity="0.1" d="M629.23 551.34C629.16 551.12 626.82 560.58 638.23 565.82C638.23 565.82 633.41 564.18 629.23 551.34Z" fill="black"/>
<path opacity="0.1" d="M700.13 543.5C699.95 543.5 705.75 547.2 707.33 548.91C707.33 548.91 703.56 543.26 700.13 543.5Z" fill="black"/>
<path d="M663.41 535.42C663.521 536.184 663.918 536.877 664.52 537.36C664.942 537.559 665.403 537.662 665.87 537.66C670.24 537.93 674.78 538.12 678.87 536.44C679.635 536.178 680.323 535.727 680.87 535.13C681.446 534.169 681.807 533.094 681.93 531.98C682.5 529.84 683.71 527.98 684.58 525.9C686.04 522.458 686.528 518.68 685.99 514.98C685.881 513.843 685.508 512.747 684.9 511.78C683.74 510.13 681.63 509.46 680.1 508.14C678.57 506.82 677.58 504.81 675.8 503.82C674.103 503.065 672.203 502.896 670.4 503.34C666.83 503.952 663.409 505.238 660.32 507.13C659.32 507.77 658.14 508.5 656.95 508.28C655.928 507.953 655.051 507.282 654.47 506.38C653.618 508.341 653.251 510.478 653.4 512.61C653.449 512.921 653.449 513.239 653.4 513.55C653.246 513.925 653.018 514.265 652.73 514.55C651.65 515.8 650.98 517.78 652.04 519.04C652.51 519.59 653.22 519.89 653.67 520.45C654.48 521.45 654.2 522.9 654.18 524.19C654.141 524.637 654.254 525.085 654.5 525.46C654.734 525.676 655.02 525.828 655.33 525.901C655.64 525.975 655.963 525.967 656.27 525.88C656.878 525.697 657.517 525.636 658.15 525.7C658.822 525.925 659.399 526.368 659.79 526.96C661.77 529.52 662.56 532.33 663.41 535.42Z" fill="#2D293D"/>
<g opacity="0.1">
<path opacity="0.1" d="M681.23 534.03C680.685 534.627 679.997 535.075 679.23 535.33C675.23 537.02 670.65 536.82 666.29 536.55C665.822 536.559 665.36 536.456 664.94 536.25C664.332 535.775 663.931 535.083 663.82 534.32C662.97 531.23 662.19 528.41 660.17 525.85C659.782 525.256 659.204 524.811 658.53 524.59C657.897 524.526 657.259 524.587 656.65 524.77C656.343 524.857 656.02 524.865 655.71 524.791C655.4 524.718 655.114 524.566 654.88 524.35C654.633 523.975 654.523 523.526 654.57 523.08C654.57 521.79 654.86 520.34 654.05 519.34C653.6 518.78 652.89 518.48 652.42 517.93C652.119 517.519 651.935 517.034 651.887 516.527C651.84 516.02 651.931 515.51 652.15 515.05C651.38 516.27 651.05 517.83 651.94 518.89C652.41 519.44 653.12 519.74 653.57 520.3C654.38 521.3 654.1 522.75 654.08 524.04C654.041 524.487 654.154 524.935 654.4 525.31C654.634 525.527 654.92 525.679 655.23 525.753C655.54 525.826 655.864 525.818 656.17 525.73C656.779 525.547 657.417 525.486 658.05 525.55C658.722 525.775 659.299 526.218 659.69 526.81C661.69 529.38 662.49 532.19 663.34 535.28C663.451 536.044 663.848 536.737 664.45 537.22C664.872 537.419 665.333 537.522 665.8 537.52C670.17 537.79 674.71 537.98 678.8 536.3C679.564 536.035 680.251 535.585 680.8 534.99C681.072 534.642 681.282 534.25 681.42 533.83C681.36 533.9 681.32 533.98 681.23 534.03Z" fill="black"/>
<path opacity="0.1" d="M653.41 513.17C653.607 512.961 653.757 512.712 653.85 512.44C653.899 512.129 653.899 511.811 653.85 511.5C653.726 509.746 653.954 507.985 654.52 506.32L654.44 506.23C653.584 508.189 653.217 510.327 653.37 512.46C653.403 512.695 653.417 512.933 653.41 513.17Z" fill="black"/>
</g>
<path opacity="0.1" d="M660.85 544.1C660.85 544.1 678.74 546.47 680.35 543.78L660.85 544.1Z" fill="black"/>
<path opacity="0.1" d="M695.63 536.7C695.63 536.7 705.56 536.7 707.75 540.44L695.63 536.7Z" fill="black"/>
</g>
<defs>
<linearGradient id="paint0_linear" x1="647.69" y1="799.76" x2="647.69" y2="499.1" gradientUnits="userSpaceOnUse">
<stop stop-color="#808080" stop-opacity="0.25"/>
<stop offset="0.54" stop-color="#808080" stop-opacity="0.12"/>
<stop offset="1" stop-color="#808080" stop-opacity="0.1"/>
</linearGradient>
<clipPath id="clip0">
<rect width="1096.46" height="805.97" fill="white"/>
</clipPath>
</defs>
</svg>
